SplineFontDB: 3.0
FontName: ShadheenLipi
FullName: ShadheenLipi
FamilyName: ShadheenLipi
Weight: Book
Copyright: Copyright MuktoBangla Team 2010.\nYou are legally entitled to legally reuse and redistribute this font without any permissions.
UComments: "This font took quite a lot of Time to make." 
Version: 1.0
ItalicAngle: -11
UnderlinePosition: -123
UnderlineWidth: 20
Ascent: 800
Descent: 200
LayerCount: 2
Layer: 0 1 "Back"  1
Layer: 1 1 "Fore"  0
XUID: [1021 232 209832379 5054187]
FSType: 0
OS2Version: 3
OS2_WeightWidthSlopeOnly: 0
OS2_UseTypoMetrics: 1
CreationTime: 1172662921
ModificationTime: 1291252812
PfmFamily: 81
TTFWeight: 400
TTFWidth: 5
LineGap: 0
VLineGap: 0
Panose: 0 0 0 0 0 0 0 0 0 0
OS2TypoAscent: 0
OS2TypoAOffset: 1
OS2TypoDescent: 400
OS2TypoDOffset: 1
OS2TypoLinegap: 0
OS2WinAscent: 0
OS2WinAOffset: 1
OS2WinDescent: 0
OS2WinDOffset: 1
HheadAscent: -63
HheadAOffset: 1
HheadDescent: 515
HheadDOffset: 1
OS2SubXSize: 700
OS2SubYSize: 650
OS2SubXOff: 0
OS2SubYOff: 143
OS2SupXSize: 700
OS2SupYSize: 650
OS2SupXOff: 0
OS2SupYOff: 453
OS2StrikeYSize: 50
OS2StrikeYPos: 259
OS2Vendor: 'Alts'
OS2CodePages: 0000003f.04000000
OS2UnicodeRanges: 8000002f.00000048.00000000.00000000
DEI: 91125
TtTable: prep
NPUSHB
 23
 14
 14
 13
 13
 12
 12
 11
 11
 10
 10
 9
 9
 8
 8
 7
 7
 6
 6
 1
 1
 0
 0
 1
SCANTYPE
PUSHW_1
 511
SCANCTRL
RCVT
ROUND[Grey]
WCVTP
RCVT
ROUND[Grey]
WCVTP
RCVT
ROUND[Grey]
WCVTP
RCVT
ROUND[Grey]
WCVTP
RCVT
ROUND[Grey]
WCVTP
RCVT
ROUND[Grey]
WCVTP
RCVT
ROUND[Grey]
WCVTP
RCVT
ROUND[Grey]
WCVTP
RCVT
ROUND[Grey]
WCVTP
RCVT
ROUND[Grey]
WCVTP
RCVT
ROUND[Grey]
WCVTP
PUSHB_4
 3
 2
 70
 0
CALL
PUSHB_4
 5
 4
 70
 0
CALL
PUSHB_2
 2
 2
RCVT
ROUND[Grey]
WCVTP
PUSHB_2
 4
 4
RCVT
ROUND[Grey]
WCVTP
EndTTInstrs
TtTable: fpgm
NPUSHB
 1
 0
FDEF
SROUND
RCVT
DUP
PUSHB_1
 3
CINDEX
RCVT
SWAP
SUB
ROUND[Grey]
RTG
SWAP
ROUND[Grey]
ADD
WCVTP
ENDF
EndTTInstrs
ShortTable: cvt  19
  1
  549
  51
  44
  51
  68
  57
  74
  31
  361
  310
  262
  244
  336
  483
  23138
  23138

StartChar: .notdef
Encoding: 65536 -1 0
Width: 500
Flags: W
LayerCount: 2
Fore
SplineSet
63 0 m 1,0,-1
 63 725 l 1,1,-1
 438 725 l 1,2,-1
 438 0 l 1,3,-1
 63 0 l 1,0,-1
125 63 m 1,4,-1
 375 63 l 1,5,-1
 375 663 l 1,6,-1
 125 663 l 1,7,-1
 125 63 l 1,4,-1
EndSplineSet
EndChar

StartChar: exclam
Encoding: 33 33 4
Width: 295
Flags: W
LayerCount: 2
Fore
SplineSet
232 404 m 2,0,-1
 213 211 l 1,1,-1
 193 231 l 1,2,-1
 164 401 l 1,3,-1
 153 486 l 2,4,5
 150 509 150 509 150 522 c 0,6,7
 150 589 150 589 193 591 c 0,8,9
 223 592 223 592 235 550 c 0,10,11
 243 519 243 519 240 483 c 0,12,13
 238 463 238 463 232 404 c 2,0,-1
255 128 m 256,14,15
 255 79 255 79 210 79 c 0,16,17
 188 79 188 79 173.5 94 c 128,-1,18
 159 109 159 109 158 131 c 0,19,20
 157 152 157 152 173 164.5 c 128,-1,21
 189 177 189 177 210 177 c 0,22,23
 255 177 255 177 255 128 c 256,14,15
EndSplineSet
EndChar

StartChar: quotedbl
Encoding: 34 34 5
Width: 347
Flags: W
LayerCount: 2
Fore
SplineSet
105 378 m 1,0,-1
 88 378 l 1,1,-1
 59 545 l 2,2,3
 56 560 56 560 68 571 c 128,-1,4
 80 582 80 582 96 582 c 0,5,6
 111 582 111 582 123 570.5 c 128,-1,7
 135 559 135 559 133 545 c 2,8,-1
 105 378 l 1,0,-1
258 378 m 1,9,-1
 241 378 l 1,10,-1
 213 545 l 2,11,12
 211 560 211 560 223 571 c 128,-1,13
 235 582 235 582 250 582 c 256,14,15
 265 582 265 582 276.5 571 c 128,-1,16
 288 560 288 560 286 545 c 2,17,-1
 258 378 l 1,9,-1
EndSplineSet
EndChar

StartChar: numbersign
Encoding: 35 35 6
Width: 500
Flags: W
LayerCount: 2
Fore
SplineSet
470 271 m 1,0,-1
 470 216 l 1,1,-1
 361 216 l 1,2,-1
 330 0 l 1,3,-1
 272 0 l 1,4,-1
 303 216 l 1,5,-1
 169 216 l 1,6,-1
 136 0 l 1,7,-1
 78 0 l 1,8,-1
 111 216 l 1,9,-1
 4 216 l 1,10,-1
 4 271 l 1,11,-1
 120 271 l 1,12,-1
 141 405 l 1,13,-1
 31 405 l 1,14,-1
 31 460 l 1,15,-1
 149 460 l 1,16,-1
 180 662 l 1,17,-1
 238 662 l 1,18,-1
 207 460 l 1,19,-1
 340 460 l 1,20,-1
 370 662 l 1,21,-1
 428 662 l 1,22,-1
 398 460 l 1,23,-1
 495 460 l 1,24,-1
 495 405 l 1,25,-1
 390 405 l 1,26,-1
 370 271 l 1,27,-1
 470 271 l 1,0,-1
332 405 m 1,28,-1
 199 405 l 1,29,-1
 178 271 l 1,30,-1
 312 271 l 1,31,-1
 332 405 l 1,28,-1
EndSplineSet
EndChar

StartChar: dollar
Encoding: 36 36 7
Width: 384
Flags: W
LayerCount: 2
Fore
SplineSet
375 264 m 0,0,1
 375 172 375 172 275 104 c 0,2,3
 237 78 237 78 218 74 c 0,4,5
 203 71 203 71 154 75 c 0,6,7
 131 77 131 77 105 100.5 c 128,-1,8
 79 124 79 124 78 146 c 128,-1,9
 77 168 77 168 77 303 c 1,10,-1
 33 303 l 1,11,-1
 -15 351 l 1,12,-1
 81 351 l 1,13,14
 82 356 82 356 81 446 c 0,15,16
 81 480 81 480 46 480 c 0,17,18
 31 480 31 480 25 475 c 1,19,20
 20 489 20 489 9 521 c 1,21,22
 52 539 52 539 80 529 c 0,23,24
 132 511 132 511 131 458 c 0,25,26
 130 426 130 426 132 389 c 0,27,28
 133 366 133 366 132 352 c 1,29,-1
 159 352 l 1,30,-1
 206 303 l 1,31,-1
 134 303 l 1,32,-1
 134 167 l 2,33,34
 134 125 134 125 182 125 c 0,35,36
 242 125 242 125 277 190 c 0,37,38
 301 234 301 234 298 246 c 1,39,40
 262 243 262 243 240 260 c 128,-1,41
 218 277 218 277 222 313 c 0,42,43
 228 372 228 372 287 372 c 0,44,45
 375 372 375 372 375 264 c 0,0,1
EndSplineSet
EndChar

StartChar: percent
Encoding: 37 37 8
Width: 751
Flags: W
LayerCount: 2
Fore
SplineSet
586 678 m 1,0,-1
 204 -17 l 1,1,-1
 149 -17 l 1,2,-1
 481 589 l 1,3,4
 431 568 431 568 377 568 c 0,5,6
 337 568 337 568 309 580 c 1,7,8
 315 567 315 567 315 538 c 0,9,10
 316 465 316 465 284 408 c 0,11,12
 246 339 246 339 178 339 c 0,13,14
 124 339 124 339 91 375.5 c 128,-1,15
 58 412 58 412 58 467 c 0,16,17
 58 540 58 540 106 598 c 0,18,19
 156 660 156 660 228 660 c 0,20,21
 249 660 249 660 261 652 c 1,22,23
 270 643 270 643 287 630 c 0,24,25
 324 602 324 602 399 602 c 0,26,27
 439 602 439 602 479 623.5 c 128,-1,28
 519 645 519 645 543 678 c 1,29,-1
 586 678 l 1,0,-1
669 208 m 0,30,31
 669 133 669 133 636 76 c 0,32,33
 597 7 597 7 527 9 c 0,34,35
 411 12 411 12 411 137 c 0,36,37
 411 203 411 203 454 265 c 0,38,39
 501 332 501 332 565 332 c 0,40,41
 633 332 633 332 657 283 c 0,42,43
 669 258 669 258 669 208 c 0,30,31
234 620 m 0,44,45
 191 620 191 620 162 541 c 0,46,47
 137 472 137 472 137 428 c 0,48,49
 137 370 137 370 177 370 c 0,50,51
 224 370 224 370 258 440 c 0,52,53
 286 497 286 497 286 541 c 0,54,55
 286 571 286 571 275 592 c 0,56,57
 261 620 261 620 234 620 c 0,44,45
584 292 m 0,58,59
 542 292 542 292 512 212 c 0,60,61
 487 145 487 145 487 100 c 0,62,63
 487 41 487 41 527 41 c 0,64,65
 572 41 572 41 608 111 c 0,66,67
 637 168 637 168 637 212 c 0,68,69
 637 241 637 241 625 264 c 0,70,71
 611 292 611 292 584 292 c 0,58,59
EndSplineSet
EndChar

StartChar: ampersand
Encoding: 38 38 9
Width: 1
Flags: W
LayerCount: 2
Fore
SplineSet
-21 -132 m 1,0,-1
 -37 -155 l 1,1,-1
 -208 -48 l 1,2,-1
 -171 -7 l 1,3,-1
 -21 -132 l 1,0,-1
EndSplineSet
EndChar

StartChar: quotesingle
Encoding: 39 39 10
Width: 153
Flags: W
LayerCount: 2
Fore
SplineSet
85 378 m 1,0,-1
 68 378 l 1,1,-1
 40 545 l 2,2,3
 38 560 38 560 49.5 571 c 128,-1,4
 61 582 61 582 76 582 c 256,5,6
 91 582 91 582 103 571 c 128,-1,7
 115 560 115 560 113 545 c 2,8,-1
 85 378 l 1,0,-1
EndSplineSet
EndChar

StartChar: parenleft
Encoding: 40 40 11
Width: 333
Flags: W
LayerCount: 2
Fore
SplineSet
304 -161 m 1,0,-1
 292 -177 l 1,1,2
 49 -15 49 -15 49 260 c 0,3,4
 49 524 49 524 295 676 c 1,5,-1
 304 660 l 1,6,7
 134 542 134 542 134 269 c 0,8,9
 134 124 134 124 162 38 c 0,10,11
 200 -79 200 -79 304 -161 c 1,0,-1
EndSplineSet
EndChar

StartChar: parenright
Encoding: 41 41 12
Width: 333
Flags: W
LayerCount: 2
Fore
SplineSet
38 -177 m 1,0,-1
 29 -161 l 1,1,2
 199 -43 199 -43 199 229 c 0,3,4
 199 342 199 342 182 423 c 0,5,6
 150 575 150 575 29 660 c 1,7,-1
 41 676 l 1,8,9
 123 637 123 637 192 533 c 0,10,11
 284 393 284 393 284 232 c 0,12,13
 284 105 284 105 216 -5 c 0,14,15
 151 -110 151 -110 38 -177 c 1,0,-1
EndSplineSet
EndChar

StartChar: asterisk
Encoding: 42 42 13
Width: 500
Flags: W
LayerCount: 2
Fore
SplineSet
393 346 m 0,0,1
 357 346 357 346 346 378 c 0,2,3
 339 397 339 397 256 458 c 1,4,5
 255 430 255 430 266 380 c 0,6,7
 277 327 277 327 278 303 c 0,8,9
 278 286 278 286 266 274 c 128,-1,10
 254 262 254 262 237 266 c 0,11,12
 210 272 210 272 205 296 c 0,13,14
 199 323 199 323 214 341 c 0,15,16
 225 354 225 354 232 396 c 0,17,18
 235 416 235 416 241 458 c 1,19,20
 176 421 176 421 127 361 c 0,21,22
 119 351 119 351 101 351 c 0,23,24
 64 351 64 351 64 391 c 0,25,26
 64 410 64 410 82.5 422.5 c 128,-1,27
 101 435 101 435 120.5 432 c 128,-1,28
 140 429 140 429 232 470 c 1,29,30
 171 507 171 507 94 522 c 0,31,32
 67 527 67 527 67 557 c 0,33,34
 67 573 67 573 78 584.5 c 128,-1,35
 89 596 89 596 105 596 c 0,36,37
 140 596 140 596 152 564 c 0,38,39
 157 550 157 550 241 482 c 1,40,41
 241 510 241 510 227.5 564.5 c 128,-1,42
 214 619 214 619 214 646 c 0,43,44
 214 662 214 662 228 673.5 c 128,-1,45
 242 685 242 685 258 682 c 0,46,47
 291 675 291 675 291 637 c 0,48,49
 291 619 291 619 281 607 c 0,50,51
 266 589 266 589 258 482 c 1,52,53
 321 511 321 511 374 573 c 1,54,55
 385 582 385 582 401 582 c 0,56,57
 438 582 438 582 438 544 c 0,58,59
 438 507 438 507 378 500 c 0,60,61
 344 496 344 496 333 492 c 0,62,63
 316 486 316 486 266 468 c 1,64,65
 328 434 328 434 404 420 c 0,66,67
 431 415 431 415 431 385 c 0,68,69
 431 346 431 346 393 346 c 0,0,1
EndSplineSet
EndChar

StartChar: plus
Encoding: 43 43 14
Width: 564
Flags: W
LayerCount: 2
Fore
SplineSet
250 293 m 1,0,-1
 250 512 l 1,1,-1
 314 512 l 1,2,-1
 314 293 l 1,3,-1
 534 293 l 1,4,-1
 534 229 l 1,5,-1
 314 229 l 1,6,-1
 314 7 l 1,7,-1
 250 7 l 1,8,-1
 250 229 l 1,9,-1
 30 229 l 1,10,-1
 30 293 l 1,11,-1
 250 293 l 1,0,-1
EndSplineSet
EndChar

StartChar: comma
Encoding: 44 44 15
Width: 250
Flags: W
LayerCount: 2
Fore
SplineSet
89 -143 m 1,0,-1
 80 -123 l 1,1,2
 110 -109 110 -109 136 -79 c 0,3,4
 165 -44 165 -44 159 -15 c 0,5,6
 157 -4 157 -4 148 -4 c 1,7,8
 156 -4 156 -4 116 -8 c 1,9,10
 63 -3 63 -3 63 41 c 0,11,12
 63 101 63 101 123 101 c 0,13,14
 202 101 202 101 202 3 c 0,15,16
 202 -38 202 -38 166 -83 c 128,-1,17
 130 -128 130 -128 89 -143 c 1,0,-1
EndSplineSet
EndChar

StartChar: hyphen
Encoding: 45 45 16
Width: 333
Flags: W
LayerCount: 2
Fore
SplineSet
289 194 m 1,0,-1
 43 194 l 1,1,-1
 43 257 l 1,2,-1
 289 257 l 1,3,-1
 289 194 l 1,0,-1
EndSplineSet
EndChar

StartChar: period
Encoding: 46 46 17
Width: 250
Flags: W
LayerCount: 2
Fore
SplineSet
125 101 m 0,0,1
 173 101 173 101 182 56 c 0,2,3
 188 27 188 27 171 6.5 c 128,-1,4
 154 -14 154 -14 125 -14 c 0,5,6
 78 -14 78 -14 69 31 c 0,7,8
 63 59 63 59 80 80 c 128,-1,9
 97 101 97 101 125 101 c 0,0,1
EndSplineSet
EndChar

StartChar: slash
Encoding: 47 47 18
Width: 278
Flags: W
LayerCount: 2
Fore
SplineSet
50 -108 m 1,0,-1
 -12 -108 l 1,1,-1
 240 682 l 1,2,-1
 302 682 l 1,3,-1
 50 -108 l 1,0,-1
EndSplineSet
EndChar

StartChar: zero
Encoding: 48 48 19
Width: 501
Flags: W
LayerCount: 2
Fore
SplineSet
234 55 m 0,0,1
 151 59 151 59 99 119 c 0,2,3
 49 176 49 176 48 260 c 0,4,5
 47 338 47 338 109 390 c 0,6,7
 168 440 168 440 247 440 c 0,8,9
 356 440 356 440 412 352 c 0,10,11
 443 303 443 303 443 245 c 0,12,13
 443 165 443 165 378.5 108 c 128,-1,14
 314 51 314 51 234 55 c 0,0,1
382 288 m 0,15,16
 382 368 382 368 302 386 c 0,17,18
 293 388 293 388 282 388 c 0,19,20
 243 388 243 388 199.5 362.5 c 128,-1,21
 156 337 156 337 137 303 c 0,22,23
 105 246 105 246 105 205 c 0,24,25
 105 156 105 156 150 125 c 0,26,27
 171 111 171 111 200 111 c 0,28,29
 256 111 256 111 314 158 c 0,30,31
 382 213 382 213 382 288 c 0,15,16
EndSplineSet
EndChar

StartChar: one
Encoding: 49 49 20
Width: 438
Flags: W
LayerCount: 2
Fore
SplineSet
257 25 m 0,0,1
 207 -4 207 -4 167 -4 c 0,2,3
 135 -4 135 -4 106 17 c 0,4,5
 73 40 73 40 73 70 c 0,6,7
 73 99 73 99 98 126 c 0,8,9
 120 150 120 150 150 160 c 0,10,11
 162 164 162 164 181 164 c 0,12,13
 250 164 250 164 282 128 c 1,14,15
 313 162 313 162 313 199 c 0,16,17
 313 227 313 227 281 265 c 0,18,19
 221 336 221 336 126 423 c 0,20,21
 76 469 76 469 76 507 c 0,22,23
 76 543 76 543 111 563 c 0,24,25
 125 571 125 571 138 571 c 0,26,27
 176 571 176 571 189 526 c 0,28,29
 192 514 192 514 189 497 c 0,30,31
 185 477 185 477 186 476 c 0,32,33
 266 400 266 400 305 347 c 0,34,35
 367 262 367 262 367 188 c 0,36,37
 367 89 367 89 257 25 c 0,0,1
EndSplineSet
EndChar

StartChar: two
Encoding: 50 50 21
Width: 479
Flags: W
LayerCount: 2
Fore
SplineSet
480 -81 m 1,0,1
 412 -10 412 -10 318 49 c 0,2,3
 242 97 242 97 203 114 c 0,4,5
 148 138 148 138 83 151 c 1,6,-1
 34 321 l 2,7,8
 45 282 45 282 150 246 c 0,9,10
 200 229 200 229 231 225 c 0,11,12
 264 221 264 221 302 240 c 0,13,14
 345 261 345 261 345 292 c 0,15,16
 345 301 345 301 340 311 c 0,17,18
 310 371 310 371 252 400 c 0,19,20
 227 412 227 412 155 447 c 0,21,22
 108 470 108 470 108 503 c 0,23,24
 108 519 108 519 118 541 c 1,25,26
 139 561 139 561 162 561 c 1,27,28
 168 560 168 560 196 553 c 1,29,30
 213 542 213 542 216 508 c 1,31,32
 295 469 295 469 333 434 c 0,33,34
 389 381 389 381 389 312 c 0,35,36
 389 255 389 255 365 224 c 0,37,38
 356 212 356 212 315 179 c 0,39,40
 303 170 303 170 285 164 c 2,41,-1
 252 154 l 1,42,43
 261 149 261 149 373 67 c 0,44,45
 404 44 404 44 468 -17 c 1,46,-1
 480 -81 l 1,0,1
EndSplineSet
EndChar

StartChar: three
Encoding: 51 51 22
Width: 508
Flags: W
LayerCount: 2
Fore
SplineSet
475 267 m 0,0,1
 475 145 475 145 403 82 c 0,2,3
 349 35 349 35 281 37 c 0,4,5
 171 40 171 40 83 191 c 0,6,7
 11 315 11 315 -4 442 c 1,8,-1
 40 423 l 1,9,10
 53 337 53 337 101 254 c 0,11,12
 120 221 120 221 152 188 c 0,13,14
 207 131 207 131 271 131 c 0,15,16
 332 131 332 131 381 173.5 c 128,-1,17
 430 216 430 216 426 276 c 0,18,19
 421 366 421 366 387 397 c 0,20,21
 364 418 364 418 314 433 c 1,22,23
 325 413 325 413 328 396 c 0,24,25
 334 366 334 366 320 340 c 0,26,27
 294 292 294 292 243 292 c 0,28,29
 202 292 202 292 176 327 c 0,30,31
 152 359 152 359 152 401 c 0,32,33
 152 429 152 429 169.5 457 c 128,-1,34
 187 485 187 485 212 497 c 0,35,36
 233 507 233 507 274 511 c 0,37,38
 317 515 317 515 373 477 c 0,39,40
 475 407 475 407 475 267 c 0,0,1
EndSplineSet
EndChar

StartChar: four
Encoding: 52 52 23
Width: 497
Flags: W
LayerCount: 2
Fore
SplineSet
405 181 m 0,0,1
 408 116 408 116 345 74 c 0,2,3
 293 39 293 39 223 33 c 0,4,5
 142 26 142 26 87 75 c 0,6,7
 48 110 48 110 40 149 c 0,8,9
 35 175 35 175 42 195 c 0,10,11
 73 281 73 281 156 293 c 1,12,13
 54 321 54 321 54 417 c 0,14,15
 54 481 54 481 110 526 c 0,16,17
 160 567 160 567 227 573 c 0,18,19
 286 578 286 578 334 544 c 1,20,21
 387 508 387 508 387 450 c 0,22,23
 387 415 387 415 359.5 376 c 128,-1,24
 332 337 332 337 299 326 c 1,25,26
 401 295 401 295 405 181 c 0,0,1
167 380 m 0,27,28
 198 356 198 356 235 350 c 1,29,30
 278 374 278 374 288 382 c 0,31,32
 327 411 327 411 327 447 c 0,33,34
 327 485 327 485 293 509 c 0,35,36
 263 531 263 531 223 531 c 0,37,38
 188 531 188 531 158 510 c 0,39,40
 124 487 124 487 124 454 c 0,41,42
 124 413 124 413 167 380 c 0,27,28
334 161 m 1,43,44
 332 198 332 198 289.5 235.5 c 128,-1,45
 247 273 247 273 210 273 c 0,46,47
 206 273 206 273 204 272 c 0,48,49
 149 234 149 234 131 208 c 0,50,51
 120 192 120 192 119 164 c 0,52,53
 117 118 117 118 169 95 c 0,54,55
 191 85 191 85 221 85 c 0,56,57
 309 85 309 85 334 161 c 1,43,44
EndSplineSet
EndChar

StartChar: five
Encoding: 53 53 24
Width: 501
Flags: W
LayerCount: 2
Fore
SplineSet
486 364 m 1,0,1
 415 346 415 346 359 300 c 0,2,3
 281 236 281 236 281 166 c 0,4,5
 281 60 281 60 402 28 c 1,6,7
 362 9 362 9 307 9 c 0,8,9
 212 9 212 9 139 52 c 0,10,11
 56 100 56 100 37 187 c 0,12,13
 31 214 31 214 31 241 c 0,14,15
 31 380 31 380 172 490 c 0,16,17
 235 539 235 539 283 547 c 1,18,-1
 365 528 l 1,19,20
 345 523 345 523 332.5 503 c 128,-1,21
 320 483 320 483 319 462 c 0,22,23
 319 444 319 444 330 429 c 0,24,25
 336 421 336 421 358 420 c 128,-1,26
 380 419 380 419 383 417 c 2,27,-1
 437 384 l 2,28,29
 461 370 461 370 486 364 c 1,0,1
347 367 m 1,30,31
 318 372 318 372 311 376 c 0,32,33
 300 382 300 382 281 405 c 0,34,35
 271 417 271 417 259 464 c 1,36,37
 216 444 216 444 176.5 403 c 128,-1,38
 137 362 137 362 119 318 c 0,39,40
 95 261 95 261 95 216 c 0,41,42
 95 163 95 163 139 116 c 0,43,44
 178 74 178 74 233 56 c 1,45,46
 240 55 240 55 277 48 c 1,47,48
 219 101 219 101 219 175 c 0,49,50
 219 237 219 237 254.5 291.5 c 128,-1,51
 290 346 290 346 347 367 c 1,30,31
EndSplineSet
EndChar

StartChar: six
Encoding: 54 54 25
Width: 483
Flags: W
LayerCount: 2
Fore
SplineSet
325 18 m 0,0,1
 303 13 303 13 284 13 c 0,2,3
 215 13 215 13 151 74 c 0,4,5
 99 123 99 123 65 197 c 0,6,7
 37 257 37 257 12 354 c 0,8,9
 4 384 4 384 -1 437 c 1,10,-1
 28 424 l 1,11,12
 43 346 43 346 67 292.5 c 128,-1,13
 91 239 91 239 140 171 c 128,-1,14
 189 103 189 103 282 103 c 0,15,16
 331 103 331 103 368.5 129 c 128,-1,17
 406 155 406 155 417 201 c 0,18,19
 425 234 425 234 419 264 c 0,20,21
 414 288 414 288 399 312 c 1,22,23
 387 284 387 284 359 261.5 c 128,-1,24
 331 239 331 239 302 234 c 0,25,26
 285 231 285 231 270 231 c 0,27,28
 241 231 241 231 216 247 c 0,29,30
 172 276 172 276 165 322 c 2,31,-1
 146 456 l 1,32,33
 127 456 127 456 113.5 471 c 128,-1,34
 100 486 100 486 100 505 c 0,35,36
 100 528 100 528 117 541 c 128,-1,37
 134 554 134 554 157 552 c 0,38,39
 218 548 218 548 218 474 c 2,40,-1
 218 316 l 2,41,42
 218 303 218 303 227.5 294.5 c 128,-1,43
 237 286 237 286 250 287 c 0,44,45
 273 289 273 289 292 306 c 0,46,47
 349 358 349 358 368 418 c 1,48,49
 463 348 463 348 463 231 c 0,50,51
 463 159 463 159 429 100 c 0,52,53
 391 33 391 33 325 18 c 0,0,1
EndSplineSet
EndChar

StartChar: seven
Encoding: 55 55 26
Width: 504
Flags: W
LayerCount: 2
Fore
SplineSet
467 35 m 0,0,1
 462 -6 462 -6 406 0 c 1,2,3
 358 10 358 10 358 78 c 2,4,-1
 358 257 l 1,5,-1
 210 256 l 1,6,7
 166 260 166 260 128.5 300.5 c 128,-1,8
 91 341 91 341 91 386 c 0,9,10
 91 442 91 442 142 493 c 128,-1,11
 193 544 193 544 249 545 c 0,12,13
 311 546 311 546 368.5 484.5 c 128,-1,14
 426 423 426 423 418 362 c 1,15,-1
 418 96 l 1,16,17
 448 97 448 97 459.5 81 c 128,-1,18
 471 65 471 65 467 35 c 0,0,1
359 330 m 1,19,20
 360 336 360 336 360 343 c 0,21,22
 360 372 360 372 339 420 c 0,23,24
 313 480 313 480 284 492 c 1,25,26
 253 498 253 498 209.5 462.5 c 128,-1,27
 166 427 166 427 160 395 c 0,28,29
 156 375 156 375 156 364 c 0,30,31
 156 334 156 334 179 332 c 2,32,-1
 204 330 l 1,33,-1
 359 330 l 1,19,20
EndSplineSet
EndChar

StartChar: eight
Encoding: 56 56 27
Width: 517
Flags: W
LayerCount: 2
Fore
SplineSet
395 299 m 1,0,1
 395 299 395 299 356 299 c 0,2,3
 328 299 328 299 328 285 c 0,4,5
 328 281 328 281 331 275 c 0,6,7
 346 245 346 245 346 216 c 0,8,9
 346 153 346 153 280.5 88 c 128,-1,10
 215 23 215 23 152 23 c 0,11,12
 130 23 130 23 99 60 c 0,13,14
 71 92 71 92 62 118 c 1,15,-1
 62 448 l 1,16,17
 37 446 37 446 20.5 460 c 128,-1,18
 4 474 4 474 5 499 c 0,19,20
 6 551 6 551 49 551 c 0,21,22
 72 551 72 551 91.5 535.5 c 128,-1,23
 111 520 111 520 113 498 c 2,24,-1
 118 446 l 1,25,-1
 118 325 l 1,26,27
 127 342 127 342 153 359 c 128,-1,28
 179 376 179 376 198 378 c 0,29,30
 207 379 207 379 215 379 c 0,31,32
 252 379 252 379 301 321 c 0,33,34
 307 314 307 314 310 314 c 1,35,36
 321 334 321 334 339 360 c 1,37,38
 359 376 359 376 397 375 c 0,39,40
 449 374 449 374 462 392 c 1,41,42
 467 403 467 403 472 415 c 1,43,-1
 480 412 l 1,44,45
 484 394 484 394 484 379 c 0,46,47
 484 300 484 300 395 299 c 1,0,1
269 249 m 1,48,49
 271 256 271 256 271 262 c 0,50,51
 271 284 271 284 247 298 c 0,52,53
 227 310 227 310 203 310 c 0,54,55
 158 310 158 310 117 281 c 1,56,-1
 117 111 l 1,57,58
 126 84 126 84 130 83 c 1,59,60
 185 83 185 83 245 173 c 0,61,62
 271 212 271 212 269 249 c 1,48,49
EndSplineSet
EndChar

StartChar: nine
Encoding: 57 57 28
Width: 482
Flags: W
LayerCount: 2
Fore
SplineSet
447 214 m 0,0,1
 451 151 451 151 378 87 c 128,-1,2
 305 23 305 23 242 28 c 1,3,-1
 259 124 l 2,4,5
 263 147 263 147 259 166 c 0,6,7
 255 187 255 187 237.5 211.5 c 128,-1,8
 220 236 220 236 202 246 c 0,9,10
 195 250 195 250 165 255 c 0,11,12
 142 259 142 259 122 221 c 0,13,14
 104 188 104 188 104 163 c 0,15,16
 104 139 104 139 120 127 c 1,17,18
 128 128 128 128 134 128 c 0,19,20
 177 128 177 128 177 81 c 0,21,22
 177 27 177 27 133 27 c 0,23,24
 73 27 73 27 52 97 c 0,25,26
 46 117 46 117 46 136 c 0,27,28
 46 198 46 198 84 248 c 0,29,30
 124 302 124 302 185 302 c 0,31,32
 239 302 239 302 279.5 256 c 128,-1,33
 320 210 320 210 320 155 c 0,34,35
 320 134 320 134 313 115 c 1,36,-1
 361 149 l 1,37,38
 389 174 389 174 389 210 c 0,39,40
 389 270 389 270 326 304 c 1,41,-1
 183 360 l 2,42,43
 14 426 14 426 26 523 c 1,44,45
 40 576 40 576 77 576 c 0,46,47
 115 576 115 576 123 539 c 0,48,49
 129 509 129 509 111 495 c 0,50,51
 107 492 107 492 107 489 c 0,52,53
 107 471 107 471 186 448 c 0,54,55
 284 419 284 419 303 411 c 0,56,57
 439 353 439 353 447 214 c 0,0,1
EndSplineSet
EndChar

StartChar: colon
Encoding: 58 58 29
Width: 278
Flags: W
LayerCount: 2
Fore
SplineSet
138 198 m 0,0,1
 185 198 185 198 194 153 c 0,2,3
 200 124 200 124 184 103.5 c 128,-1,4
 168 83 168 83 138 83 c 0,5,6
 91 83 91 83 82 128 c 0,7,8
 76 156 76 156 92.5 177 c 128,-1,9
 109 198 109 198 138 198 c 0,0,1
138 416 m 0,10,11
 186 416 186 416 195 371 c 0,12,13
 201 342 201 342 184 321.5 c 128,-1,14
 167 301 167 301 138 301 c 0,15,16
 91 301 91 301 82 346 c 0,17,18
 76 374 76 374 93 395 c 128,-1,19
 110 416 110 416 138 416 c 0,10,11
EndSplineSet
EndChar

StartChar: semicolon
Encoding: 59 59 30
Width: 278
Flags: W
LayerCount: 2
Fore
SplineSet
89 -49 m 1,0,-1
 80 -29 l 1,1,2
 107 -17 107 -17 134 14 c 1,3,4
 163 49 163 49 162 75 c 0,5,6
 162 90 162 90 148 90 c 1,7,8
 156 90 156 90 116 86 c 1,9,10
 63 91 63 91 63 135 c 0,11,12
 63 195 63 195 123 195 c 0,13,14
 161 195 161 195 183 164 c 0,15,16
 202 137 202 137 202 97 c 0,17,18
 202 56 202 56 166 11 c 128,-1,19
 130 -34 130 -34 89 -49 c 1,0,-1
163 319 m 0,20,21
 146 300 146 300 125 300 c 0,22,23
 100 300 100 300 83 318 c 128,-1,24
 66 336 66 336 66 361 c 0,25,26
 66 383 66 383 84 399 c 128,-1,27
 102 415 102 415 125 415 c 0,28,29
 144 415 144 415 160 402.5 c 128,-1,30
 176 390 176 390 180 371 c 0,31,32
 186 344 186 344 163 319 c 0,20,21
EndSplineSet
EndChar

StartChar: less
Encoding: 60 60 31
Width: 564
Flags: W
LayerCount: 2
Fore
SplineSet
536 62 m 1,0,-1
 536 0 l 1,1,-1
 27 234 l 1,2,-1
 27 288 l 1,3,-1
 536 522 l 1,4,-1
 536 460 l 1,5,-1
 108 261 l 1,6,-1
 536 62 l 1,0,-1
EndSplineSet
EndChar

StartChar: equal
Encoding: 61 61 32
Width: 564
Flags: W
LayerCount: 2
Fore
SplineSet
534 390 m 1,0,-1
 534 326 l 1,1,-1
 30 326 l 1,2,-1
 30 390 l 1,3,-1
 534 390 l 1,0,-1
534 196 m 1,4,-1
 534 132 l 1,5,-1
 30 132 l 1,6,-1
 30 196 l 1,7,-1
 534 196 l 1,4,-1
EndSplineSet
EndChar

StartChar: greater
Encoding: 62 62 33
Width: 564
Flags: W
LayerCount: 2
Fore
SplineSet
27 62 m 1,0,-1
 455 261 l 1,1,-1
 27 460 l 1,2,-1
 27 522 l 1,3,-1
 536 288 l 1,4,-1
 536 234 l 1,5,-1
 27 0 l 1,6,-1
 27 62 l 1,0,-1
EndSplineSet
EndChar

StartChar: question
Encoding: 63 63 34
Width: 373
Flags: W
LayerCount: 2
Fore
SplineSet
286 268 m 0,0,1
 254 241 254 241 223 206 c 0,2,3
 207 188 207 188 207 173 c 1,4,-1
 219 143 l 1,5,-1
 205 124 l 1,6,-1
 171 143 l 2,7,8
 144 158 144 158 138 205 c 0,9,10
 134 238 134 238 168 266 c 0,11,12
 183 278 183 278 227 314 c 0,13,14
 278 355 278 355 275 404 c 0,15,16
 274 429 274 429 257 446.5 c 128,-1,17
 240 464 240 464 216 460 c 0,18,19
 206 458 206 458 192 444 c 1,20,21
 216 427 216 427 216 405 c 0,22,23
 216 362 216 362 160 355 c 0,24,25
 134 352 134 352 113.5 374.5 c 128,-1,26
 93 397 93 397 93 424 c 0,27,28
 93 450 93 450 114 480 c 0,29,30
 145 525 145 525 223 525 c 0,31,32
 266 525 266 525 294 507 c 0,33,34
 355 468 355 468 355 398 c 0,35,36
 355 327 355 327 286 268 c 0,0,1
189 -16 m 0,37,38
 117 -20 117 -20 117 33 c 0,39,40
 117 58 117 58 136 75 c 128,-1,41
 155 92 155 92 180 94 c 0,42,43
 230 98 230 98 240 51 c 0,44,45
 242 42 242 42 242 34 c 0,46,47
 242 -13 242 -13 189 -16 c 0,37,38
EndSplineSet
EndChar

StartChar: at
Encoding: 64 64 35
Width: 819
Flags: W
LayerCount: 2
Fore
SplineSet
420 118 m 1,0,1
 374 158 374 158 333 169 c 1,2,3
 291 175 291 175 249 182 c 1,4,-1
 200 302 l 1,5,6
 259 261 259 261 333 261 c 0,7,8
 402 261 402 261 443 300 c 0,9,10
 472 327 472 327 472 354 c 0,11,12
 473 383 473 383 447 399 c 0,13,14
 425 413 425 413 395 413 c 0,15,16
 384 413 384 413 377 410 c 1,17,18
 376 378 376 378 338 344 c 0,19,20
 318 326 318 326 288 326 c 0,21,22
 237 326 237 326 240 368 c 0,23,24
 242 399 242 399 263 425 c 0,25,26
 300 470 300 470 364 464 c 2,27,-1
 406 460 l 2,28,29
 423 458 423 458 449 448 c 0,30,31
 513 422 513 422 513 351 c 0,32,33
 513 244 513 244 389 198 c 0,34,35
 387 197 387 197 387 196 c 0,36,37
 387 192 387 192 426 168 c 1,38,-1
 468 136 l 2,39,40
 531 88 531 88 576 88 c 0,41,42
 599 88 599 88 612 100 c 0,43,44
 660 145 660 145 684 226 c 0,45,46
 697 270 697 270 697 306 c 0,47,48
 697 341 697 341 686 372 c 0,49,50
 660 446 660 446 609 496 c 0,51,52
 554 551 554 551 481 564 c 0,53,54
 434 573 434 573 376 561 c 0,55,56
 167 519 167 519 130 285 c 0,57,58
 120 222 120 222 120 196 c 0,59,60
 120 144 120 144 139 87 c 0,61,62
 172 -12 172 -12 227 -56 c 0,63,64
 286 -103 286 -103 388 -103 c 0,65,66
 461 -103 461 -103 509 -88 c 0,67,68
 541 -78 541 -78 602 -45 c 1,69,-1
 618 -78 l 1,70,71
 574 -101 574 -101 514 -122 c 0,72,73
 492 -130 492 -130 424 -138 c 1,74,-1
 359 -138 l 2,75,76
 249 -138 249 -138 154 -48 c 1,77,78
 66 38 66 38 42 150 c 0,79,80
 26 226 26 226 41 285 c 0,81,82
 77 426 77 426 145 484 c 0,83,84
 283 602 283 602 417 602 c 0,85,86
 590 602 590 602 679 471 c 0,87,88
 731 394 731 394 731 305 c 0,89,90
 731 206 731 206 654 98 c 0,91,92
 620 51 620 51 567 51 c 0,93,94
 553 51 553 51 539 54 c 0,95,96
 516 59 516 59 420 118 c 1,0,1
EndSplineSet
EndChar

StartChar: A
Encoding: 65 65 36
Width: 601
Flags: W
LayerCount: 2
Fore
SplineSet
609 508 m 1,0,-1
 523 508 l 1,1,-1
 523 -4 l 1,2,-1
 504 11 l 1,3,4
 481 106 481 106 397 207 c 1,5,6
 350 133 350 133 276 133 c 0,7,8
 175 133 175 133 94 261 c 0,9,10
 30 362 30 362 8 482 c 1,11,-1
 39 469 l 1,12,13
 82 350 82 350 116 303 c 0,14,15
 176 219 176 219 267 219 c 0,16,17
 307 219 307 219 334.5 242 c 128,-1,18
 362 265 362 265 362 304 c 0,19,20
 362 331 362 331 349 361 c 0,21,22
 334 398 334 398 311 397 c 1,23,24
 294 345 294 345 243 345 c 0,25,26
 212 345 212 345 187.5 364.5 c 128,-1,27
 163 384 163 384 163 414 c 0,28,29
 163 448 163 448 195 467 c 0,30,31
 222 483 222 483 258 483 c 0,32,33
 326 483 326 483 375.5 428 c 128,-1,34
 425 373 425 373 425 304 c 0,35,36
 425 290 425 290 422 277 c 1,37,-1
 473 179 l 1,38,-1
 473 508 l 1,39,-1
 -4 508 l 1,40,-1
 -54 558 l 1,41,-1
 558 558 l 1,42,-1
 609 508 l 1,0,-1
EndSplineSet
EndChar

StartChar: B
Encoding: 66 66 37
Width: 469
Flags: W
LayerCount: 2
Fore
SplineSet
514 508 m 1,0,-1
 216 508 l 1,1,2
 219 497 219 497 229 481 c 1,3,4
 238 472 238 472 285 456 c 0,5,6
 325 443 325 443 353 399 c 0,7,8
 384 350 384 350 379 305 c 0,9,10
 369 220 369 220 281 186 c 0,11,12
 241 171 241 171 235 165 c 1,13,14
 235 162 235 162 281 133 c 0,15,16
 340 96 340 96 372 66 c 2,17,-1
 448 -5 l 1,18,-1
 464 -73 l 1,19,20
 316 95 316 95 83 151 c 1,21,-1
 23 276 l 1,22,23
 86 236 86 236 166 236 c 0,24,25
 215 236 215 236 264 261 c 0,26,27
 290 274 290 274 310 303 c 0,28,29
 322 320 322 320 315 354 c 0,30,31
 310 378 310 378 291 393.5 c 128,-1,32
 272 409 272 409 248 409 c 0,33,34
 237 409 237 409 226 405 c 1,35,36
 226 369 226 369 185 333 c 0,37,38
 164 314 164 314 132 314 c 0,39,40
 83 314 83 314 74 353 c 0,41,42
 69 375 69 375 83.5 402 c 128,-1,43
 98 429 98 429 119 439 c 1,44,45
 122 442 122 442 185 470 c 0,46,47
 186 471 186 471 185 473 c 0,48,49
 183 484 183 484 154 508 c 1,50,-1
 0 508 l 1,51,-1
 -50 558 l 1,52,-1
 279 558 l 1,53,54
 311 561 311 561 314 563 c 1,55,56
 328 567 328 567 342 584 c 0,57,58
 346 589 346 589 346 594 c 0,59,60
 346 612 346 612 312 621 c 0,61,62
 285 628 285 628 263 626 c 1,63,64
 226 626 226 626 164 621 c 0,65,66
 139 619 139 619 129 619 c 0,67,68
 71 619 71 619 27 646 c 0,69,70
 -25 677 -25 677 -25 731 c 0,71,72
 -25 757 -25 757 -9 777 c 1,73,74
 -7 782 -7 782 10 782 c 0,75,76
 26 782 26 782 28 781 c 1,77,78
 3 766 3 766 3 743 c 0,79,80
 3 714 3 714 34 699 c 0,81,82
 56 688 56 688 66 688 c 1,83,84
 80 685 80 685 129.5 691 c 128,-1,85
 179 697 179 697 195 697 c 0,86,87
 214 697 214 697 240 696 c 0,88,89
 293 694 293 694 321 676 c 0,90,91
 389 633 389 633 383 558 c 1,92,-1
 464 558 l 1,93,-1
 514 508 l 1,0,-1
EndSplineSet
EndChar

StartChar: C
Encoding: 67 67 38
Width: 513
Flags: W
LayerCount: 2
Fore
SplineSet
565 508 m 1,0,-1
 166 508 l 2,1,2
 158 508 158 508 158 495 c 0,3,4
 158 466 158 466 169 466 c 1,5,6
 200 462 200 462 228 441.5 c 128,-1,7
 256 421 256 421 267 393 c 0,8,9
 275 373 275 373 274 342 c 1,10,11
 303 380 303 380 328 400 c 0,12,13
 379 441 379 441 411 454 c 1,14,-1
 493 400 l 1,15,16
 439 349 439 349 420 314 c 0,17,18
 373 226 373 226 373 143 c 0,19,20
 373 81 373 81 419 -8 c 1,21,-1
 377 13 l 1,22,-1
 354 82 l 2,23,24
 336 136 336 136 336 187 c 0,25,26
 336 270 336 270 378 359 c 1,27,28
 372 346 372 346 340 311 c 0,29,30
 325 296 325 296 295 260 c 1,31,32
 274 233 274 233 238 192 c 1,33,34
 199 154 199 154 159 143 c 1,35,36
 113 143 113 143 84 186 c 0,37,38
 63 217 63 217 64 246 c 0,39,40
 64 252 64 252 66 254 c 2,41,-1
 86 272 l 1,42,43
 100 218 100 218 127 218 c 0,44,45
 136 218 136 218 145 221 c 0,46,47
 168 229 168 229 217 282 c 0,48,49
 232 298 232 298 237 328 c 0,50,51
 241 350 241 350 235 369 c 0,52,53
 227 392 227 392 208 397 c 0,54,55
 183 403 183 403 168 391 c 1,56,57
 171 364 171 364 156.5 344 c 128,-1,58
 142 324 142 324 115 324 c 0,59,60
 47 324 47 324 47 389 c 0,61,62
 47 428 47 428 89 456 c 0,63,64
 111 471 111 471 124 469 c 1,65,-1
 101 508 l 1,66,-1
 -6 508 l 1,67,-1
 -56 558 l 1,68,-1
 365 558 l 1,69,70
 394 568 394 568 391 595 c 0,71,72
 389 615 389 615 352 619 c 1,73,74
 358 618 358 618 307 618 c 0,75,76
 295 618 295 618 270 614.5 c 128,-1,77
 245 611 245 611 231.5 611.5 c 128,-1,78
 218 612 218 612 191 611 c 0,79,80
 161 609 161 609 150 609 c 0,81,82
 100 609 100 609 60 636 c 0,83,84
 15 666 15 666 15 714 c 0,85,86
 15 730 15 730 29.5 753 c 128,-1,87
 44 776 44 776 46 774 c 0,88,89
 64 756 64 756 63 754 c 0,90,91
 49 736 49 736 49 721 c 0,92,93
 48 678 48 678 112 678 c 0,94,95
 128 678 128 678 159.5 681.5 c 128,-1,96
 191 685 191 685 207 685 c 0,97,98
 218 685 218 685 240 686.5 c 128,-1,99
 262 688 262 688 273 688 c 0,100,101
 387 688 387 688 418 616 c 0,102,103
 431 585 431 585 428 558 c 1,104,-1
 515 558 l 1,105,-1
 565 508 l 1,0,-1
EndSplineSet
EndChar

StartChar: D
Encoding: 68 68 39
Width: 521
Flags: W
LayerCount: 2
Fore
SplineSet
567 508 m 1,0,-1
 247 508 l 1,1,-1
 247 360 l 1,2,-1
 251 339 l 1,3,4
 260 320 260 320 278 320 c 0,5,6
 287 320 287 320 325.5 365.5 c 128,-1,7
 364 411 364 411 378 411 c 0,8,9
 412 411 412 411 442 350 c 0,10,11
 468 298 468 298 468 258 c 0,12,13
 468 137 468 137 390 89 c 0,14,15
 340 58 340 58 269 64 c 0,16,17
 196 70 196 70 149 125 c 0,18,19
 125 153 125 153 91 218 c 0,20,21
 86 228 86 228 63 293 c 0,22,23
 49 334 49 334 41 404 c 2,24,-1
 33 478 l 1,25,-1
 63 462 l 1,26,27
 67 395 67 395 102 304 c 0,28,29
 118 262 118 262 143 231 c 2,30,-1
 180 185 l 1,31,32
 219 148 219 148 282 148 c 0,33,34
 318 148 318 148 353 165 c 128,-1,35
 388 182 388 182 405 211 c 0,36,37
 428 250 428 250 428 279 c 0,38,39
 428 310 428 310 403 338 c 1,40,41
 398 321 398 321 366 291 c 0,42,43
 315 243 315 243 279 243 c 0,44,45
 247 243 247 243 225 269 c 128,-1,46
 203 295 203 295 200 328 c 0,47,48
 199 332 199 332 198 328 c 1,49,-1
 198 508 l 1,50,-1
 -8 508 l 1,51,-1
 -56 558 l 1,52,-1
 335 558 l 1,53,54
 347 570 347 570 386 584 c 1,55,56
 388 604 388 604 357 617 c 0,57,58
 331 628 331 628 309 626 c 1,59,60
 273 626 273 626 210 621 c 0,61,62
 185 619 185 619 174 619 c 0,63,64
 101 619 101 619 56 659 c 0,65,66
 29 683 29 683 23 712 c 0,67,68
 16 743 16 743 32 772 c 0,69,70
 41 789 41 789 46 787 c 2,71,-1
 69 777 l 1,72,73
 49 762 49 762 49 742 c 0,74,75
 49 718 49 718 72 702.5 c 128,-1,76
 95 687 95 687 120 687 c 1,77,78
 111 687 111 687 208 692 c 2,79,-1
 286 696 l 1,80,81
 437 686 437 686 430 558 c 1,82,-1
 517 558 l 1,83,-1
 567 508 l 1,0,-1
EndSplineSet
EndChar

StartChar: E
Encoding: 69 69 40
Width: 561
Flags: W
LayerCount: 2
Fore
SplineSet
608 508 m 1,0,-1
 310 508 l 1,1,-1
 310 370 l 2,2,3
 310 305 310 305 318 307 c 0,4,5
 375 322 375 322 420 392 c 1,6,7
 431 418 431 418 440 418 c 0,8,9
 446 418 446 418 456 409 c 0,10,11
 530 340 530 340 530 258 c 0,12,13
 530 141 530 141 443 88 c 0,14,15
 389 55 389 55 329 55 c 0,16,17
 221 55 221 55 142 161 c 0,18,19
 83 241 83 241 50 366 c 0,20,21
 46 382 46 382 42 444 c 1,22,23
 44 453 44 453 45 462 c 1,24,-1
 65 442 l 1,25,26
 71 413 71 413 91 336 c 0,27,28
 104 285 104 285 140 232 c 0,29,30
 183 168 183 168 215 150 c 1,31,32
 187 183 187 183 147 279 c 0,33,34
 133 312 133 312 125 373 c 0,35,36
 120 407 120 407 115 465 c 1,37,-1
 144 444 l 1,38,39
 151 303 151 303 228 206 c 0,40,41
 276 146 276 146 341 146 c 0,42,43
 411 146 411 146 459 199 c 0,44,45
 491 234 491 234 491 273 c 0,46,47
 491 292 491 292 467 336 c 1,48,49
 462 321 462 321 427 289 c 0,50,51
 399 264 399 264 385 255 c 0,52,53
 359 239 359 239 336 239 c 256,54,55
 313 239 313 239 291.5 255 c 128,-1,56
 270 271 270 271 267 293 c 0,57,58
 259 358 259 358 259 366 c 2,59,-1
 259 508 l 1,60,-1
 -1 508 l 1,61,-1
 -51 558 l 1,62,-1
 407 558 l 1,63,64
 422 562 422 562 422 580 c 0,65,66
 422 618 422 618 356 618 c 0,67,68
 299 618 299 618 289 616 c 0,69,70
 254 609 254 609 200 609 c 0,71,72
 117 609 117 609 71 620 c 0,73,74
 -13 640 -13 640 -26 701 c 0,75,76
 -32 730 -32 730 -9 777 c 1,77,-1
 5 765 l 1,78,79
 21 747 21 747 19 745 c 0,80,81
 6 726 6 726 6 716 c 0,82,83
 6 675 6 675 91 675 c 0,84,85
 120 675 120 675 175.5 681.5 c 128,-1,86
 231 688 231 688 259 688 c 0,87,88
 343 689 343 689 395 665 c 0,89,90
 419 654 419 654 438 620.5 c 128,-1,91
 457 587 457 587 460 558 c 1,92,-1
 559 558 l 1,93,-1
 608 508 l 1,0,-1
EndSplineSet
EndChar

StartChar: F
Encoding: 70 70 41
Width: 605
Flags: W
LayerCount: 2
Fore
SplineSet
659 508 m 1,0,-1
 509 508 l 1,1,-1
 509 104 l 1,2,-1
 493 123 l 1,3,4
 491 146 491 146 464 198 c 0,5,6
 447 230 447 230 430 247 c 1,7,8
 414 261 414 261 379 278 c 1,9,-1
 379 37 l 1,10,-1
 362 55 l 1,11,-1
 344 105 l 2,12,13
 338 122 338 122 321 147 c 0,14,15
 257 241 257 241 123 265 c 1,16,-1
 71 340 l 1,17,18
 118 377 118 377 155 400 c 0,19,20
 176 413 176 413 298 475 c 1,21,22
 288 489 288 489 268 502.5 c 128,-1,23
 248 516 248 516 233 516 c 1,24,25
 224 496 224 496 183.5 475 c 128,-1,26
 143 454 143 454 118 451 c 0,27,28
 110 450 110 450 98 450 c 0,29,30
 32 450 32 450 17 505 c 0,31,32
 10 530 10 530 23 551.5 c 128,-1,33
 36 573 36 573 62 576 c 0,34,35
 110 582 110 582 111 527 c 1,36,37
 179 534 179 534 215 596 c 1,38,39
 288 560 288 560 329 486 c 1,40,-1
 329 658 l 1,41,-1
 379 609 l 1,42,-1
 379 341 l 1,43,44
 434 306 434 306 459 262 c 1,45,-1
 459 655 l 1,46,-1
 504 618 l 1,47,-1
 507 558 l 1,48,-1
 608 558 l 1,49,-1
 659 508 l 1,0,-1
330 188 m 1,50,-1
 330 410 l 1,51,52
 250 370 250 370 182 319 c 1,53,54
 248 284 248 284 294 234 c 0,55,56
 310 217 310 217 330 188 c 1,50,-1
EndSplineSet
EndChar

StartChar: G
Encoding: 71 71 42
Width: 580
Flags: W
LayerCount: 2
Fore
SplineSet
495 -3 m 1,0,-1
 470 21 l 1,1,2
 463 50 463 50 440 97 c 1,3,4
 417 124 417 124 370 124 c 0,5,6
 346 124 346 124 286 115 c 0,7,8
 232 107 232 107 201 110 c 0,9,10
 103 118 103 118 65 191 c 0,11,12
 41 236 41 236 42 294 c 0,13,14
 43 363 43 363 65 407 c 1,15,16
 72 427 72 427 78 427 c 0,17,18
 81 427 81 427 84 423 c 2,19,-1
 104 402 l 1,20,21
 86 374 86 374 82 357 c 0,22,23
 80 349 80 349 77 307 c 0,24,25
 73 253 73 253 111 215 c 0,26,27
 127 199 127 199 164 190.5 c 128,-1,28
 201 182 201 182 226 185 c 0,29,30
 273 191 273 191 301 191 c 0,31,32
 372 191 372 191 412 164 c 1,33,34
 428 149 428 149 444 135 c 1,35,-1
 444 499 l 2,36,37
 444 510 444 510 429 510 c 0,38,39
 389 510 389 510 328 454 c 0,40,41
 289 418 289 418 280 371 c 1,42,43
 297 374 297 374 306 374 c 0,44,45
 326 374 326 374 337.5 357 c 128,-1,46
 349 340 349 340 349 319 c 0,47,48
 349 299 349 299 337 281.5 c 128,-1,49
 325 264 325 264 306 261 c 0,50,51
 293 259 293 259 282 259 c 0,52,53
 228 259 228 259 208 301 c 0,54,55
 194 330 194 330 198 353 c 0,56,57
 215 460 215 460 308 527 c 0,58,59
 361 565 361 565 411 563 c 0,60,61
 436 562 436 562 472 525 c 0,62,63
 495 501 495 501 495 485 c 2,64,-1
 495 -3 l 1,0,-1
EndSplineSet
EndChar

StartChar: H
Encoding: 72 72 43
Width: 635
Flags: W
LayerCount: 2
Fore
SplineSet
510 391 m 1,0,1
 503 389 503 389 486 380 c 1,2,-1
 486 -4 l 1,3,-1
 463 20 l 1,4,5
 457 48 457 48 435 95 c 1,6,7
 415 119 415 119 365 119 c 0,8,9
 342 119 342 119 295.5 113.5 c 128,-1,10
 249 108 249 108 226 108 c 0,11,12
 199 108 199 108 177 113 c 0,13,14
 43 143 43 143 43 280 c 0,15,16
 43 314 43 314 53 354 c 0,17,18
 59 380 59 380 85 417 c 1,19,-1
 103 394 l 1,20,21
 82 364 82 364 78 299 c 0,22,23
 75 249 75 249 111 214 c 0,24,25
 127 199 127 199 163.5 189.5 c 128,-1,26
 200 180 200 180 224 183 c 0,27,28
 263 188 263 188 294 188 c 0,29,30
 366 188 366 188 405 161 c 1,31,-1
 437 133 l 1,32,-1
 437 493 l 2,33,34
 437 504 437 504 422 504 c 0,35,36
 379 504 379 504 325 445 c 2,37,-1
 305 423 l 2,38,39
 286 402 286 402 275 365 c 1,40,41
 292 369 292 369 302 369 c 0,42,43
 322 369 322 369 334 352.5 c 128,-1,44
 346 336 346 336 346 315 c 0,45,46
 346 297 346 297 333.5 278.5 c 128,-1,47
 321 260 321 260 304.5 257 c 128,-1,48
 288 254 288 254 276 254 c 0,49,50
 212 254 212 254 197 324 c 0,51,52
 189 360 189 360 208 406 c 0,53,54
 244 494 244 494 347 544 c 1,55,56
 395 558 395 558 406 557 c 1,57,58
 423 552 423 552 460 526 c 0,59,60
 467 521 467 521 476.5 489 c 128,-1,61
 486 457 486 457 483 454 c 1,62,63
 539 461 539 461 539 502 c 0,64,65
 539 516 539 516 531 536 c 0,66,67
 516 574 516 574 421 604 c 0,68,69
 288 646 288 646 263 659 c 0,70,71
 185 700 185 700 191 773 c 1,72,73
 205 811 205 811 231 831 c 2,74,-1
 249 845 l 1,75,-1
 275 820 l 1,76,77
 260 810 260 810 244 801 c 1,78,79
 218 780 218 780 222 760 c 0,80,81
 229 727 229 727 339 695 c 0,82,83
 486 652 486 652 517 627 c 0,84,85
 560 592 560 592 571 538 c 0,86,87
 575 519 575 519 575 502 c 0,88,89
 575 432 575 432 510 391 c 1,0,1
EndSplineSet
EndChar

StartChar: I
Encoding: 73 73 44
Width: 540
Flags: W
LayerCount: 2
Fore
SplineSet
367 536 m 0,0,1
 413 537 413 537 447.5 513 c 128,-1,2
 482 489 482 489 489 445 c 0,3,4
 494 415 494 415 480 363 c 0,5,6
 469 321 469 321 452 303 c 1,7,8
 497 246 497 246 497 193 c 0,9,10
 497 128 497 128 450 91 c 0,11,12
 407 56 407 56 341 58 c 0,13,14
 291 59 291 59 249 87 c 0,15,16
 222 105 222 105 177 152 c 0,17,18
 96 237 96 237 25 492 c 1,19,-1
 59 474 l 1,20,21
 62 466 62 466 77 426 c 0,22,23
 101 360 101 360 160 258 c 0,24,25
 181 222 181 222 225 187 c 0,26,27
 290 136 290 136 345 136 c 0,28,29
 384 136 384 136 414 154 c 0,30,31
 449 174 449 174 455 210 c 0,32,33
 457 223 457 223 457 227 c 0,34,35
 456 252 456 252 427 275 c 1,36,37
 407 255 407 255 381 255 c 0,38,39
 343 255 343 255 327 285 c 0,40,41
 319 300 319 300 319 315 c 0,42,43
 319 340 319 340 336 359.5 c 128,-1,44
 353 379 353 379 378 379 c 0,45,46
 401 379 401 379 419 368 c 1,47,48
 455 387 455 387 455 423 c 0,49,50
 455 431 455 431 453 441 c 0,51,52
 444 486 444 486 394 486 c 0,53,54
 343 486 343 486 309 463 c 2,55,-1
 276 441 l 1,56,57
 258 427 258 427 249 412 c 1,58,59
 281 392 281 392 281 347 c 0,60,61
 281 308 281 308 229 308 c 0,62,63
 158 308 158 308 159 382 c 0,64,65
 159 408 159 408 169 426 c 0,66,67
 197 477 197 477 253 507 c 0,68,69
 305 535 305 535 367 536 c 0,0,1
EndSplineSet
EndChar

StartChar: J
Encoding: 74 74 45
Width: 635
Flags: W
LayerCount: 2
Fore
SplineSet
586 449 m 0,0,1
 581 388 581 388 487 295 c 1,2,3
 520 237 520 237 520 190 c 0,4,5
 519 120 519 120 476 92 c 0,6,7
 443 70 443 70 420 63.5 c 128,-1,8
 397 57 397 57 358 58 c 0,9,10
 308 59 308 59 264 89 c 0,11,12
 172 151 172 151 119 276 c 0,13,14
 75 380 75 380 46 488 c 1,15,-1
 77 472 l 2,16,17
 79 471 79 471 95 425 c 0,18,19
 115 366 115 366 149 310 c 2,20,-1
 179 260 l 2,21,22
 189 244 189 244 209 224 c 0,23,24
 293 142 293 142 378 142 c 0,25,26
 461 142 461 142 476 206 c 0,27,28
 480 223 480 223 477 237 c 0,29,30
 474 250 474 250 466 260 c 1,31,-1
 449 277 l 1,32,33
 430 254 430 254 401 254 c 0,34,35
 357 254 357 254 347 282 c 0,36,37
 340 301 340 301 340 316 c 0,38,39
 340 348 340 348 369 367 c 0,40,41
 381 375 381 375 399 375 c 0,42,43
 421 375 421 375 441 366 c 1,44,45
 479 386 479 386 479 423 c 0,46,47
 479 430 479 430 477 440 c 0,48,49
 469 482 469 482 420 482 c 0,50,51
 401 482 401 482 370 476 c 0,52,53
 334 469 334 469 325 461 c 1,54,55
 299 446 299 446 298 444 c 0,56,57
 283 431 283 431 269 408 c 1,58,59
 296 390 296 390 297 360 c 0,60,61
 299 305 299 305 248 305 c 0,62,63
 192 305 192 305 181 355 c 0,64,65
 178 369 178 369 178 386 c 0,66,67
 178 461 178 461 265 506 c 0,68,69
 318 533 318 533 384 533 c 0,70,71
 424 533 424 533 459.5 511 c 128,-1,72
 495 489 495 489 503 452 c 0,73,74
 509 422 509 422 493 385 c 0,75,76
 481 358 481 358 473 355 c 1,77,-1
 485 353 l 1,78,79
 501 367 501 367 529 414 c 0,80,81
 549 448 549 448 549 475 c 0,82,83
 549 547 549 547 413 577 c 0,84,85
 215 620 215 620 197 709 c 0,86,87
 195 719 195 719 195 732 c 0,88,89
 195 788 195 788 261 821 c 1,90,91
 287 798 287 798 289 792 c 0,92,93
 289 790 289 790 288 790 c 0,94,95
 276 787 276 787 260 770.5 c 128,-1,96
 244 754 244 754 248 743 c 1,97,98
 249 709 249 709 291 690 c 0,99,100
 297 688 297 688 392 656 c 0,101,102
 545 604 545 604 573 533 c 0,103,104
 589 492 589 492 586 449 c 0,0,1
EndSplineSet
EndChar

StartChar: K
Encoding: 75 75 46
Width: 571
Flags: W
LayerCount: 2
Fore
SplineSet
615 508 m 1,0,-1
 348 508 l 1,1,-1
 348 470 l 1,2,3
 352 472 352 472 358 472 c 0,4,5
 416 472 416 472 468 421 c 0,6,7
 517 374 517 374 530 314 c 0,8,9
 535 291 535 291 535 272 c 0,10,11
 535 234 535 234 514 206 c 0,12,13
 491 175 491 175 454 175 c 0,14,15
 429 175 429 175 409 193 c 128,-1,16
 389 211 389 211 389 236 c 0,17,18
 389 264 389 264 417 287 c 1,19,20
 433 292 433 292 446 292 c 0,21,22
 468 292 468 292 497 266 c 1,23,24
 498 268 498 268 498 275 c 0,25,26
 498 321 498 321 459 360 c 0,27,28
 411 408 411 408 347 402 c 1,29,-1
 347 3 l 1,30,-1
 329 21 l 1,31,-1
 314 65 l 2,32,33
 304 94 304 94 270 134 c 128,-1,34
 236 174 236 174 209 191 c 0,35,36
 150 227 150 227 87 234 c 1,37,-1
 18 319 l 1,38,39
 58 352 58 352 111 383 c 0,40,41
 209 441 209 441 300 469 c 1,42,-1
 300 508 l 1,43,-1
 -6 508 l 1,44,-1
 -57 558 l 1,45,-1
 566 558 l 1,46,-1
 615 508 l 1,0,-1
298 139 m 1,47,-1
 298 401 l 1,48,49
 227 374 227 374 183 346 c 0,50,51
 182 345 182 345 119 301 c 1,52,53
 240 249 240 249 298 139 c 1,47,-1
EndSplineSet
EndChar

StartChar: L
Encoding: 76 76 47
Width: 486
Flags: W
LayerCount: 2
Fore
SplineSet
541 508 m 1,0,-1
 414 508 l 1,1,-1
 414 3 l 1,2,-1
 401 17 l 1,3,4
 397 24 397 24 387 46 c 1,5,6
 319 215 319 215 136 235 c 1,7,-1
 53 338 l 1,8,9
 73 333 73 333 95 333 c 0,10,11
 174 333 174 333 235 375 c 0,12,13
 275 402 275 402 272 431 c 0,14,15
 270 459 270 459 247 478 c 1,16,17
 231 462 231 462 216 446 c 1,18,19
 189 425 189 425 136 408 c 0,20,21
 108 399 108 399 88 399 c 0,22,23
 62 399 62 399 40.5 415 c 128,-1,24
 19 431 19 431 16 456 c 256,25,26
 13 481 13 481 27.5 501.5 c 128,-1,27
 42 522 42 522 67 521 c 0,28,29
 113 520 113 520 115 476 c 1,30,31
 123 475 123 475 147 486 c 0,32,33
 158 491 158 491 222 554 c 1,34,-1
 273 510 l 2,35,36
 293 493 293 493 315 454 c 0,37,38
 324 438 324 438 324 415 c 0,39,40
 324 355 324 355 263 310 c 0,41,42
 237 291 237 291 214 285 c 1,43,44
 315 235 315 235 365 148 c 1,45,-1
 365 649 l 1,46,-1
 394 631 l 1,47,48
 393 623 393 623 396.5 600.5 c 128,-1,49
 400 578 400 578 403 572 c 0,50,51
 409 561 409 561 429 558 c 1,52,-1
 490 558 l 1,53,-1
 541 508 l 1,0,-1
EndSplineSet
EndChar

StartChar: M
Encoding: 77 77 48
Width: 485
Flags: W
LayerCount: 2
Fore
SplineSet
535 508 m 1,0,-1
 405 508 l 1,1,-1
 405 -14 l 1,2,-1
 348 46 l 1,3,-1
 352 316 l 2,4,5
 353 352 353 352 327.5 399.5 c 128,-1,6
 302 447 302 447 272 469 c 0,7,8
 239 493 239 493 208 493 c 0,9,10
 126 493 126 493 94 418 c 1,11,12
 114 427 114 427 148 427 c 0,13,14
 237 427 237 427 247 347 c 0,15,16
 255 289 255 289 155 182 c 1,17,-1
 97 247 l 1,18,19
 123 270 123 270 157 307 c 0,20,21
 201 355 201 355 201 369 c 0,22,23
 200 391 200 391 174 391 c 0,24,25
 164 391 164 391 126.5 370 c 128,-1,26
 89 349 89 349 76 349 c 0,27,28
 67 349 67 349 59 354 c 0,29,30
 20 379 20 379 20 420 c 0,31,32
 20 450 20 450 40 483.5 c 128,-1,33
 60 517 60 517 87 533 c 0,34,35
 119 552 119 552 165 552 c 0,36,37
 315 552 315 552 351 435 c 2,38,-1
 373 363 l 1,39,40
 371 408 371 408 363 514 c 0,41,42
 359 568 359 568 359 653 c 1,43,-1
 389 624 l 1,44,45
 380 606 380 606 396 571 c 0,46,47
 400 562 400 562 419 558 c 1,48,49
 452 559 452 559 485 558 c 1,50,-1
 535 508 l 1,0,-1
EndSplineSet
EndChar

StartChar: N
Encoding: 78 78 49
Width: 471
Flags: W
LayerCount: 2
Fore
SplineSet
515 508 m 1,0,-1
 396 508 l 1,1,-1
 396 -2 l 1,2,-1
 372 22 l 1,3,-1
 351 74 l 2,4,5
 332 120 332 120 285.5 155.5 c 128,-1,6
 239 191 239 191 189 197 c 0,7,8
 148 202 148 202 135 201 c 1,9,-1
 69 269 l 1,10,11
 102 305 102 305 172 369 c 1,12,13
 154 360 154 360 135 360 c 0,14,15
 110 360 110 360 78 378 c 0,16,17
 43 397 43 397 40 420 c 1,18,19
 33 439 33 439 33 454 c 0,20,21
 33 479 33 479 48 508 c 1,22,-1
 -3 508 l 1,23,-1
 -52 558 l 1,24,-1
 466 558 l 1,25,-1
 515 508 l 1,0,-1
345 132 m 1,26,-1
 345 508 l 1,27,-1
 179 508 l 1,28,29
 140 513 140 513 120 467 c 0,30,31
 113 450 113 450 116 435 c 0,32,33
 125 395 125 395 170 394 c 0,34,35
 219 393 219 393 247 434 c 1,36,-1
 301 381 l 1,37,38
 243 345 243 345 178 266 c 1,39,40
 201 257 201 257 243 237 c 1,41,42
 305 200 305 200 345 132 c 1,26,-1
EndSplineSet
EndChar

StartChar: O
Encoding: 79 79 50
Width: 457
Flags: W
LayerCount: 2
Fore
SplineSet
440 162 m 0,0,1
 435 93 435 93 394.5 54.5 c 128,-1,2
 354 16 354 16 285 16 c 256,3,4
 216 16 216 16 157.5 60 c 128,-1,5
 99 104 99 104 74 170 c 1,6,7
 62 186 62 186 35 275 c 0,8,9
 24 310 24 310 17 366 c 2,10,-1
 8 434 l 1,11,-1
 34 414 l 1,12,13
 50 337 50 337 60 311 c 0,14,15
 65 297 65 297 85 253 c 0,16,17
 155 97 155 97 275 97 c 0,18,19
 324 97 324 97 358.5 121.5 c 128,-1,20
 393 146 393 146 398 193 c 0,21,22
 401 224 401 224 369 258 c 1,23,24
 354 236 354 236 313 207 c 0,25,26
 269 175 269 175 247 175 c 0,27,28
 226 175 226 175 204 193 c 0,29,30
 162 227 162 227 158 260 c 1,31,-1
 158 381 l 1,32,33
 120 411 120 411 51 476 c 0,34,35
 34 492 34 492 21 515 c 1,36,-1
 95 535 l 1,37,-1
 136 458 l 2,38,39
 137 456 137 456 160 433 c 2,40,-1
 161 432 l 1,41,42
 175 467 175 467 190.5 485 c 128,-1,43
 206 503 206 503 239 521 c 0,44,45
 258 531 258 531 285 531 c 0,46,47
 356 531 356 531 370 485 c 0,48,49
 376 465 376 465 376 445 c 0,50,51
 376 401 376 401 339 378 c 0,52,53
 308 358 308 358 262 358 c 0,54,55
 220 358 220 358 204 371 c 1,56,-1
 204 281 l 2,57,58
 204 245 204 245 235 246 c 0,59,60
 253 247 253 247 272 262 c 1,61,-1
 301 291 l 2,62,63
 324 314 324 314 335 339 c 1,64,65
 385 320 385 320 414.5 268.5 c 128,-1,66
 444 217 444 217 440 162 c 0,0,1
315 481 m 0,67,68
 303 481 303 481 277 472 c 0,69,70
 227 455 227 455 212 408 c 1,71,72
 221 395 221 395 266 404 c 0,73,74
 290 409 290 409 311 423 c 0,75,76
 337 440 337 440 337 461 c 0,77,78
 337 481 337 481 315 481 c 0,67,68
EndSplineSet
EndChar

StartChar: P
Encoding: 80 80 51
Width: 408
Flags: W
LayerCount: 2
Fore
SplineSet
456 508 m 1,0,-1
 119 508 l 1,1,2
 118 502 118 502 123 483.5 c 128,-1,3
 128 465 128 465 133 466 c 1,4,5
 145 448 145 448 181 422 c 0,6,7
 202 407 202 407 247 393 c 0,8,9
 305 375 305 375 320 368 c 0,10,11
 364 347 364 347 364 300 c 0,12,13
 364 240 364 240 326 183 c 0,14,15
 236 48 236 48 154 48 c 0,16,17
 127 48 127 48 99 81 c 128,-1,18
 71 114 71 114 71 142 c 2,19,-1
 71 508 l 1,20,-1
 -1 508 l 1,21,-1
 -50 558 l 1,22,-1
 405 558 l 1,23,-1
 456 508 l 1,0,-1
285 302 m 1,24,25
 263 309 263 309 224 327 c 1,26,27
 150 373 150 373 120 426 c 1,28,-1
 120 143 l 2,29,30
 120 115 120 115 141 115 c 0,31,32
 180 115 180 115 253 201 c 0,33,34
 287 241 287 241 287 281 c 0,35,36
 287 292 287 292 285 302 c 1,24,25
EndSplineSet
EndChar

StartChar: Q
Encoding: 81 81 52
Width: 452
Flags: W
LayerCount: 2
Fore
SplineSet
487 -76 m 1,0,1
 386 29 386 29 273 66 c 0,2,3
 220 83 220 83 195 90 c 0,4,5
 156 100 156 100 115 104 c 1,6,-1
 66 196 l 1,7,8
 105 184 105 184 139 183 c 0,9,10
 145 183 145 183 213 187 c 0,11,12
 245 189 245 189 286 215 c 0,13,14
 324 240 324 240 343 268 c 0,15,16
 366 303 366 303 366 332 c 0,17,18
 367 384 367 384 298 384 c 0,19,20
 286 384 286 384 286 380 c 1,21,22
 290 369 290 369 290 358 c 0,23,24
 290 304 290 304 199 253 c 0,25,26
 163 233 163 233 135 233 c 256,27,28
 107 233 107 233 83 251.5 c 128,-1,29
 59 270 59 270 59 297 c 2,30,-1
 59 508 l 1,31,-1
 -3 508 l 1,32,-1
 -49 558 l 1,33,-1
 452 558 l 1,34,-1
 501 508 l 1,35,-1
 105 508 l 1,36,37
 120 478 120 478 123 474 c 0,38,39
 163 434 163 434 222 434 c 0,40,41
 233 434 233 434 254 437.5 c 128,-1,42
 275 441 275 441 286 441 c 0,43,44
 340 441 340 441 378 397.5 c 128,-1,45
 416 354 416 354 416 299 c 0,46,47
 416 218 416 218 316 158 c 1,48,49
 296 149 296 149 262 132 c 1,50,-1
 346 87 l 2,51,52
 395 61 395 61 481 -37 c 1,53,-1
 487 -76 l 1,0,1
220 379 m 1,54,55
 202 383 202 383 155 406 c 1,56,57
 125 426 125 426 108 450 c 1,58,-1
 108 306 l 2,59,60
 108 276 108 276 130 280 c 0,61,62
 150 284 150 284 175 303 c 0,63,64
 221 338 221 338 220 379 c 1,54,55
EndSplineSet
EndChar

StartChar: R
Encoding: 82 82 53
Width: 592
Flags: W
LayerCount: 2
Fore
SplineSet
642 508 m 1,0,-1
 331 508 l 1,1,2
 320 504 320 504 300 491 c 1,3,4
 292 484 292 484 292 476 c 0,5,6
 292 453 292 453 342 437 c 0,7,8
 384 424 384 424 410 426 c 0,9,10
 434 428 434 428 500 450 c 1,11,12
 532 418 532 418 575 373 c 1,13,14
 554 353 554 353 530 310 c 0,15,16
 498 253 498 253 497 208 c 1,17,18
 492 175 492 175 492 148 c 0,19,20
 492 91 492 91 530 5 c 1,21,22
 529 4 529 4 527 4 c 0,23,24
 521 4 521 4 501 9.5 c 128,-1,25
 481 15 481 15 480 18 c 0,26,27
 478 29 478 29 458 111 c 0,28,29
 441 181 441 181 441 220 c 0,30,31
 441 286 441 286 472 367 c 1,32,33
 425 367 425 367 370 381 c 0,34,35
 303 398 303 398 281 426 c 0,36,37
 278 431 278 431 252 464 c 0,38,39
 250 465 250 465 248 465 c 0,40,41
 227 465 227 465 198 419 c 128,-1,42
 169 373 169 373 169 349 c 0,43,44
 169 315 169 315 206 315 c 0,45,46
 225 315 225 315 290 348 c 0,47,48
 310 358 310 358 314 359 c 0,49,50
 318 359 318 359 321 356 c 1,51,52
 327 358 327 358 351 328 c 0,53,54
 384 287 384 287 392 249 c 0,55,56
 399 217 399 217 390 186 c 0,57,58
 372 124 372 124 317 97 c 0,59,60
 290 84 290 84 259 84 c 0,61,62
 173 84 173 84 108 168 c 0,63,64
 80 204 80 204 56 274 c 0,65,66
 37 329 37 329 37 467 c 1,67,68
 61 455 61 455 65 451 c 1,69,70
 60 365 60 365 96 283 c 0,71,72
 123 221 123 221 189 181 c 0,73,74
 216 165 216 165 247 167 c 0,75,76
 287 170 287 170 318 184 c 0,77,78
 360 203 360 203 360 236 c 0,79,80
 360 249 360 249 353 260 c 1,81,82
 348 277 348 277 333 277 c 0,83,84
 328 277 328 277 321 274 c 0,85,86
 273 253 273 253 242 253 c 0,87,88
 216 253 216 253 192 265 c 1,89,90
 141 299 141 299 130 352 c 0,91,92
 122 390 122 390 134 422 c 0,93,94
 142 443 142 443 171 479 c 1,95,96
 180 488 180 488 198 508 c 1,97,-1
 0 508 l 1,98,-1
 -50 558 l 1,99,-1
 593 558 l 1,100,-1
 642 508 l 1,0,-1
EndSplineSet
EndChar

StartChar: S
Encoding: 83 83 54
Width: 568
Flags: W
LayerCount: 2
Fore
SplineSet
613 508 m 1,0,-1
 490 508 l 1,1,-1
 490 69 l 1,2,-1
 466 93 l 1,3,-1
 451 137 l 2,4,5
 425 212 425 212 355 245 c 1,6,-1
 355 10 l 1,7,-1
 333 33 l 1,8,-1
 314 78 l 2,9,10
 305 99 305 99 279 134 c 0,11,12
 204 234 204 234 92 244 c 1,13,-1
 25 328 l 1,14,15
 154 423 154 423 307 483 c 1,16,-1
 307 508 l 1,17,-1
 -1 508 l 1,18,-1
 -50 558 l 1,19,-1
 355 558 l 1,20,-1
 355 302 l 1,21,22
 398 275 398 275 438 216 c 1,23,-1
 438 651 l 1,24,-1
 462 631 l 1,25,-1
 467 599 l 1,26,27
 467 586 467 586 476 568 c 1,28,29
 482 562 482 562 498 559 c 0,30,31
 508 557 508 557 563 558 c 1,32,-1
 613 508 l 1,0,-1
307 142 m 1,33,-1
 307 405 l 1,34,35
 226 376 226 376 132 309 c 1,36,37
 248 256 248 256 307 142 c 1,33,-1
EndSplineSet
EndChar

StartChar: T
Encoding: 84 84 55
Width: 772
Flags: W
LayerCount: 2
Fore
SplineSet
675 86 m 0,0,1
 612 86 612 86 532 164 c 0,2,3
 513 182 513 182 487 207 c 1,4,-1
 487 -3 l 1,5,-1
 463 22 l 1,6,7
 456 50 456 50 433 95 c 1,8,9
 409 121 409 121 362 121 c 0,10,11
 339 121 339 121 280 113 c 0,12,13
 229 106 229 106 198 109 c 0,14,15
 101 118 101 118 64 188 c 0,16,17
 40 233 40 233 41 289 c 0,18,19
 41 323 41 323 50 354 c 0,20,21
 68 420 68 420 79 420 c 0,22,23
 81 420 81 420 83 417 c 2,24,-1
 103 397 l 1,25,26
 82 366 82 366 80 352 c 0,27,28
 76 325 76 325 76 309 c 0,29,30
 74 213 74 213 179 192 c 0,31,32
 223 183 223 183 272 186 c 0,33,34
 355 191 355 191 402 165 c 1,35,-1
 438 137 l 1,36,-1
 438 465 l 2,37,38
 438 499 438 499 409 499 c 0,39,40
 381 499 381 499 325 446 c 0,41,42
 287 410 287 410 276 366 c 1,43,44
 297 369 297 369 303 369 c 0,45,46
 323 369 323 369 334 352 c 128,-1,47
 345 335 345 335 345 314 c 0,48,49
 345 294 345 294 332.5 276.5 c 128,-1,50
 320 259 320 259 301 257 c 0,51,52
 291 256 291 256 280 256 c 0,53,54
 238 256 238 256 215 282 c 128,-1,55
 192 308 192 308 195 349 c 0,56,57
 201 442 201 442 291 509 c 0,58,59
 358 559 358 559 405 555 c 1,60,61
 428 545 428 545 466 519 c 1,62,63
 487 495 487 495 487 478 c 2,64,-1
 487 366 l 1,65,66
 492 392 492 392 535 440 c 0,67,68
 592 504 592 504 643 504 c 0,69,70
 679 504 679 504 710 472 c 1,71,72
 749 439 749 439 749 391 c 256,73,74
 749 343 749 343 708 299 c 1,75,76
 755 260 755 260 755 194 c 0,77,78
 755 150 755 150 737 121 c 0,79,80
 716 86 716 86 675 86 c 0,0,1
705 183 m 0,81,82
 717 198 717 198 717 211 c 0,83,84
 717 225 717 225 686 256 c 1,85,-1
 664 244 l 2,86,87
 646 234 646 234 632 235 c 0,88,89
 608 236 608 236 590.5 250.5 c 128,-1,90
 573 265 573 265 572 288 c 256,91,92
 571 311 571 311 590 327 c 128,-1,93
 609 343 609 343 633 343 c 0,94,95
 649 343 649 343 665 337 c 2,96,-1
 684 330 l 1,97,98
 695 348 695 348 699 356 c 0,99,100
 706 371 706 371 707 384 c 0,101,102
 708 405 708 405 690 419.5 c 128,-1,103
 672 434 672 434 650 434 c 0,104,105
 616 434 616 434 576 406 c 0,106,107
 541 382 541 382 517 350 c 0,108,109
 489 313 489 313 489 286 c 0,110,111
 489 252 489 252 521 217 c 0,112,113
 548 187 548 187 583 169 c 0,114,115
 607 157 607 157 639 157 c 0,116,117
 685 157 685 157 705 183 c 0,81,82
EndSplineSet
EndChar

StartChar: U
Encoding: 85 85 56
Width: 424
Flags: W
LayerCount: 2
Fore
SplineSet
468 508 m 1,0,-1
 105 508 l 1,1,-1
 105 173 l 2,2,3
 105 137 105 137 144 137 c 0,4,5
 195 137 195 137 263 224 c 0,6,7
 286 253 286 253 290 287 c 1,8,9
 283 285 283 285 275 285 c 0,10,11
 254 285 254 285 235 297 c 128,-1,12
 216 309 216 309 212 329 c 0,13,14
 209 344 209 344 213 358 c 0,15,16
 227 409 227 409 279 409 c 0,17,18
 323 409 323 409 349 365 c 0,19,20
 364 339 364 339 363 307 c 0,21,22
 359 220 359 220 311 170 c 0,23,24
 217 73 217 73 166 73 c 0,25,26
 133 73 133 73 113 86 c 0,27,28
 76 110 76 110 61 162 c 0,29,30
 57 176 57 176 57 233 c 2,31,-1
 57 508 l 1,32,-1
 -22 508 l 1,33,-1
 -63 558 l 1,34,-1
 313 558 l 1,35,36
 313 574 313 574 314 586 c 1,37,38
 310 610 310 610 288 621 c 128,-1,39
 266 632 266 632 241 629 c 1,40,41
 205 629 205 629 142 624 c 0,42,43
 117 622 117 622 107 622 c 0,44,45
 49 622 49 622 5 649 c 0,46,47
 -47 680 -47 680 -47 734 c 0,48,49
 -47 760 -47 760 -31 780 c 1,50,51
 -30 784 -30 784 -21 788 c 128,-1,52
 -12 792 -12 792 -10 790 c 1,53,54
 -8 783 -8 783 -8 772 c 1,55,56
 -20 760 -20 760 -20 746 c 0,57,58
 -20 709 -20 709 27 695 c 0,59,60
 48 689 48 689 61 690 c 2,61,-1
 115 694 l 2,62,63
 102 694 102 694 160 698 c 0,64,65
 193 700 193 700 218 699 c 0,66,67
 270 696 270 696 299 679 c 0,68,69
 369 637 369 637 361 561 c 1,70,-1
 418 561 l 1,71,-1
 468 508 l 1,0,-1
EndSplineSet
EndChar

StartChar: V
Encoding: 86 86 57
Width: 405
Flags: W
LayerCount: 2
Fore
SplineSet
458 508 m 1,0,-1
 246 508 l 1,1,2
 290 461 290 461 325 372 c 0,3,4
 354 298 354 298 350 239 c 0,5,6
 345 163 345 163 302 106 c 0,7,8
 253 42 253 42 181 42 c 0,9,10
 106 42 106 42 54 106 c 0,11,12
 25 141 25 141 25 201 c 0,13,14
 25 226 25 226 32 250 c 1,15,16
 84 266 84 266 120 301 c 0,17,18
 192 371 192 371 192 436 c 0,19,20
 192 464 192 464 181 507 c 1,21,-1
 2 507 l 1,22,-1
 -50 558 l 1,23,-1
 150 558 l 2,24,25
 154 558 154 558 154 562 c 1,26,27
 123 615 123 615 83 699 c 1,28,29
 69 743 69 743 71 766 c 0,30,31
 76 823 76 823 124 863 c 1,32,-1
 183 812 l 1,33,34
 146 797 146 797 133 784 c 0,35,36
 113 764 113 764 114 729 c 0,37,38
 116 683 116 683 189 587 c 0,39,40
 202 570 202 570 214 558 c 1,41,-1
 405 558 l 1,42,-1
 458 508 l 1,0,-1
243 445 m 1,43,44
 246 427 246 427 246 409 c 0,45,46
 246 326 246 326 190 253 c 0,47,48
 170 227 170 227 96 188 c 0,49,50
 86 183 86 183 86 161 c 0,51,52
 86 106 86 106 121 94 c 0,53,54
 147 85 147 85 160 85 c 0,55,56
 190 85 190 85 241 122 c 0,57,58
 304 168 304 168 304 277 c 0,59,60
 304 370 304 370 243 445 c 1,43,44
EndSplineSet
EndChar

StartChar: W
Encoding: 87 87 58
Width: 523
Flags: W
LayerCount: 2
Fore
SplineSet
566 508 m 1,0,-1
 247 508 l 1,1,-1
 247 314 l 1,2,3
 273 314 273 314 308 342 c 0,4,5
 340 367 340 367 355 393 c 0,6,7
 364 408 364 408 377 420 c 1,8,9
 398 411 398 411 419 384 c 0,10,11
 467 320 467 320 467 252 c 0,12,13
 467 127 467 127 381 82 c 0,14,15
 333 57 333 57 268 62 c 0,16,17
 197 67 197 67 149 124 c 0,18,19
 127 150 127 150 91 218 c 1,20,21
 51 313 51 313 41 403 c 0,22,23
 40 415 40 415 34 478 c 1,24,-1
 63 462 l 1,25,26
 69 390 69 390 100 309 c 0,27,28
 136 215 136 215 184 181 c 1,29,30
 201 165 201 165 241 154 c 0,31,32
 263 148 263 148 283 148 c 0,33,34
 367 148 367 148 412 214 c 0,35,36
 432 244 432 244 432 275 c 0,37,38
 432 308 432 308 404 338 c 1,39,40
 399 321 399 321 365 290 c 0,41,42
 308 238 308 238 267 238 c 0,43,44
 218 238 218 238 198 303 c 1,45,46
 197 314 197 314 198 508 c 1,47,-1
 1 508 l 1,48,-1
 -49 558 l 1,49,-1
 516 558 l 1,50,-1
 566 508 l 1,0,-1
EndSplineSet
EndChar

StartChar: X
Encoding: 88 88 59
Width: 415
Flags: W
LayerCount: 2
Fore
SplineSet
463 508 m 1,0,-1
 122 508 l 1,1,-1
 122 172 l 2,2,3
 122 138 122 138 151 138 c 0,4,5
 193 138 193 138 264 226 c 0,6,7
 283 249 283 249 286 289 c 1,8,9
 279 287 279 287 271 287 c 0,10,11
 249 287 249 287 232 299 c 0,12,13
 212 312 212 312 208 332 c 0,14,15
 205 344 205 344 209 360 c 0,16,17
 220 412 220 412 270 412 c 0,18,19
 319 412 319 412 346 362 c 0,20,21
 358 340 358 340 360 305 c 0,22,23
 363 263 363 263 348 229 c 0,24,25
 337 205 337 205 305 161 c 0,26,27
 262 103 262 103 187 76 c 1,28,29
 176 74 176 74 167 74 c 0,30,31
 146 74 146 74 130 85 c 0,32,33
 85 117 85 117 76 161 c 0,34,35
 72 180 72 180 74 508 c 1,36,-1
 0 508 l 1,37,-1
 -49 558 l 1,38,-1
 412 558 l 1,39,-1
 463 508 l 1,0,-1
EndSplineSet
EndChar

StartChar: Y
Encoding: 89 89 60
Width: 450
Flags: W
LayerCount: 2
Fore
SplineSet
501 508 m 1,0,-1
 370 508 l 1,1,-1
 370 1 l 1,2,-1
 315 57 l 1,3,-1
 316 334 l 2,4,5
 316 398 316 398 270 447 c 0,6,7
 236 483 236 483 196 488 c 0,8,9
 147 494 147 494 115 454 c 0,10,11
 93 427 93 427 91 403 c 0,12,13
 88 375 88 375 100 345 c 1,14,15
 113 308 113 308 138 308 c 0,16,17
 144 308 144 308 142 313 c 0,18,19
 138 328 138 328 138 340 c 0,20,21
 138 379 138 379 185 379 c 0,22,23
 223 379 223 379 240 340 c 0,24,25
 245 328 245 328 245 317 c 0,26,27
 245 284 245 284 213.5 265 c 128,-1,28
 182 246 182 246 148 249 c 0,29,30
 87 255 87 255 52.5 300 c 128,-1,31
 18 345 18 345 23 407 c 0,32,33
 27 464 27 464 57 503 c 0,34,35
 89 546 89 546 142 556 c 0,36,37
 163 560 163 560 179 560 c 0,38,39
 199 560 199 560 213 554 c 1,40,41
 238 540 238 540 245 535 c 0,42,43
 280 510 280 510 305 458 c 2,44,-1
 338 390 l 1,45,46
 330 436 330 436 322 521 c 0,47,48
 318 564 318 564 321 655 c 1,49,-1
 339 635 l 2,50,51
 348 625 348 625 350 616 c 0,52,53
 357 583 357 583 373 572 c 2,54,-1
 393 558 l 1,55,-1
 451 558 l 1,56,-1
 501 508 l 1,0,-1
EndSplineSet
EndChar

StartChar: Z
Encoding: 90 90 61
Width: 570
Flags: W
LayerCount: 2
Fore
SplineSet
623 508 m 1,0,-1
 -3 508 l 1,1,-1
 -53 558 l 1,2,-1
 570 558 l 1,3,-1
 623 508 l 1,0,-1
505 317 m 0,4,5
 515 286 515 286 515 254 c 0,6,7
 515 161 515 161 435 114 c 0,8,9
 376 80 376 80 322 81 c 0,10,11
 294 82 294 82 261 93 c 0,12,13
 225 105 225 105 206 122 c 0,14,15
 184 142 184 142 154 182 c 0,16,17
 112 238 112 238 96 278 c 0,18,19
 47 400 47 400 24 479 c 1,20,-1
 53 467 l 1,21,22
 79 404 79 404 99 362 c 0,23,24
 128 302 128 302 155 263 c 0,25,26
 225 164 225 164 331 164 c 0,27,28
 380 164 380 164 432 208 c 0,29,30
 472 242 472 242 472 289 c 0,31,32
 472 327 472 327 449 360 c 0,33,34
 424 397 424 397 387 397 c 0,35,36
 375 397 375 397 354 392 c 1,37,38
 373 369 373 369 373 335 c 0,39,40
 372 264 372 264 295 264 c 0,41,42
 228 264 228 264 213 334 c 0,43,44
 210 348 210 348 210 359 c 0,45,46
 210 405 210 405 247 435 c 1,47,48
 281 464 281 464 328 464 c 0,49,50
 346 464 346 464 373 458 c 0,51,52
 467 437 467 437 505 317 c 0,4,5
EndSplineSet
EndChar

StartChar: bracketleft
Encoding: 91 91 62
Width: 183
Flags: W
LayerCount: 2
Fore
SplineSet
134 680 m 1,0,-1
 65 680 l 1,1,-1
 65 14 l 1,2,-1
 121 14 l 1,3,-1
 121 -36 l 1,4,-1
 13 -36 l 1,5,-1
 13 725 l 1,6,-1
 134 725 l 1,7,-1
 134 680 l 1,0,-1
EndSplineSet
EndChar

StartChar: backslash
Encoding: 92 92 63
Width: 366
Flags: W
LayerCount: 2
Fore
SplineSet
325 80 m 1,0,1
 329 57 329 57 329 54 c 0,2,3
 328 20 328 20 290 20 c 0,4,5
 262 20 262 20 243 57 c 0,6,7
 229 84 229 84 229 101 c 0,8,9
 229 106 229 106 231 110 c 1,10,-1
 231 476 l 1,11,-1
 235 487 l 2,12,13
 231 474 231 474 213 474 c 0,14,15
 188 474 188 474 180 493 c 1,16,17
 176 507 176 507 176 518 c 0,18,19
 176 553 176 553 214 553 c 0,20,21
 238 553 238 553 261 517 c 0,22,23
 277 492 277 492 277 473 c 0,24,25
 277 467 277 467 275 462 c 1,26,-1
 275 82 l 1,27,-1
 271 86 l 1,28,29
 274 98 274 98 293 98 c 0,30,31
 318 98 318 98 325 80 c 1,0,1
209 68 m 1,32,33
 212 55 212 55 212 46 c 0,34,35
 212 9 212 9 169 9 c 0,36,37
 141 9 141 9 125 43 c 0,38,39
 112 70 112 70 112 101 c 2,40,-1
 112 484 l 1,41,-1
 115 483 l 1,42,43
 110 472 110 472 93 472 c 0,44,45
 55 472 55 472 55 515 c 0,46,47
 55 549 55 549 95 549 c 0,48,49
 119 549 119 549 142 514 c 1,50,51
 158 487 158 487 158 469 c 0,52,53
 158 463 158 463 156 457 c 1,54,-1
 154 77 l 1,55,56
 158 88 158 88 175 88 c 0,57,58
 200 88 200 88 209 68 c 1,32,33
EndSplineSet
EndChar

StartChar: bracketright
Encoding: 93 93 64
Width: 203
Flags: W
LayerCount: 2
Fore
SplineSet
168 703 m 1,0,-1
 168 -52 l 1,1,-1
 59 -52 l 1,2,-1
 59 -1 l 1,3,-1
 110 -1 l 1,4,-1
 110 658 l 1,5,-1
 44 658 l 1,6,-1
 44 703 l 1,7,-1
 168 703 l 1,0,-1
EndSplineSet
EndChar

StartChar: asciicircum
Encoding: 94 94 65
Width: 1
Flags: W
LayerCount: 2
Fore
SplineSet
-85 34 m 1,0,-1
 -118 49 l 1,1,2
 -164 164 -164 164 -270 164 c 1,3,-1
 -304 255 l 1,4,5
 -297 261 -297 261 -127 369 c 1,6,7
 -113 384 -113 384 -85 404 c 1,8,-1
 -85 34 l 1,0,-1
-129 128 m 1,9,-1
 -129 295 l 1,10,11
 -162 268 -162 268 -204 243 c 0,12,13
 -226 230 -226 230 -234 223 c 1,14,15
 -198 215 -198 215 -167 178 c 0,16,17
 -166 176 -166 176 -129 128 c 1,9,-1
EndSplineSet
EndChar

StartChar: underscore
Encoding: 95 95 66
Width: 477
Flags: W
LayerCount: 2
Fore
SplineSet
523 508 m 1,0,-1
 406 508 l 1,1,-1
 406 -4 l 1,2,-1
 375 39 l 1,3,-1
 346 83 l 2,4,5
 301 152 301 152 204 191 c 0,6,7
 164 207 164 207 113 205 c 1,8,-1
 34 309 l 1,9,-1
 63 308 l 1,10,11
 92 315 92 315 121 321 c 1,12,13
 146 328 146 328 179 346 c 0,14,15
 261 391 261 391 261 443 c 0,16,17
 261 470 261 470 243 488 c 128,-1,18
 225 506 225 506 198 506 c 0,19,20
 187 506 187 506 175 501 c 0,21,22
 121 479 121 479 113 461 c 1,23,24
 139 432 139 432 139 410 c 256,25,26
 139 388 139 388 119.5 373 c 128,-1,27
 100 358 100 358 77 358 c 0,28,29
 25 358 25 358 13 412 c 0,30,31
 8 435 8 435 19 462 c 0,32,33
 38 509 38 509 87 535 c 0,34,35
 133 560 133 560 186 558 c 256,36,37
 239 556 239 556 274.5 515.5 c 128,-1,38
 310 475 310 475 310 422 c 0,39,40
 310 332 310 332 192 259 c 1,41,-1
 250 224 l 2,42,43
 275 209 275 209 306 179 c 0,44,45
 344 142 344 142 357 117 c 1,46,-1
 357 651 l 1,47,-1
 384 619 l 1,48,-1
 386 610 l 1,49,50
 389 570 389 570 406 561 c 1,51,52
 435 562 435 562 472 561 c 1,53,-1
 523 508 l 1,0,-1
EndSplineSet
EndChar

StartChar: grave
Encoding: 96 96 67
Width: 456
Flags: W
LayerCount: 2
Fore
SplineSet
511 508 m 1,0,-1
 105 508 l 1,1,-1
 105 297 l 1,2,3
 110 299 110 299 140 326 c 0,4,5
 183 364 183 364 193 372 c 0,6,7
 244 414 244 414 329 447 c 1,8,-1
 416 382 l 1,9,10
 349 252 349 252 349 146 c 0,11,12
 349 123 349 123 352 101 c 1,13,14
 351 90 351 90 367 -6 c 1,15,-1
 333 11 l 1,16,-1
 320 71 l 2,17,18
 304 145 304 145 304 216 c 0,19,20
 304 284 304 284 319 347 c 1,21,22
 260 326 260 326 221 292 c 0,23,24
 146 225 146 225 118 153 c 1,25,-1
 51 222 l 1,26,-1
 51 508 l 1,27,-1
 0 508 l 1,28,-1
 -51 558 l 1,29,-1
 460 558 l 1,30,-1
 511 508 l 1,0,-1
EndSplineSet
EndChar

StartChar: a
Encoding: 97 97 68
Width: 449
Flags: W
LayerCount: 2
Fore
SplineSet
501 508 m 1,0,-1
 376 508 l 1,1,-1
 376 -18 l 1,2,-1
 363 6 l 1,3,-1
 342 57 l 2,4,5
 332 81 332 81 298 118 c 0,6,7
 267 152 267 152 242 168 c 0,8,9
 198 196 198 196 176 205 c 0,10,11
 146 217 146 217 98 222 c 1,12,-1
 39 301 l 1,13,14
 99 346 99 346 149 381 c 0,15,16
 169 395 169 395 165 395 c 0,17,18
 96 395 96 395 73 441 c 0,19,20
 61 465 61 465 61 484 c 0,21,22
 61 530 61 530 98 551 c 0,23,24
 125 566 125 566 152 564 c 0,25,26
 204 559 204 559 205 524 c 0,27,28
 205 505 205 505 195 496 c 1,29,30
 185 482 185 482 158 485 c 0,31,32
 146 486 146 486 128 497 c 1,33,34
 121 492 121 492 120 469 c 0,35,36
 120 447 120 447 141 432 c 128,-1,37
 162 417 162 417 185 417 c 0,38,39
 193 417 193 417 200 419 c 1,40,41
 202 421 202 421 214 426 c 1,42,43
 261 453 261 453 326 492 c 1,44,-1
 326 558 l 1,45,-1
 451 558 l 1,46,-1
 501 508 l 1,0,-1
326 129 m 1,47,-1
 326 401 l 1,48,49
 239 367 239 367 147 286 c 1,50,51
 265 231 265 231 326 129 c 1,47,-1
EndSplineSet
EndChar

StartChar: b
Encoding: 98 98 69
Width: 448
Flags: W
LayerCount: 2
Fore
SplineSet
506 508 m 1,0,-1
 379 508 l 1,1,-1
 379 -14 l 1,2,-1
 360 11 l 1,3,4
 365 43 365 43 345 118 c 0,5,6
 311 246 311 246 251 299 c 0,7,8
 208 337 208 337 166 335 c 0,9,10
 158 335 158 335 158 332 c 1,11,-1
 174 309 l 2,12,13
 184 294 184 294 188 277 c 0,14,15
 196 240 196 240 177.5 217.5 c 128,-1,16
 159 195 159 195 122 195 c 0,17,18
 41 195 41 195 29 267 c 0,19,20
 27 279 27 279 27 290 c 0,21,22
 27 339 27 339 62.5 371 c 128,-1,23
 98 403 98 403 148 403 c 0,24,25
 238 403 238 403 304 288 c 0,26,27
 329 244 329 244 329 241 c 2,28,-1
 329 508 l 1,29,-1
 -12 508 l 1,30,-1
 -62 558 l 1,31,-1
 454 558 l 1,32,-1
 506 508 l 1,0,-1
EndSplineSet
EndChar

StartChar: c
Encoding: 99 99 70
Width: 535
Flags: W
LayerCount: 2
Fore
SplineSet
588 508 m 1,0,-1
 462 508 l 1,1,-1
 461 1 l 1,2,3
 448 10 448 10 407 53 c 1,4,-1
 414 311 l 1,5,6
 403 346 403 346 394 363 c 0,7,8
 378 394 378 394 357 407 c 1,9,-1
 188 236 l 1,10,-1
 115 263 l 1,11,-1
 158 309 l 2,12,13
 171 323 171 323 165 353 c 0,14,15
 158 388 158 388 134 387 c 0,16,17
 127 387 127 387 72 368 c 1,18,19
 58 365 58 365 44 379.5 c 128,-1,20
 30 394 30 394 30 408 c 0,21,22
 30 420 30 420 39 435 c 0,23,24
 107 548 107 548 222 550 c 0,25,26
 281 551 281 551 332 512 c 0,27,28
 378 477 378 477 404 419 c 0,29,30
 432 357 432 357 434 340 c 2,31,-1
 417 475 l 1,32,-1
 411 633 l 1,33,-1
 438 613 l 1,34,35
 439 611 439 611 441 608 c 1,36,37
 443 581 443 581 455 569 c 1,38,-1
 473 558 l 1,39,40
 476 559 476 559 504 559 c 0,41,42
 534 559 534 559 539 558 c 1,43,-1
 588 508 l 1,0,-1
315 460 m 1,44,45
 311 465 311 465 286 484 c 0,46,47
 270 496 270 496 240 496 c 0,48,49
 159 496 159 496 127 432 c 1,50,51
 161 434 161 434 177 412 c 0,52,53
 198 383 198 383 199 355 c 0,54,55
 199 347 199 347 197 343 c 1,56,-1
 315 460 l 1,44,45
EndSplineSet
EndChar

StartChar: d
Encoding: 100 100 71
Width: 585
Flags: W
LayerCount: 2
Fore
SplineSet
631 508 m 1,0,-1
 140 508 l 1,1,2
 217 452 217 452 273 373 c 1,3,4
 245 349 245 349 219 328 c 0,5,6
 198 311 198 311 150 270 c 1,7,8
 199 254 199 254 248 212.5 c 128,-1,9
 297 171 297 171 324 125 c 1,10,-1
 324 469 l 1,11,12
 337 475 337 475 361 475 c 0,13,14
 483 475 483 475 528 386 c 0,15,16
 541 360 541 360 545 341 c 0,17,18
 555 291 555 291 536 258 c 0,19,20
 514 220 514 220 464 220 c 0,21,22
 439 220 439 220 422.5 238 c 128,-1,23
 406 256 406 256 406 281 c 0,24,25
 406 314 406 314 442 325 c 0,26,27
 471 334 471 334 495 313 c 1,28,-1
 493 315 l 2,29,30
 495 314 495 314 503 309 c 0,31,32
 505 308 505 308 507 308 c 0,33,34
 512 308 512 308 512 320 c 0,35,36
 512 346 512 346 493 367 c 128,-1,37
 474 388 474 388 448 392 c 0,38,39
 410 398 410 398 392 398 c 256,40,41
 374 398 374 398 374 392 c 2,42,-1
 374 0 l 1,43,-1
 354 18 l 1,44,45
 342 43 342 43 308 96 c 1,46,47
 225 203 225 203 104 206 c 1,48,-1
 46 289 l 1,49,50
 90 336 90 336 144 380 c 2,51,-1
 187 415 l 1,52,53
 170 429 170 429 145 445 c 1,54,55
 115 448 115 448 71 459 c 1,56,57
 45 473 45 473 39 479 c 2,58,-1
 28 490 l 1,59,-1
 2 508 l 1,60,-1
 -48 558 l 1,61,-1
 581 558 l 1,62,-1
 631 508 l 1,0,-1
EndSplineSet
EndChar

StartChar: e
Encoding: 101 101 72
Width: 444
Flags: W
LayerCount: 2
Fore
SplineSet
492 508 m 1,0,-1
 369 508 l 1,1,-1
 369 -9 l 1,2,-1
 343 29 l 1,3,4
 299 138 299 138 212 189 c 0,5,6
 150 225 150 225 86 230 c 1,7,-1
 22 321 l 1,8,9
 95 373 95 373 145 399 c 0,10,11
 243 449 243 449 320 474 c 1,12,-1
 320 508 l 1,13,-1
 -3 508 l 1,14,-1
 -52 558 l 1,15,-1
 443 558 l 1,16,-1
 492 508 l 1,0,-1
320 131 m 1,17,-1
 320 394 l 1,18,19
 231 363 231 363 127 294 c 1,20,21
 256 238 256 238 320 131 c 1,17,-1
EndSplineSet
EndChar

StartChar: f
Encoding: 102 102 73
Width: 532
Flags: W
LayerCount: 2
Fore
SplineSet
584 508 m 1,0,-1
 2 508 l 1,1,-1
 -49 558 l 1,2,-1
 532 558 l 1,3,-1
 584 508 l 1,0,-1
507 290 m 0,4,5
 506 183 506 183 437 124 c 0,6,7
 415 106 415 106 408 100 c 0,8,9
 394 89 394 89 376 85 c 0,10,11
 335 75 335 75 311 75 c 0,12,13
 245 75 245 75 192 113 c 0,14,15
 170 129 170 129 141 166 c 0,16,17
 95 225 95 225 62 307 c 0,18,19
 50 337 50 337 11 461 c 1,20,-1
 43 451 l 1,21,22
 87 298 87 298 177 214 c 0,23,24
 237 158 237 158 320 158 c 0,25,26
 406 158 406 158 451 253 c 0,27,28
 463 278 463 278 455 314 c 0,29,30
 446 359 446 359 430 359 c 0,31,32
 427 359 427 359 402 328 c 0,33,34
 384 305 384 305 330 287 c 0,35,36
 312 281 312 281 280 280 c 0,37,38
 220 278 220 278 178 323 c 0,39,40
 160 342 160 342 160 382 c 0,41,42
 160 421 160 421 184.5 442 c 128,-1,43
 209 463 209 463 248 460 c 0,44,45
 272 458 272 458 288 441 c 128,-1,46
 304 424 304 424 304 400 c 0,47,48
 304 380 304 380 283 350 c 1,49,50
 283 348 283 348 285 348 c 0,51,52
 308 348 308 348 355 395 c 0,53,54
 384 424 384 424 395 454 c 0,55,56
 396 456 396 456 398 456 c 0,57,58
 414 456 414 456 459 396 c 0,59,60
 508 331 508 331 507 290 c 0,4,5
EndSplineSet
EndChar

StartChar: g
Encoding: 103 103 74
Width: 472
Flags: W
LayerCount: 2
Fore
SplineSet
524 508 m 1,0,-1
 392 508 l 1,1,-1
 392 -4 l 1,2,-1
 371 19 l 1,3,4
 369 28 369 28 358 64 c 0,5,6
 342 117 342 117 314 142 c 0,7,8
 259 190 259 190 236 198 c 1,9,-1
 237 197 l 1,10,11
 238 191 238 191 207 168 c 0,12,13
 183 150 183 150 151 150 c 0,14,15
 109 150 109 150 90 171 c 0,16,17
 79 183 79 183 74 191 c 1,18,19
 74 198 74 198 70.5 211.5 c 128,-1,20
 67 225 67 225 67 232 c 0,21,22
 67 274 67 274 98 298 c 0,23,24
 125 319 125 319 169 319 c 0,25,26
 201 319 201 319 206 310 c 1,27,28
 204 378 204 378 153 414 c 0,29,30
 142 422 142 422 88 438 c 0,31,32
 41 452 41 452 37 458 c 1,33,34
 26 465 26 465 9 486 c 1,35,-1
 -2 508 l 1,36,-1
 -52 558 l 1,37,-1
 473 558 l 1,38,-1
 524 508 l 1,0,-1
344 159 m 1,39,-1
 344 506 l 1,40,-1
 112 506 l 1,41,42
 181 449 181 449 202 428 c 0,43,44
 235 394 235 394 245 355 c 0,45,46
 262 286 262 286 259 259 c 1,47,48
 289 228 289 228 344 159 c 1,39,-1
EndSplineSet
EndChar

StartChar: h
Encoding: 104 104 75
Width: 445
Flags: W
LayerCount: 2
Fore
SplineSet
500 508 m 1,0,-1
 372 508 l 1,1,-1
 372 -5 l 1,2,-1
 350 17 l 1,3,4
 311 102 311 102 260 148 c 0,5,6
 222 182 222 182 188.5 193.5 c 128,-1,7
 155 205 155 205 101 207 c 1,8,-1
 33 291 l 1,9,10
 81 340 81 340 125 375 c 2,11,-1
 183 421 l 1,12,13
 163 435 163 435 149.5 442.5 c 128,-1,14
 136 450 136 450 75 465 c 0,15,16
 26 477 26 477 12 491 c 1,17,-1
 -2 508 l 1,18,-1
 -52 558 l 1,19,-1
 449 558 l 1,20,-1
 500 508 l 1,0,-1
322 126 m 1,21,-1
 322 508 l 1,22,-1
 130 508 l 1,23,24
 151 498 151 498 186 471 c 0,25,26
 203 458 203 458 259 393 c 1,27,28
 245 377 245 377 206 342 c 1,29,30
 191 331 191 331 139 272 c 1,31,32
 252 236 252 236 322 126 c 1,21,-1
EndSplineSet
EndChar

StartChar: i
Encoding: 105 105 76
Width: 430
Flags: W
LayerCount: 2
Fore
SplineSet
474 508 m 1,0,-1
 357 508 l 1,1,-1
 357 1 l 1,2,-1
 338 19 l 1,3,-1
 293 102 l 2,4,5
 262 158 262 158 201.5 194.5 c 128,-1,6
 141 231 141 231 75 235 c 1,7,-1
 10 324 l 1,8,9
 160 430 160 430 307 475 c 1,10,-1
 307 508 l 1,11,-1
 1 508 l 1,12,-1
 -50 558 l 1,13,-1
 423 558 l 1,14,-1
 474 508 l 1,0,-1
167 42 m 0,15,16
 149 42 149 42 133.5 54.5 c 128,-1,17
 118 67 118 67 114 85 c 0,18,19
 109 107 109 107 123.5 126 c 128,-1,20
 138 145 138 145 161 145 c 0,21,22
 179 145 179 145 194 133 c 128,-1,23
 209 121 209 121 213 104 c 0,24,25
 218 82 218 82 204 62 c 128,-1,26
 190 42 190 42 167 42 c 0,15,16
307 124 m 1,27,-1
 307 401 l 1,28,29
 248 381 248 381 196 354 c 0,30,31
 170 340 170 340 113 299 c 1,32,33
 250 242 250 242 307 124 c 1,27,-1
EndSplineSet
EndChar

StartChar: j
Encoding: 106 106 77
Width: 516
Flags: W
LayerCount: 2
Fore
SplineSet
561 508 m 1,0,-1
 437 508 l 1,1,-1
 437 -5 l 1,2,-1
 385 44 l 1,3,-1
 385 321 l 2,4,5
 385 346 385 346 362.5 367 c 128,-1,6
 340 388 340 388 315 385 c 0,7,8
 297 383 297 383 288 365.5 c 128,-1,9
 279 348 279 348 282 330 c 2,10,-1
 286 305 l 1,11,-1
 265 297 l 1,12,13
 267 302 267 302 255 321 c 0,14,15
 235 353 235 353 227 359 c 1,16,17
 200 386 200 386 156 386 c 0,18,19
 120 386 120 386 92.5 360.5 c 128,-1,20
 65 335 65 335 65 299 c 0,21,22
 65 239 65 239 131 228 c 1,23,24
 116 247 116 247 116 267 c 0,25,26
 116 291 116 291 132.5 306 c 128,-1,27
 149 321 149 321 173 321 c 0,28,29
 209 322 209 322 226 278 c 0,30,31
 240 242 240 242 234 228 c 0,32,33
 214 180 214 180 159 180 c 0,34,35
 108 180 108 180 70 207 c 128,-1,36
 32 234 32 234 22 283 c 0,37,38
 18 302 18 302 18 322 c 0,39,40
 18 374 18 374 46 414 c 0,41,42
 77 459 77 459 126 460 c 0,43,44
 179 461 179 461 219 421 c 1,45,-1
 237 398 l 1,46,47
 237 415 237 415 259 436.5 c 128,-1,48
 281 458 281 458 298 457 c 0,49,50
 327 455 327 455 345 439 c 1,51,52
 353 428 353 428 362 417 c 1,53,54
 376 403 376 403 387 370 c 1,55,-1
 387 508 l 1,56,-1
 -1 508 l 1,57,-1
 -53 559 l 1,58,-1
 509 559 l 1,59,-1
 561 508 l 1,0,-1
EndSplineSet
EndChar

StartChar: k
Encoding: 107 107 78
Width: 521
Flags: W
LayerCount: 2
Fore
SplineSet
563 508 m 1,0,-1
 449 508 l 1,1,-1
 449 -4 l 1,2,-1
 397 47 l 1,3,-1
 401 359 l 2,4,5
 401 381 401 381 370 427 c 0,6,7
 334 480 334 480 304 477 c 0,8,9
 287 475 287 475 270 464 c 128,-1,10
 253 453 253 453 253 438 c 1,11,12
 288 412 288 412 297 403 c 0,13,14
 328 372 328 372 328 341 c 0,15,16
 328 332 328 332 322 306 c 1,17,18
 310 275 310 275 264 275 c 0,19,20
 220 275 220 275 189 327 c 1,21,22
 172 286 172 286 126 271 c 0,23,24
 117 268 117 268 109 268 c 0,25,26
 66 268 66 268 51 320 c 0,27,28
 48 330 48 330 48 341 c 0,29,30
 48 379 48 379 89 418 c 0,31,32
 94 423 94 423 115 439 c 0,33,34
 125 447 125 447 134 448 c 1,35,36
 128 463 128 463 106 490 c 1,37,38
 83 508 83 508 62 508 c 2,39,-1
 0 507 l 1,40,-1
 -50 557 l 1,41,-1
 53 557 l 2,42,43
 88 557 88 557 114 538 c 1,44,-1
 138 515 l 2,45,46
 160 494 160 494 166 464 c 1,47,48
 179 494 179 494 193 510 c 0,49,50
 221 540 221 540 266 554 c 0,51,52
 283 559 283 559 288 559 c 0,53,54
 308 559 308 559 348 509 c 0,55,56
 360 494 360 494 387 450 c 0,57,58
 417 402 417 402 420 391 c 1,59,-1
 406 553 l 1,60,-1
 401 647 l 1,61,62
 415 635 415 635 432 617 c 0,63,64
 438 610 438 610 438 598 c 0,65,66
 439 581 439 581 440 580 c 0,67,68
 448 564 448 564 470 558 c 1,69,-1
 513 558 l 1,70,-1
 563 508 l 1,0,-1
EndSplineSet
EndChar

StartChar: l
Encoding: 108 108 79
Width: 449
Flags: W
LayerCount: 2
Fore
SplineSet
491 508 m 1,0,-1
 375 508 l 1,1,-1
 375 1 l 1,2,-1
 355 23 l 1,3,4
 318 102 318 102 256 152 c 0,5,6
 186 209 186 209 106 210 c 1,7,-1
 39 297 l 1,8,9
 62 318 62 318 116 366 c 0,10,11
 128 376 128 376 190 425 c 1,12,13
 178 432 178 432 152 440 c 0,14,15
 139 444 139 444 102 442 c 128,-1,16
 65 440 65 440 50 446 c 0,17,18
 25 456 25 456 13 488 c 1,19,20
 13 494 13 494 1 507 c 0,21,22
 -3 510 -3 510 -14 522 c 2,23,-1
 -49 558 l 1,24,-1
 442 558 l 1,25,-1
 491 508 l 1,0,-1
326 349 m 1,26,-1
 326 508 l 1,27,-1
 132 508 l 1,28,29
 157 490 157 490 193 464 c 1,30,31
 226 438 226 438 247 411 c 1,32,33
 278 390 278 390 326 349 c 1,26,-1
325 130 m 1,34,-1
 325 296 l 1,35,36
 248 367 248 367 245 365 c 0,37,38
 212 345 212 345 147 275 c 1,39,40
 176 264 176 264 227 227 c 0,41,42
 288 183 288 183 325 130 c 1,34,-1
EndSplineSet
EndChar

StartChar: m
Encoding: 109 109 80
Width: 509
Flags: W
LayerCount: 2
Fore
SplineSet
556 508 m 1,0,-1
 434 508 l 1,1,-1
 434 -5 l 1,2,-1
 385 52 l 1,3,-1
 384 282 l 1,4,5
 380 302 380 302 357 321 c 128,-1,6
 334 340 334 340 314 340 c 0,7,8
 285 340 285 340 262 306 c 0,9,10
 181 184 181 184 159 180 c 0,11,12
 153 179 153 179 141 179 c 0,13,14
 106 179 106 179 101 188 c 1,15,16
 80 191 80 191 46 251 c 0,17,18
 43 257 43 257 26 288 c 1,19,-1
 59 320 l 1,20,21
 60 310 60 310 70 290 c 128,-1,22
 80 270 80 270 87 263 c 0,23,24
 97 253 97 253 107 253 c 0,25,26
 124 253 124 253 155 295 c 2,27,-1
 198 353 l 1,28,29
 195 387 195 387 190 402 c 0,30,31
 170 462 170 462 107 464 c 0,32,33
 63 466 63 466 51 469 c 0,34,35
 30 475 30 475 9 507 c 1,36,-1
 -5 514 l 1,37,-1
 -50 558 l 1,38,-1
 506 558 l 1,39,-1
 556 508 l 1,0,-1
385 331 m 1,40,-1
 385 508 l 1,41,-1
 159 508 l 1,42,-1
 187 485 l 2,43,44
 223 455 223 455 223 399 c 0,45,46
 223 389 223 389 221 380 c 1,47,48
 229 382 229 382 253.5 400 c 128,-1,49
 278 418 278 418 288 418 c 0,50,51
 306 418 306 418 331 396 c 0,52,53
 344 384 344 384 385 331 c 1,40,-1
EndSplineSet
EndChar

StartChar: n
Encoding: 110 110 81
Width: 441
Flags: W
LayerCount: 2
Fore
SplineSet
478 -84 m 1,0,1
 406 2 406 2 274 79 c 0,2,3
 181 133 181 133 82 151 c 1,4,-1
 27 286 l 1,5,6
 95 240 95 240 177 240 c 0,7,8
 258 240 258 240 320 300 c 0,9,10
 336 316 336 316 337 337 c 0,11,12
 338 371 338 371 310 391 c 128,-1,13
 282 411 282 411 247 411 c 0,14,15
 234 411 234 411 226 407 c 1,16,17
 225 371 225 371 182 333 c 0,18,19
 160 313 160 313 131 313 c 0,20,21
 81 313 81 313 72 360 c 0,22,23
 67 385 67 385 93 418 c 0,24,25
 109 438 109 438 136 449 c 2,26,-1
 184 468 l 2,27,28
 186 469 186 469 186 472 c 0,29,30
 186 481 186 481 170 493.5 c 128,-1,31
 154 506 154 506 144 508 c 1,32,-1
 0 508 l 1,33,-1
 -52 558 l 1,34,-1
 440 558 l 1,35,-1
 489 508 l 1,36,-1
 215 508 l 1,37,38
 217 501 217 501 222 487 c 1,39,40
 229 477 229 477 236 466 c 1,41,-1
 235 467 l 1,42,43
 238 471 238 471 282 454 c 0,44,45
 360 423 360 423 377 344 c 0,46,47
 383 317 383 317 378 297 c 0,48,49
 363 233 363 233 305 201 c 0,50,51
 287 192 287 192 238 167 c 1,52,53
 238 167 238 167 295 133 c 0,54,55
 348 101 348 101 391 56 c 2,56,-1
 459 -16 l 1,57,-1
 478 -84 l 1,0,1
EndSplineSet
EndChar

StartChar: o
Encoding: 111 111 82
Width: 524
Flags: W
LayerCount: 2
Fore
SplineSet
576 508 m 1,0,-1
 249 508 l 1,1,-1
 249 376 l 2,2,3
 249 308 249 308 262 308 c 1,4,5
 311 319 311 319 366 392 c 0,6,7
 390 424 390 424 396 424 c 0,8,9
 401 424 401 424 405 419 c 1,10,11
 485 351 485 351 485 247 c 0,12,13
 485 131 485 131 407 76 c 0,14,15
 362 44 362 44 299 44 c 0,16,17
 209 44 209 44 156 103 c 0,18,19
 130 132 130 132 85 221 c 0,20,21
 47 296 47 296 34 406 c 0,22,23
 33 418 33 418 27 481 c 1,24,-1
 57 465 l 1,25,26
 63 388 63 388 93 312 c 0,27,28
 161 139 161 139 288 139 c 0,29,30
 327 139 327 139 366 159 c 128,-1,31
 405 179 405 179 423 211 c 128,-1,32
 441 243 441 243 443 263 c 0,33,34
 447 298 447 298 419 332 c 1,35,36
 413 312 413 312 338 256 c 0,37,38
 308 234 308 234 280 234 c 0,39,40
 223 234 223 234 203 309 c 0,41,42
 200 320 200 320 200 356 c 2,43,-1
 200 508 l 1,44,-1
 1 508 l 1,45,-1
 -50 558 l 1,46,-1
 525 558 l 1,47,-1
 576 508 l 1,0,-1
341 -81 m 0,48,49
 325 -114 325 -114 292 -114 c 0,50,51
 244 -114 244 -114 234 -69 c 0,52,53
 229 -48 229 -48 240 -27 c 0,54,55
 257 6 257 6 290 6 c 0,56,57
 337 6 337 6 347 -39 c 0,58,59
 351 -60 351 -60 341 -81 c 0,48,49
EndSplineSet
EndChar

StartChar: p
Encoding: 112 112 83
Width: 421
Flags: W
LayerCount: 2
Fore
SplineSet
464 508 m 1,0,-1
 129 508 l 1,1,-1
 129 182 l 2,2,3
 129 151 129 151 153 151 c 0,4,5
 193 151 193 151 266 243 c 0,6,7
 282 263 282 263 285 300 c 1,8,9
 278 298 278 298 270 298 c 0,10,11
 218 298 218 298 208 342 c 0,12,13
 205 355 205 355 209 371 c 0,14,15
 222 423 222 423 268 423 c 0,16,17
 315 423 315 423 342 378 c 0,18,19
 361 346 361 346 359 315 c 0,20,21
 356 267 356 267 345 238 c 128,-1,22
 334 209 334 209 305 173 c 0,23,24
 233 86 233 86 169 86 c 0,25,26
 107 86 107 86 80 172 c 0,27,28
 75 188 75 188 75 243 c 2,29,-1
 75 508 l 1,30,-1
 0 508 l 1,31,-1
 -49 558 l 1,32,-1
 414 558 l 1,33,-1
 464 508 l 1,0,-1
235 -55 m 0,34,35
 219 -97 219 -97 180 -97 c 0,36,37
 160 -97 160 -97 144 -84.5 c 128,-1,38
 128 -72 128 -72 124 -53 c 0,39,40
 120 -33 120 -33 128 -13 c 0,41,42
 145 29 145 29 183 29 c 0,43,44
 230 29 230 29 239 -15 c 0,45,46
 243 -34 243 -34 235 -55 c 0,34,35
EndSplineSet
EndChar

StartChar: q
Encoding: 113 113 84
Width: 450
Flags: W
LayerCount: 2
Fore
SplineSet
503 508 m 1,0,-1
 373 508 l 1,1,-1
 373 -8 l 1,2,-1
 352 15 l 1,3,-1
 330 61 l 2,4,5
 311 100 311 100 270 139.5 c 128,-1,6
 229 179 229 179 190 194 c 0,7,8
 161 205 161 205 103 208 c 1,9,-1
 36 293 l 1,10,11
 88 345 88 345 129 378 c 0,12,13
 137 384 137 384 184 421 c 1,14,15
 168 438 168 438 163 440 c 0,16,17
 136 456 136 456 88 461 c 0,18,19
 28 467 28 467 1 505 c 1,20,-1
 -52 558 l 1,21,-1
 451 558 l 1,22,-1
 503 508 l 1,0,-1
175 27 m 0,23,24
 156 27 156 27 140 39.5 c 128,-1,25
 124 52 124 52 120 70 c 0,26,27
 115 94 115 94 129.5 113.5 c 128,-1,28
 144 133 144 133 169 133 c 0,29,30
 188 133 188 133 204 121 c 128,-1,31
 220 109 220 109 224 91 c 0,32,33
 229 68 229 68 214 47.5 c 128,-1,34
 199 27 199 27 175 27 c 0,23,24
323 123 m 1,35,-1
 323 508 l 1,36,-1
 141 508 l 1,37,38
 165 492 165 492 192 469 c 0,39,40
 200 462 200 462 261 391 c 1,41,42
 242 370 242 370 209 342 c 0,43,44
 190 326 190 326 142 270 c 1,45,46
 173 260 173 260 193 249 c 0,47,48
 274 205 274 205 323 123 c 1,35,-1
EndSplineSet
EndChar

StartChar: r
Encoding: 114 114 85
Width: 357
Flags: W
LayerCount: 2
Fore
SplineSet
386 19 m 1,0,-1
 346 31 l 1,1,2
 360 48 360 48 358 72 c 0,3,4
 354 113 354 113 309 142 c 0,5,6
 285 157 285 157 220 181 c 0,7,8
 41 246 41 246 14 371 c 0,9,10
 10 389 10 389 10 404 c 0,11,12
 10 492 10 492 95 545 c 0,13,14
 122 562 122 562 161 564 c 0,15,16
 216 567 216 567 243 551 c 0,17,18
 294 521 294 521 305 471 c 0,19,20
 311 443 311 443 305 417 c 0,21,22
 289 348 289 348 216 348 c 0,23,24
 209 348 209 348 196 349 c 0,25,26
 145 353 145 353 111 404 c 0,27,28
 97 425 97 425 90 471 c 1,29,30
 76 470 76 470 65.5 445.5 c 128,-1,31
 55 421 55 421 57 406 c 0,32,33
 67 338 67 338 126 309 c 2,34,-1
 204 271 l 2,35,36
 252 248 252 248 306 218 c 1,37,38
 390 158 390 158 389 56 c 0,39,40
 389 39 389 39 386 19 c 1,0,-1
199 500 m 0,41,42
 156 502 156 502 136 497 c 1,43,44
 134 489 134 489 134 481 c 0,45,46
 134 445 134 445 179 413 c 0,47,48
 189 406 189 406 204 406 c 0,49,50
 226 406 226 406 246 419 c 128,-1,51
 266 432 266 432 266 453 c 0,52,53
 266 497 266 497 199 500 c 0,41,42
EndSplineSet
EndChar

StartChar: s
Encoding: 115 115 86
Width: 301
Flags: W
LayerCount: 2
Fore
SplineSet
223 335 m 0,0,1
 201 310 201 310 184 304 c 0,2,3
 173 300 173 300 149 300 c 0,4,5
 102 300 102 300 68 335 c 128,-1,6
 34 370 34 370 34 417 c 0,7,8
 34 466 34 466 80 506 c 0,9,10
 108 531 108 531 144 531 c 0,11,12
 190 531 190 531 222.5 495 c 128,-1,13
 255 459 255 459 255 413 c 0,14,15
 255 371 255 371 223 335 c 0,0,1
342 -58 m 1,16,-1
 282 0 l 2,17,18
 222 58 222 58 65 166 c 1,19,-1
 65 279 l 1,20,21
 103 249 103 249 178 177 c 0,22,23
 221 136 221 136 342 -15 c 1,24,-1
 342 -58 l 1,16,-1
171 374 m 0,25,26
 195 391 195 391 201 405 c 0,27,28
 205 414 205 414 205 439 c 0,29,30
 205 480 205 480 172 480 c 0,31,32
 147 480 147 480 111 448 c 0,33,34
 87 427 87 427 86 386 c 0,35,36
 85 349 85 349 115 349 c 0,37,38
 136 349 136 349 171 374 c 0,25,26
EndSplineSet
EndChar

StartChar: t
Encoding: 116 116 87
Width: 313
Flags: W
LayerCount: 2
Fore
SplineSet
258 341 m 0,0,1
 235 316 235 316 218 309 c 0,2,3
 206 304 206 304 180 304 c 0,4,5
 133 304 133 304 97 337.5 c 128,-1,6
 61 371 61 371 61 418 c 0,7,8
 61 469 61 469 115 510 c 0,9,10
 146 534 146 534 182 534 c 0,11,12
 228 534 228 534 259.5 500.5 c 128,-1,13
 291 467 291 467 291 421 c 0,14,15
 291 378 291 378 258 341 c 0,0,1
179 13 m 0,16,17
 132 13 132 13 98 47.5 c 128,-1,18
 64 82 64 82 64 129 c 0,19,20
 64 182 64 182 118 224 c 0,21,22
 149 248 149 248 183 248 c 0,23,24
 227 248 227 248 257.5 213 c 128,-1,25
 288 178 288 178 288 133 c 0,26,27
 288 95 288 95 263 60 c 0,28,29
 230 13 230 13 179 13 c 0,16,17
238 410 m 0,30,31
 240 421 240 421 240 437 c 0,32,33
 240 480 240 480 203 480 c 0,34,35
 170 480 170 480 145 453 c 128,-1,36
 120 426 120 426 120 393 c 0,37,38
 120 352 120 352 152 352 c 0,39,40
 171 352 171 352 203 372 c 128,-1,41
 235 392 235 392 238 410 c 0,30,31
190 196 m 0,42,43
 158 196 158 196 140 170.5 c 128,-1,44
 122 145 122 145 122 111 c 0,45,46
 122 102 122 102 125 87 c 0,47,48
 131 56 131 56 158 56 c 0,49,50
 189 56 189 56 212.5 81.5 c 128,-1,51
 236 107 236 107 236 138 c 0,52,53
 236 196 236 196 190 196 c 0,42,43
EndSplineSet
EndChar

StartChar: u
Encoding: 117 117 88
Width: 0
Flags: W
LayerCount: 2
Fore
SplineSet
-193 788 m 1,0,1
 -185 800 -185 800 -169 800 c 0,2,3
 -137 800 -137 800 -137 772 c 0,4,5
 -137 765 -137 765 -139 761 c 1,6,7
 -142 736 -142 736 -167 731 c 0,8,9
 -193 726 -193 726 -203 751 c 0,10,11
 -211 771 -211 771 -193 788 c 1,0,1
-69 746 m 0,12,13
 -69 705 -69 705 -97.5 672.5 c 128,-1,14
 -126 640 -126 640 -166 638 c 0,15,16
 -242 634 -242 634 -288 736 c 0,17,18
 -288 737 -288 737 -308 787 c 1,19,20
 -296 788 -296 788 -280 785 c 1,21,22
 -266 757 -266 757 -259 745 c 0,23,24
 -246 724 -246 724 -220.5 708.5 c 128,-1,25
 -195 693 -195 693 -171 693 c 0,26,27
 -163 693 -163 693 -155 696 c 1,28,29
 -126 700 -126 700 -110 726 c 0,30,31
 -104 736 -104 736 -89 778 c 0,32,33
 -88 779 -88 779 -87 779 c 0,34,35
 -69 779 -69 779 -69 746 c 0,12,13
EndSplineSet
EndChar

StartChar: v
Encoding: 118 118 89
Width: 202
Flags: W
LayerCount: 2
Fore
SplineSet
250 508 m 1,0,-1
 125 508 l 1,1,-1
 125 -17 l 1,2,-1
 77 35 l 1,3,-1
 77 410 l 2,4,5
 77 443 77 443 63 463 c 0,6,7
 31 509 31 509 -17 509 c 0,8,9
 -23 509 -23 509 -30 508 c 1,10,-1
 -81 558 l 1,11,12
 -36 563 -36 563 -2 558 c 0,13,14
 51 550 51 550 74 490 c 1,15,16
 82 474 82 474 97 429 c 1,17,18
 85 484 85 484 78 567 c 0,19,20
 75 602 75 602 75 648 c 1,21,-1
 95 632 l 1,22,23
 99 602 99 602 109 578 c 1,24,25
 114 570 114 570 125 558 c 1,26,-1
 200 558 l 1,27,-1
 250 508 l 1,0,-1
EndSplineSet
EndChar

StartChar: w
Encoding: 119 119 90
Width: 190
Flags: W
LayerCount: 2
Fore
SplineSet
520 612 m 1,0,-1
 435 676 l 2,1,2
 358 734 358 734 260 734 c 0,3,4
 205 734 205 734 164 707 c 2,5,-1
 140 691 l 1,6,7
 131 682 131 682 117 664 c 0,8,9
 79 615 79 615 83 601 c 1,10,-1
 102 558 l 1,11,-1
 195 558 l 1,12,-1
 245 508 l 1,13,-1
 119 508 l 1,14,-1
 119 1 l 1,15,-1
 68 50 l 1,16,-1
 69 508 l 1,17,-1
 -5 508 l 1,18,-1
 -55 558 l 1,19,-1
 74 558 l 1,20,-1
 30 605 l 2,21,22
 23 613 23 613 23 628 c 0,23,24
 24 655 24 655 33 670 c 0,25,26
 58 711 58 711 70 723 c 0,27,28
 98 752 98 752 149 776 c 0,29,30
 176 789 176 789 214 789 c 0,31,32
 310 789 310 789 420 721 c 0,33,34
 454 700 454 700 509 644 c 1,35,-1
 520 612 l 1,0,-1
EndSplineSet
EndChar

StartChar: x
Encoding: 120 120 91
Width: 202
Flags: W
LayerCount: 2
Fore
SplineSet
250 508 m 1,0,-1
 110 508 l 1,1,-1
 110 -5 l 1,2,-1
 61 45 l 1,3,-1
 61 508 l 1,4,-1
 -2 508 l 1,5,-1
 -56 558 l 1,6,-1
 67 558 l 1,7,-1
 59 596 l 2,8,9
 54 621 54 621 16 671 c 0,10,11
 -9 704 -9 704 -43 722 c 0,12,13
 -120 762 -120 762 -216 762 c 0,14,15
 -305 762 -305 762 -349 727 c 0,16,17
 -354 723 -354 723 -354 714 c 0,18,19
 -354 691 -354 691 -307 689 c 0,20,21
 -198 685 -198 685 -186 683 c 0,22,23
 -72 668 -72 668 -70 582 c 0,24,25
 -70 566 -70 566 -74 552 c 1,26,-1
 -127 552 l 1,27,28
 -103 571 -103 571 -103 587 c 0,29,30
 -103 595 -103 595 -110 604 c 0,31,32
 -123 621 -123 621 -185 624 c 2,33,-1
 -267 628 l 2,34,35
 -302 630 -302 630 -346 657 c 0,36,37
 -381 679 -381 679 -381 719 c 0,38,39
 -381 744 -381 744 -364 758 c 0,40,41
 -340 778 -340 778 -329 783 c 0,42,43
 -295 799 -295 799 -229 811 c 0,44,45
 -212 814 -212 814 -197 814 c 0,46,47
 -148 814 -148 814 -71 789 c 0,48,49
 -37 778 -37 778 11 739 c 0,50,51
 37 718 37 718 62.5 678.5 c 128,-1,52
 88 639 88 639 97 605 c 2,53,-1
 110 558 l 1,54,-1
 200 558 l 1,55,-1
 250 508 l 1,0,-1
EndSplineSet
EndChar

StartChar: y
Encoding: 121 121 92
Width: 0
Flags: W
LayerCount: 2
Fore
SplineSet
35 -168 m 0,0,1
 36 -169 36 -169 35 -173 c 0,2,3
 33 -178 33 -178 29 -178 c 0,4,5
 26 -178 26 -178 23 -174 c 0,6,7
 -4 -137 -4 -137 -70 -83 c 0,8,9
 -111 -50 -111 -50 -113 -53 c 0,10,11
 -149 -86 -149 -86 -156 -91 c 0,12,13
 -176 -105 -176 -105 -202 -105 c 0,14,15
 -235 -105 -235 -105 -261 -91 c 0,16,17
 -291 -75 -291 -75 -295 -45 c 0,18,19
 -300 -6 -300 -6 -273.5 19 c 128,-1,20
 -247 44 -247 44 -207 44 c 0,21,22
 -177 44 -177 44 -135 17 c 1,23,24
 -128 14 -128 14 -127 30 c 0,25,26
 -127 37 -127 37 -129 68 c 0,27,28
 -130 81 -130 81 -130 97 c 1,29,30
 -129 98 -129 98 -128 98 c 0,31,32
 -114 98 -114 98 -99 68 c 0,33,34
 -86 43 -86 43 -84 25 c 1,35,36
 -86 17 -86 17 -86 8 c 0,37,38
 -86 -3 -86 -3 -83 -17 c 1,39,40
 -51 -40 -51 -40 -36 -59 c 1,41,42
 23 -111 23 -111 35 -168 c 0,0,1
-160 -21 m 1,43,44
 -172 -3 -172 -3 -208 -5 c 0,45,46
 -252 -7 -252 -7 -252 -32 c 256,47,48
 -252 -57 -252 -57 -223 -57 c 0,49,50
 -206 -57 -206 -57 -183 -47 c 0,51,52
 -155 -35 -155 -35 -160 -21 c 1,43,44
EndSplineSet
EndChar

StartChar: z
Encoding: 122 122 93
Width: 0
Flags: W
LayerCount: 2
Fore
SplineSet
-81 -207 m 1,0,1
 -108 -158 -108 -158 -171 -98 c 0,2,3
 -192 -78 -192 -78 -232 -56 c 1,4,5
 -264 -107 -264 -107 -302 -114 c 0,6,7
 -318 -117 -318 -117 -333 -117 c 0,8,9
 -366 -117 -366 -117 -392 -98 c 1,10,11
 -404 -86 -404 -86 -407 -82 c 0,12,13
 -418 -67 -418 -67 -418 -48 c 0,14,15
 -418 -12 -418 -12 -388 11 c 0,16,17
 -361 32 -361 32 -324 32 c 0,18,19
 -298 32 -298 32 -256 9 c 0,20,21
 -248 5 -248 5 -248 29 c 0,22,23
 -248 42 -248 42 -252 68 c 1,24,25
 -250 74 -250 74 -248 86 c 1,26,27
 -225 70 -225 70 -219 32 c 1,28,29
 -220 15 -220 15 -218 -13 c 1,30,31
 -202 -23 -202 -23 -172 -45 c 1,32,33
 -111 -100 -111 -100 -98 -129 c 1,34,35
 -84 -148 -84 -148 -83 -155 c 0,36,37
 -78 -193 -78 -193 -81 -207 c 1,0,1
-324 -11 m 0,38,39
 -342 -10 -342 -10 -356 -18 c 0,40,41
 -373 -28 -373 -28 -373 -45 c 0,42,43
 -372 -68 -372 -68 -346 -68 c 256,44,45
 -320 -68 -320 -68 -294 -49 c 0,46,47
 -277 -37 -277 -37 -277 -29 c 1,48,49
 -280 -14 -280 -14 -324 -11 c 0,38,39
EndSplineSet
EndChar

StartChar: braceleft
Encoding: 123 123 94
Width: 480
Flags: W
LayerCount: 2
Fore
SplineSet
341 682 m 1,0,1
 258 664 258 664 258 559 c 2,2,-1
 258 385 l 2,3,4
 258 332 258 332 243 304 c 0,5,6
 224 270 224 270 177 257 c 1,7,8
 230 243 230 243 246 206 c 0,9,10
 258 179 258 179 258 121 c 2,11,-1
 258 -43 l 2,12,13
 258 -147 258 -147 341 -165 c 1,14,15
 254 -167 254 -167 220 -135.5 c 128,-1,16
 186 -104 186 -104 186 -17 c 2,17,-1
 186 142 l 2,18,19
 186 195 186 195 174 216 c 0,20,21
 158 244 158 244 110 257 c 1,22,23
 154 270 154 270 171 298 c 0,24,25
 186 322 186 322 186 370 c 2,26,-1
 186 545 l 2,27,28
 186 625 186 625 225 656 c 0,29,30
 259 683 259 683 341 682 c 1,0,1
EndSplineSet
EndChar

StartChar: bar
Encoding: 124 124 95
Width: 464
Flags: W
LayerCount: 2
Fore
SplineSet
342 514 m 1,0,-1
 387 468 l 1,1,-1
 387 -15 l 1,2,-1
 342 30 l 1,3,-1
 342 514 l 1,0,-1
EndSplineSet
EndChar

StartChar: braceright
Encoding: 125 125 96
Width: 480
Flags: W
LayerCount: 2
Fore
SplineSet
370 257 m 1,0,1
 323 244 323 244 307 217 c 0,2,3
 294 194 294 194 294 142 c 2,4,-1
 294 -17 l 2,5,6
 294 -103 294 -103 260 -135 c 128,-1,7
 226 -167 226 -167 139 -165 c 1,8,9
 222 -147 222 -147 222 -43 c 2,10,-1
 222 121 l 2,11,12
 222 181 222 181 234 206 c 0,13,14
 252 243 252 243 303 257 c 1,15,16
 254 270 254 270 236 303 c 0,17,18
 222 330 222 330 222 385 c 2,19,-1
 222 559 l 2,20,21
 222 660 222 660 139 682 c 1,22,-1
 168 682 l 2,23,24
 294 682 294 682 294 545 c 2,25,-1
 294 370 l 2,26,27
 294 322 294 322 310 296 c 128,-1,28
 326 270 326 270 370 257 c 1,0,1
EndSplineSet
EndChar

StartChar: asciitilde
Encoding: 126 126 97
Width: 0
Flags: W
LayerCount: 2
Fore
SplineSet
74 -230 m 1,0,-1
 -65 -109 l 1,1,2
 -88 -126 -88 -126 -119 -134 c 0,3,4
 -147 -141 -147 -141 -172 -134 c 0,5,6
 -239 -115 -239 -115 -239 -56 c 0,7,8
 -239 -41 -239 -41 -232 -25 c 0,9,10
 -214 17 -214 17 -167 29 c 0,11,12
 -140 36 -140 36 -112 28 c 1,13,-1
 -109 87 l 1,14,15
 -73 61 -73 61 -73 6 c 0,16,17
 -73 -9 -73 -9 -80 -9 c 1,18,19
 -93 -3 -93 -3 -109 -3 c 0,20,21
 -137 -3 -137 -3 -174 -23 c 0,22,23
 -193 -33 -193 -33 -196 -64 c 0,24,25
 -196 -73 -196 -73 -190 -77 c 0,26,27
 -167 -92 -167 -92 -125 -82 c 0,28,29
 -95 -75 -95 -75 -71 -60 c 1,30,-1
 69 -178 l 1,31,32
 76 -213 76 -213 76 -211 c 1,33,34
 76 -219 76 -219 74 -230 c 1,0,-1
EndSplineSet
EndChar

StartChar: quotesinglbase
Encoding: 8218 8218 98
Width: 0
Flags: W
LayerCount: 2
Fore
SplineSet
-57 -230 m 1,0,-1
 -196 -109 l 1,1,2
 -219 -126 -219 -126 -250 -134 c 0,3,4
 -278 -141 -278 -141 -303 -134 c 0,5,6
 -370 -115 -370 -115 -370 -56 c 0,7,8
 -370 -41 -370 -41 -363 -25 c 0,9,10
 -345 17 -345 17 -298 29 c 0,11,12
 -271 36 -271 36 -243 28 c 1,13,-1
 -240 87 l 1,14,15
 -204 61 -204 61 -204 6 c 0,16,17
 -204 -9 -204 -9 -211 -9 c 1,18,19
 -224 -3 -224 -3 -240 -3 c 0,20,21
 -268 -3 -268 -3 -305 -23 c 0,22,23
 -324 -33 -324 -33 -327 -64 c 0,24,25
 -327 -73 -327 -73 -321 -77 c 0,26,27
 -298 -92 -298 -92 -256 -82 c 0,28,29
 -226 -75 -226 -75 -202 -60 c 1,30,-1
 -62 -178 l 1,31,32
 -55 -213 -55 -213 -55 -211 c 1,33,34
 -55 -219 -55 -219 -57 -230 c 1,0,-1
EndSplineSet
EndChar

StartChar: florin
Encoding: 402 402 99
Width: 114
Flags: W
LayerCount: 2
Fore
SplineSet
167 508 m 1,0,-1
 -14 508 l 1,1,-1
 -65 558 l 1,2,-1
 116 558 l 1,3,-1
 167 508 l 1,0,-1
75 -15 m 1,4,-1
 17 22 l 1,5,6
 9 69 9 69 5 126 c 0,7,8
 3 154 3 154 6 245 c 0,9,10
 8 306 8 306 -2 306 c 0,11,12
 -13 306 -13 306 -48.5 290 c 128,-1,13
 -84 274 -84 274 -93 274 c 0,14,15
 -95 274 -95 274 -95 275 c 2,16,-1
 -95 349 l 1,17,-1
 -13 378 l 1,18,19
 -7 379 -7 379 -2 379 c 0,20,21
 4 379 4 379 6 378 c 0,22,23
 37 362 37 362 51 338 c 0,24,25
 55 331 55 331 62 311 c 1,26,27
 62 303 62 303 58 269 c 0,28,29
 49 194 49 194 49 166 c 0,30,31
 49 90 49 90 75 -15 c 1,4,-1
EndSplineSet
EndChar

StartChar: quotedblbase
Encoding: 8222 8222 100
Width: 0
Flags: W
LayerCount: 2
Fore
SplineSet
-24 -273 m 1,0,1
 -36 -255 -36 -255 -84 -217 c 0,2,3
 -106 -199 -106 -199 -223 -128 c 2,4,-1
 -277 -95 l 1,5,-1
 -132 11 l 1,6,-1
 -114 61 l 1,7,-1
 -73 -20 l 1,8,-1
 -183 -98 l 1,9,10
 -133 -132 -133 -132 -51 -196 c 1,11,12
 -28 -218 -28 -218 -27 -236 c 2,13,-1
 -24 -273 l 1,0,1
EndSplineSet
EndChar

StartChar: ellipsis
Encoding: 8230 8230 101
Width: 0
Flags: W
LayerCount: 2
Fore
SplineSet
-142 -287 m 1,0,1
 -151 -273 -151 -273 -200 -237 c 0,2,3
 -231 -214 -231 -214 -346 -147 c 2,4,-1
 -399 -116 l 1,5,-1
 -253 -9 l 1,6,-1
 -235 41 l 1,7,-1
 -194 -40 l 1,8,-1
 -307 -120 l 1,9,10
 -284 -134 -284 -134 -248 -161 c 2,11,-1
 -206 -193 l 2,12,13
 -203 -195 -203 -195 -171 -217 c 1,14,15
 -152 -234 -152 -234 -149 -251 c 2,16,-1
 -142 -287 l 1,0,1
EndSplineSet
EndChar

StartChar: dagger
Encoding: 8224 8224 102
Width: 298
Flags: W
LayerCount: 2
Fore
SplineSet
306 508 m 1,0,1
 233 501 233 501 175 441 c 0,2,3
 121 386 121 386 104 311 c 0,4,5
 94 267 94 267 94 229 c 0,6,7
 94 202 94 202 105 158 c 0,8,9
 131 53 131 53 210 53 c 0,10,11
 214 53 214 53 212 55 c 0,12,13
 189 68 189 68 183 99 c 1,14,15
 183 132 183 132 204 149 c 0,16,17
 215 158 215 158 249 158 c 1,18,19
 269 160 269 160 286 140 c 128,-1,20
 303 120 303 120 303 99 c 0,21,22
 303 63 303 63 277.5 38 c 128,-1,23
 252 13 252 13 216 13 c 0,24,25
 169 13 169 13 139 38 c 0,26,27
 45 115 45 115 45 259 c 0,28,29
 45 281 45 281 48 309 c 0,30,31
 60 425 60 425 147 507 c 0,32,33
 201 558 201 558 256 558 c 1,34,-1
 306 508 l 1,0,1
EndSplineSet
EndChar

StartChar: daggerdbl
Encoding: 8225 8225 103
Width: 295
Flags: W
LayerCount: 2
Fore
SplineSet
344 509 m 1,0,1
 308 508 308 508 262.5 490 c 128,-1,2
 217 472 217 472 189 449 c 0,3,4
 114 387 114 387 101 285 c 0,5,6
 90 201 90 201 99 161 c 0,7,8
 114 94 114 94 176 55 c 0,9,10
 182 51 182 51 197 51 c 0,11,12
 211 51 211 51 209 55 c 1,13,14
 203 55 203 55 192 73 c 128,-1,15
 181 91 181 91 180 99 c 0,16,17
 174 135 174 135 212 156 c 0,18,19
 226 164 226 164 240 164 c 0,20,21
 258 164 258 164 268 153 c 1,22,23
 300 137 300 137 300 98 c 0,24,25
 300 63 300 63 273.5 39.5 c 128,-1,26
 247 16 247 16 211 16 c 0,27,28
 164 16 164 16 135 40 c 0,29,30
 70 94 70 94 51 184 c 0,31,32
 43 222 43 222 43 258 c 0,33,34
 43 389 43 389 144 508 c 1,35,-1
 -7 508 l 1,36,-1
 -57 558 l 1,37,-1
 295 558 l 1,38,-1
 344 509 l 1,0,1
EndSplineSet
EndChar

StartChar: circumflex
Encoding: 710 710 104
Width: 263
Flags: W
LayerCount: 2
Fore
SplineSet
279 508 m 1,0,1
 258 508 258 508 239 500 c 0,2,3
 162 467 162 467 128 433 c 0,4,5
 86 391 86 391 69 310 c 0,6,7
 59 262 59 262 59 227 c 0,8,9
 59 198 59 198 65 175 c 0,10,11
 66 172 66 172 72 154 c 0,12,13
 103 58 103 58 180 53 c 1,14,15
 168 53 168 53 148 101 c 1,16,17
 148 131 148 131 170 150 c 0,18,19
 181 160 181 160 216 158 c 0,20,21
 242 157 242 157 260 126 c 0,22,23
 270 108 270 108 271 92 c 0,24,25
 271 78 271 78 262 62 c 1,26,27
 229 29 229 29 186 26 c 0,28,29
 181 25 181 25 175 25 c 0,30,31
 147 25 147 25 114.5 44.5 c 128,-1,32
 82 64 82 64 64 88 c 0,33,34
 12 159 12 159 12 258 c 0,35,36
 12 284 12 284 15 309 c 0,37,38
 27 406 27 406 91 478 c 1,39,40
 91 478 91 478 147 538 c 1,41,42
 182 569 182 569 182 584 c 0,43,44
 182 587 182 587 181 589 c 1,45,46
 182 593 182 593 182 597 c 0,47,48
 182 615 182 615 155 624 c 0,49,50
 132 632 132 632 113 629 c 0,51,52
 109 629 109 629 102 627.5 c 128,-1,53
 95 626 95 626 92 626 c 0,54,55
 48 624 48 624 24 628 c 0,56,57
 -14 634 -14 634 -40 659.5 c 128,-1,58
 -66 685 -66 685 -67 722 c 1,59,60
 -56 750 -56 750 -43 777 c 1,61,-1
 -26 760 l 1,62,63
 -43 751 -43 751 -43 731 c 0,64,65
 -43 697 -43 697 -3 693 c 1,66,67
 -22 693 -22 693 49 695 c 0,68,69
 54 695 54 695 66.5 696.5 c 128,-1,70
 79 698 79 698 85 698 c 0,71,72
 131 696 131 696 161 681 c 0,73,74
 218 652 218 652 228 609 c 0,75,76
 232 591 232 591 230 558 c 1,77,-1
 279 508 l 1,0,1
EndSplineSet
EndChar

StartChar: perthousand
Encoding: 8240 8240 105
Width: 289
Flags: W
LayerCount: 2
Fore
SplineSet
343 508 m 1,0,1
 338 511 338 511 308 511 c 0,2,3
 293 511 293 511 232 497 c 1,4,5
 163 461 163 461 134 429 c 0,6,7
 98 389 98 389 78 310 c 0,8,9
 65 259 65 259 65 215 c 0,10,11
 65 172 65 172 79 134 c 0,12,13
 96 87 96 87 128.5 71 c 128,-1,14
 161 55 161 55 173 58 c 1,15,16
 153 87 153 87 153 109 c 0,17,18
 153 128 153 128 177 149 c 0,19,20
 189 159 189 159 223 158 c 0,21,22
 248 157 248 157 265 136.5 c 128,-1,23
 282 116 282 116 282 91 c 0,24,25
 282 58 282 58 253 35 c 128,-1,26
 224 12 224 12 190 12 c 0,27,28
 144 12 144 12 111 39 c 0,29,30
 20 114 20 114 20 260 c 0,31,32
 20 288 20 288 22 309 c 0,33,34
 31 402 31 402 122 508 c 1,35,-1
 -5 508 l 1,36,-1
 -54 558 l 1,37,-1
 176 558 l 1,38,39
 181 563 181 563 189 572 c 1,40,41
 190 577 190 577 189 583 c 0,42,43
 182 617 182 617 147 622 c 0,44,45
 92 630 92 630 38 637 c 1,46,47
 -25 653 -25 653 -48 697 c 0,48,49
 -57 714 -57 714 -57 731 c 1,50,51
 -47 755 -47 755 -36 778 c 1,52,-1
 -19 761 l 1,53,54
 -31 755 -31 755 -31 739 c 0,55,56
 -31 713 -31 713 -13 707 c 1,57,58
 -5 702 -5 702 1 700 c 0,59,60
 16 695 16 695 56 696 c 0,61,62
 202 700 202 700 234 614 c 0,63,64
 242 592 242 592 240 558 c 1,65,-1
 294 558 l 1,66,-1
 343 508 l 1,0,1
EndSplineSet
EndChar

StartChar: Scaron
Encoding: 352 352 106
Width: 219
Flags: W
LayerCount: 2
Fore
SplineSet
272 508 m 1,0,-1
 133 508 l 1,1,-1
 133 -15 l 1,2,-1
 78 39 l 1,3,-1
 78 508 l 1,4,-1
 -4 508 l 1,5,-1
 -54 558 l 1,6,-1
 78 558 l 1,7,8
 90 571 90 571 90 589 c 0,9,10
 90 625 90 625 51 634 c 0,11,12
 37 637 37 637 -17 636 c 0,13,14
 -112 634 -112 634 -132 636 c 0,15,16
 -251 648 -251 648 -268 727 c 0,17,18
 -270 735 -270 735 -256 775 c 128,-1,19
 -242 815 -242 815 -240 814 c 2,20,-1
 -218 795 l 1,21,22
 -238 781 -238 781 -237 760 c 0,23,24
 -237 751 -237 751 -232 733 c 0,25,26
 -224 701 -224 701 -162 701 c 1,27,28
 -168 701 -168 701 -166 701 c 0,29,30
 -163 702 -163 702 -154 702 c 2,31,-1
 -94 703 l 2,32,33
 -81 703 -81 703 -52 705 c 0,34,35
 -26 707 -26 707 -11 707 c 0,36,37
 138 707 138 707 138 590 c 0,38,39
 138 575 138 575 135 558 c 1,40,-1
 221 558 l 1,41,-1
 272 508 l 1,0,-1
EndSplineSet
EndChar

StartChar: guilsinglleft
Encoding: 8249 8249 107
Width: 100
Flags: W
LayerCount: 2
Fore
SplineSet
-144 119 m 1,0,-1
 -144 305 l 1,1,2
 -167 298 -167 298 -219 267 c 0,3,4
 -239 255 -239 255 -275 224 c 1,5,-1
 -235 202 l 2,6,7
 -223 196 -223 196 -204 179 c 0,8,9
 -168 148 -168 148 -144 119 c 1,0,-1
-99 371 m 0,10,11
 -89 372 -89 372 -53 357 c 0,12,13
 36 321 36 321 52 245 c 0,14,15
 56 226 56 226 56 210 c 0,16,17
 56 178 56 178 38 153 c 0,18,19
 18 125 18 125 -13 125 c 0,20,21
 -31 125 -31 125 -44 138.5 c 128,-1,22
 -57 152 -57 152 -57 170 c 0,23,24
 -58 194 -58 194 -36 212 c 1,25,26
 -22 217 -22 217 -10 217 c 0,27,28
 1 217 1 217 17 206 c 1,29,30
 20 206 20 206 20 218 c 0,31,32
 19 245 19 245 -3 269 c 0,33,34
 -37 305 -37 305 -81 305 c 0,35,36
 -90 305 -90 305 -98 303 c 1,37,-1
 -98 -21 l 1,38,-1
 -121 1 l 1,39,-1
 -140 48 l 2,40,41
 -187 164 -187 164 -331 164 c 1,42,-1
 -379 235 l 1,43,44
 -344 261 -344 261 -275 309 c 1,45,46
 -235 330 -235 330 -172 364 c 1,47,48
 -167 365 -167 365 -99 371 c 0,10,11
-35 508 m 1,49,-1
 -84 558 l 1,50,-1
 96 558 l 1,51,-1
 145 508 l 1,52,-1
 -35 508 l 1,49,-1
EndSplineSet
EndChar

StartChar: OE
Encoding: 338 338 108
Width: 100
Flags: W
LayerCount: 2
Fore
SplineSet
-126 282 m 1,0,1
 -114 299 -114 299 -84.5 313 c 128,-1,2
 -55 327 -55 327 -33 327 c 0,3,4
 -20 327 -20 327 -9 322 c 0,5,6
 30 304 30 304 39 264 c 0,7,8
 44 239 44 239 37 209 c 0,9,10
 23 152 23 152 -35 153 c 0,11,12
 -77 154 -77 154 -85 193 c 0,13,14
 -87 198 -87 198 -87 203 c 0,15,16
 -87 247 -87 247 -27 247 c 0,17,18
 -5 247 -5 247 -8 244 c 1,19,20
 -9 259 -9 259 -21.5 270 c 128,-1,21
 -34 281 -34 281 -49 281 c 0,22,23
 -74 281 -74 281 -106 251 c 0,24,25
 -130 229 -130 229 -130 175 c 0,26,27
 -130 169 -130 169 -129 163 c 1,28,-1
 -129 -40 l 1,29,30
 -134 -37 -134 -37 -149 -26 c 1,31,32
 -164 15 -164 15 -170 24 c 0,33,34
 -182 43 -182 43 -208 52 c 1,35,36
 -217 53 -217 53 -229 53 c 0,37,38
 -253 53 -253 53 -315 45 c 0,39,40
 -369 38 -369 38 -386 40 c 0,41,42
 -466 49 -466 49 -493 125 c 1,43,44
 -511 160 -511 160 -505 217 c 0,45,46
 -503 241 -503 241 -479 287 c 1,47,48
 -481 285 -481 285 -458 278 c 1,49,50
 -457 274 -457 274 -463 246 c 0,51,52
 -473 198 -473 198 -470 188 c 0,53,54
 -446 113 -446 113 -384 113 c 0,55,56
 -326 113 -326 113 -293 115 c 0,57,58
 -244 118 -244 118 -215 102 c 1,59,60
 -199 90 -199 90 -183 79 c 0,61,62
 -180 76 -180 76 -180 89 c 2,63,-1
 -180 282 l 2,64,65
 -180 319 -180 319 -182 325 c 0,66,67
 -186 337 -186 337 -211 337 c 0,68,69
 -241 337 -241 337 -278 289 c 0,70,71
 -282 284 -282 284 -290 254 c 1,72,73
 -280 256 -280 256 -272 256 c 0,74,75
 -227 256 -227 256 -227 212 c 0,76,77
 -227 198 -227 198 -237 182.5 c 128,-1,78
 -247 167 -247 167 -259 161.5 c 128,-1,79
 -271 156 -271 156 -284 156 c 0,80,81
 -299 156 -299 156 -327 170.5 c 128,-1,82
 -355 185 -355 185 -356 198 c 1,83,84
 -355 200 -355 200 -360 210 c 1,85,86
 -367 230 -367 230 -359 271 c 0,87,88
 -346 336 -346 336 -276 367 c 0,89,90
 -231 387 -231 387 -203 387 c 0,91,92
 -177 387 -177 387 -154 368.5 c 128,-1,93
 -131 350 -131 350 -129 324.5 c 128,-1,94
 -127 299 -127 299 -126 282 c 1,0,1
-35 508 m 1,95,-1
 -84 558 l 1,96,-1
 96 558 l 1,97,-1
 145 508 l 1,98,-1
 -35 508 l 1,95,-1
EndSplineSet
EndChar

StartChar: quoteleft
Encoding: 8216 8216 109
Width: 1
Flags: W
LayerCount: 2
Fore
SplineSet
-93 284 m 0,0,1
 -89 270 -89 270 -89 255 c 0,2,3
 -89 233 -89 233 -102.5 212.5 c 128,-1,4
 -116 192 -116 192 -137 188 c 1,5,6
 -80 164 -80 164 -80 101 c 0,7,8
 -80 47 -80 47 -117.5 16.5 c 128,-1,9
 -155 -14 -155 -14 -210 -14 c 0,10,11
 -223 -14 -223 -14 -249 -12 c 0,12,13
 -301 -8 -301 -8 -329 6 c 0,14,15
 -401 42 -401 42 -451 97 c 0,16,17
 -521 174 -521 174 -562 325 c 1,18,-1
 -524 305 l 1,19,20
 -523 301 -523 301 -508 261 c 0,21,22
 -456 120 -456 120 -303 72 c 0,23,24
 -249 55 -249 55 -212 55 c 0,25,26
 -141 55 -141 55 -129 119 c 0,27,28
 -128 126 -128 126 -129 133 c 0,29,30
 -132 148 -132 148 -150 155 c 1,31,32
 -177 128 -177 128 -209 128 c 0,33,34
 -236 128 -236 128 -252 146.5 c 128,-1,35
 -268 165 -268 165 -268 192 c 256,36,37
 -268 219 -268 219 -249.5 241.5 c 128,-1,38
 -231 264 -231 264 -205 264 c 0,39,40
 -188 264 -188 264 -169 251 c 1,41,42
 -148 261 -148 261 -148 274 c 0,43,44
 -148 302 -148 302 -228 302 c 0,45,46
 -286 302 -286 302 -309 264 c 1,47,48
 -283 249 -283 249 -283 204 c 0,49,50
 -283 150 -283 150 -342 150 c 0,51,52
 -412 150 -412 150 -412 227 c 0,53,54
 -412 254 -412 254 -401 273 c 0,55,56
 -358 347 -358 347 -257 353 c 0,57,58
 -220 355 -220 355 -166 338 c 0,59,60
 -103 318 -103 318 -93 284 c 0,0,1
EndSplineSet
EndChar

StartChar: quoteright
Encoding: 8217 8217 110
Width: 1
Flags: W
LayerCount: 2
Fore
SplineSet
-67 242 m 0,0,1
 -65 232 -65 232 -65 217 c 0,2,3
 -65 130 -65 130 -204 65 c 0,4,5
 -206 64 -206 64 -199.5 61.5 c 128,-1,6
 -193 59 -193 59 -184 52 c 1,7,8
 -100 3 -100 3 -28 -68 c 2,9,-1
 19 -114 l 1,10,-1
 26 -159 l 1,11,12
 -51 -82 -51 -82 -165 -19 c 0,13,14
 -229 16 -229 16 -321 44 c 2,15,-1
 -371 59 l 1,16,-1
 -421 178 l 1,17,18
 -366 139 -366 139 -277 139 c 0,19,20
 -218 139 -218 139 -185 160 c 0,21,22
 -131 194 -131 194 -126 237 c 0,23,24
 -122 270 -122 270 -139 290 c 0,25,26
 -147 299 -147 299 -167 299 c 0,27,28
 -189 299 -189 299 -201 289 c 1,29,30
 -198 244 -198 244 -254 205 c 0,31,32
 -272 192 -272 192 -298 192 c 0,33,34
 -325 192 -325 192 -345 207.5 c 128,-1,35
 -365 223 -365 223 -362 249 c 0,36,37
 -360 272 -360 272 -332 307 c 0,38,39
 -317 326 -317 326 -242 349 c 1,40,41
 -221 352 -221 352 -202 352 c 0,42,43
 -90 352 -90 352 -67 242 c 0,0,1
EndSplineSet
EndChar

StartChar: quotedblleft
Encoding: 8220 8220 111
Width: 650
Flags: W
LayerCount: 2
Fore
SplineSet
699 508 m 1,0,-1
 295 508 l 2,1,2
 249 508 249 508 217 532 c 0,3,4
 182 558 182 558 182 603 c 0,5,6
 182 638 182 638 206.5 665 c 128,-1,7
 231 692 231 692 266 692 c 0,8,9
 302 692 302 692 326 664 c 1,10,-1
 347 598 l 1,11,12
 337 611 337 611 312 629 c 0,13,14
 283 650 283 650 273 650 c 0,15,16
 254 650 254 650 242.5 637.5 c 128,-1,17
 231 625 231 625 231 606 c 0,18,19
 231 559 231 559 306 559 c 2,20,-1
 652 559 l 1,21,-1
 699 508 l 1,0,-1
702 421 m 1,22,23
 729 420 729 420 149 420 c 0,24,25
 103 420 103 420 71 444 c 0,26,27
 36 470 36 470 36 514 c 0,28,29
 36 550 36 550 60 577 c 128,-1,30
 84 604 84 604 120 604 c 0,31,32
 154 604 154 604 171 576 c 1,33,-1
 181 503 l 1,34,35
 174 515 174 515 156 537 c 0,36,37
 134 563 134 563 127 563 c 0,38,39
 110 563 110 563 97.5 549.5 c 128,-1,40
 85 536 85 536 85 519 c 0,41,42
 85 472 85 472 160 472 c 2,43,-1
 648 471 l 1,44,-1
 702 421 l 1,22,23
EndSplineSet
EndChar

StartChar: quotedblright
Encoding: 8221 8221 112
Width: 268
Flags: W
LayerCount: 2
Fore
SplineSet
321 508 m 1,0,-1
 119 508 l 1,1,2
 126 491 126 491 133 466 c 1,3,4
 145 448 145 448 181 422 c 0,5,6
 202 407 202 407 247 393 c 0,7,8
 305 375 305 375 320 368 c 0,9,10
 364 347 364 347 364 300 c 0,11,12
 364 240 364 240 326 183 c 0,13,14
 236 48 236 48 154 48 c 0,15,16
 127 48 127 48 99 81 c 128,-1,17
 71 114 71 114 71 142 c 2,18,-1
 71 508 l 1,19,-1
 -1 508 l 1,20,-1
 -50 558 l 1,21,-1
 270 558 l 1,22,-1
 321 508 l 1,0,-1
285 302 m 1,23,24
 263 309 263 309 224 327 c 1,25,26
 150 373 150 373 120 426 c 1,27,-1
 120 143 l 2,28,29
 120 115 120 115 140 115 c 0,30,31
 180 115 180 115 253 201 c 0,32,33
 287 241 287 241 287 281 c 0,34,35
 287 292 287 292 285 302 c 1,23,24
EndSplineSet
EndChar

StartChar: bullet
Encoding: 8226 8226 113
Width: 270
Flags: W
LayerCount: 2
Fore
SplineSet
259 114 m 0,0,1
 171 114 171 114 72 242 c 0,2,3
 51 270 51 270 29 341 c 0,4,5
 18 376 18 376 15 402 c 2,6,-1
 6 470 l 1,7,-1
 32 450 l 1,8,9
 39 414 39 414 51 378 c 0,10,11
 97 242 97 242 217 177 c 0,12,13
 235 167 235 167 256 167 c 0,14,15
 314 167 314 167 340 227 c 0,16,17
 348 245 348 245 336 273 c 0,18,19
 327 296 327 296 311 314 c 1,20,21
 297 294 297 294 266 269 c 0,22,23
 251 257 251 257 223 257 c 0,24,25
 180 257 180 257 153 284.5 c 128,-1,26
 126 312 126 312 126 355 c 0,27,28
 125 416 125 416 142 460 c 0,29,30
 149 480 149 480 164 508 c 1,31,-1
 -3 508 l 1,32,-1
 -52 558 l 1,33,-1
 271 558 l 2,34,35
 355 558 355 558 370 518 c 0,36,37
 379 493 379 493 370 466 c 0,38,39
 354 418 354 418 286 418 c 0,40,41
 226 418 226 418 204 450 c 1,42,43
 186 408 186 408 181 392 c 0,44,45
 169 355 169 355 175 328 c 256,46,47
 181 301 181 301 201 301 c 256,48,49
 221 301 221 301 253 325 c 0,50,51
 267 336 267 336 287 375 c 1,52,53
 360 348 360 348 375 278 c 0,54,55
 380 255 380 255 380 235 c 0,56,57
 380 183 380 183 345.5 148.5 c 128,-1,58
 311 114 311 114 259 114 c 0,0,1
220 470 m 0,59,60
 220 455 220 455 259 450 c 1,61,62
 328 448 328 448 328 481 c 256,63,64
 328 514 328 514 289 514 c 0,65,66
 271 514 271 514 247 501 c 0,67,68
 219 486 219 486 220 470 c 0,59,60
EndSplineSet
EndChar

StartChar: endash
Encoding: 8211 8211 114
Width: 1
Flags: W
LayerCount: 2
Fore
SplineSet
-41 -305 m 0,0,1
 -40 -306 -40 -306 -41 -310 c 0,2,3
 -43 -315 -43 -315 -47 -315 c 0,4,5
 -50 -315 -50 -315 -53 -311 c 0,6,7
 -76 -279 -76 -279 -150 -248 c 0,8,9
 -208 -224 -208 -224 -213 -224 c 0,10,11
 -215 -224 -215 -224 -216 -225 c 0,12,13
 -230 -248 -230 -248 -260.5 -264.5 c 128,-1,14
 -291 -281 -291 -281 -317 -279 c 1,15,16
 -351 -281 -351 -281 -376 -267 c 0,17,18
 -406 -251 -406 -251 -410 -219 c 0,19,20
 -415 -180 -415 -180 -388.5 -155 c 128,-1,21
 -362 -130 -362 -130 -322 -130 c 0,22,23
 -293 -130 -293 -130 -250 -157 c 0,24,25
 -246 -159 -246 -159 -243 -159 c 0,26,27
 -235 -159 -235 -159 -237 -131 c 1,28,29
 -243 -117 -243 -117 -247 -95 c 1,30,31
 -246 -93 -246 -93 -243 -93 c 0,32,33
 -227 -93 -227 -93 -214 -112 c 128,-1,34
 -201 -131 -201 -131 -199 -149 c 1,35,36
 -200 -166 -200 -166 -200 -182 c 1,37,38
 -193 -201 -193 -201 -161 -212 c 0,39,40
 -120 -226 -120 -226 -106 -232 c 1,41,42
 -50 -264 -50 -264 -41 -305 c 0,0,1
-261 -197 m 1,43,44
 -275 -177 -275 -177 -323 -179 c 0,45,46
 -367 -181 -367 -181 -367 -204 c 0,47,48
 -367 -208 -367 -208 -365 -214 c 128,-1,49
 -363 -220 -363 -220 -342 -226 c 0,50,51
 -324 -231 -324 -231 -313 -231 c 0,52,53
 -299 -231 -299 -231 -277.5 -220.5 c 128,-1,54
 -256 -210 -256 -210 -261 -197 c 1,43,44
EndSplineSet
EndChar

StartChar: emdash
Encoding: 8212 8212 115
Width: 381
Flags: W
LayerCount: 2
Fore
SplineSet
486 508 m 1,0,-1
 249 508 l 1,1,-1
 249 376 l 2,2,3
 249 308 249 308 262 308 c 1,4,5
 311 319 311 319 366 392 c 0,6,7
 390 424 390 424 396 424 c 0,8,9
 401 424 401 424 405 419 c 1,10,11
 485 351 485 351 485 247 c 0,12,13
 485 131 485 131 407 76 c 0,14,15
 362 44 362 44 299 44 c 0,16,17
 209 44 209 44 156 103 c 0,18,19
 130 132 130 132 85 221 c 0,20,21
 47 296 47 296 34 406 c 0,22,23
 33 418 33 418 27 481 c 1,24,-1
 57 465 l 1,25,26
 63 388 63 388 93 312 c 0,27,28
 161 139 161 139 288 139 c 0,29,30
 327 139 327 139 366 159 c 128,-1,31
 405 179 405 179 423 211 c 128,-1,32
 441 243 441 243 443 263 c 0,33,34
 447 298 447 298 419 332 c 1,35,36
 413 312 413 312 338 256 c 0,37,38
 308 234 308 234 280 234 c 0,39,40
 223 234 223 234 203 309 c 0,41,42
 200 320 200 320 200 356 c 2,43,-1
 200 508 l 1,44,-1
 1 508 l 1,45,-1
 -50 558 l 1,46,-1
 435 558 l 1,47,-1
 486 508 l 1,0,-1
341 -81 m 0,48,49
 325 -114 325 -114 292 -114 c 0,50,51
 244 -114 244 -114 234 -69 c 0,52,53
 229 -48 229 -48 240 -27 c 0,54,55
 257 6 257 6 290 6 c 0,56,57
 337 6 337 6 347 -39 c 0,58,59
 351 -60 351 -60 341 -81 c 0,48,49
EndSplineSet
EndChar

StartChar: tilde
Encoding: 732 732 116
Width: 289
Flags: W
LayerCount: 2
Fore
SplineSet
416 382 m 1,0,-1
 391 329 l 2,1,2
 361 265 361 265 357 217 c 1,3,4
 346 182 346 182 350 133 c 2,5,-1
 355 64 l 2,6,7
 357 40 357 40 367 -6 c 1,8,-1
 333 11 l 1,9,-1
 320 71 l 2,10,11
 303 149 303 149 303 202 c 0,12,13
 303 274 303 274 319 347 c 1,14,15
 259 325 259 325 221 292 c 0,16,17
 143 224 143 224 118 153 c 1,18,-1
 51 222 l 1,19,-1
 51 508 l 1,20,-1
 0 508 l 1,21,-1
 -51 558 l 1,22,-1
 294 558 l 1,23,-1
 345 508 l 1,24,-1
 105 508 l 1,25,-1
 105 297 l 1,26,27
 113 302 113 302 125 313 c 0,28,29
 218 404 218 404 329 447 c 1,30,-1
 416 382 l 1,0,-1
EndSplineSet
EndChar

StartChar: trademark
Encoding: 8482 8482 117
Width: 493
Flags: W
LayerCount: 2
Fore
SplineSet
547 508 m 1,0,-1
 206 508 l 1,1,-1
 206 373 l 1,2,3
 233 392 233 392 280 429 c 0,4,5
 290 437 290 437 321 460 c 1,6,7
 327 463 327 463 347 471 c 1,8,-1
 391 441 l 1,9,-1
 441 404 l 1,10,11
 426 391 426 391 403 361 c 1,12,13
 383 311 383 311 382 264 c 0,14,15
 382 253 382 253 387 236 c 1,16,17
 377 233 377 233 360 230 c 1,18,19
 351 230 351 230 343 231 c 1,20,-1
 339 276 l 1,21,-1
 339 357 l 2,22,23
 339 369 339 369 344 389 c 1,24,25
 301 374 301 374 279 354 c 2,26,-1
 239 318 l 2,27,28
 219 300 219 300 210 279 c 1,29,-1
 159 340 l 1,30,-1
 159 508 l 1,31,-1
 -3 508 l 1,32,-1
 -53 558 l 1,33,-1
 498 558 l 1,34,-1
 547 508 l 1,0,-1
EndSplineSet
EndChar

StartChar: scaron
Encoding: 353 353 118
Width: 543
Flags: W
LayerCount: 2
Fore
SplineSet
401 322 m 1,0,1
 328 335 328 335 331 347 c 1,2,3
 320 352 320 352 289 381 c 1,4,5
 245 413 245 413 221 415 c 1,6,-1
 219 411 l 1,7,8
 237 394 237 394 237 375 c 0,9,10
 236 352 236 352 219 330 c 128,-1,11
 202 308 202 308 179 308 c 0,12,13
 143 308 143 308 121 340 c 0,14,15
 106 361 106 361 114 394 c 0,16,17
 129 462 129 462 201 462 c 0,18,19
 243 462 243 462 282 437 c 0,20,21
 352 392 352 392 355 378 c 1,22,23
 384 389 384 389 394.5 405 c 128,-1,24
 405 421 405 421 405 452 c 0,25,26
 405 470 405 470 390 495 c 0,27,28
 382 508 382 508 361 508 c 2,29,-1
 -4 508 l 1,30,-1
 -56 558 l 1,31,-1
 545 558 l 1,32,-1
 596 508 l 1,33,-1
 429 508 l 2,34,35
 434 508 434 508 445 477 c 0,36,37
 462 428 462 428 462 415 c 0,38,39
 462 385 462 385 432 354 c 0,40,41
 424 346 424 346 401 322 c 1,0,1
EndSplineSet
EndChar

StartChar: guilsinglright
Encoding: 8250 8250 119
Width: 200
Flags: W
LayerCount: 2
Fore
SplineSet
311 508 m 1,0,-1
 298 508 l 1,1,-1
 298 176 l 1,2,-1
 251 225 l 1,3,-1
 251 274 l 1,4,5
 250 285 250 285 243 307 c 1,6,7
 231 321 231 321 226 328 c 0,8,9
 198 368 198 368 163 368 c 0,10,11
 156 368 156 368 152 367 c 1,12,13
 153 365 153 365 154 364 c 0,14,15
 172 353 172 353 172 329 c 0,16,17
 172 306 172 306 152.5 291 c 128,-1,18
 133 276 133 276 109 276 c 0,19,20
 42 276 42 276 42 341 c 0,21,22
 42 381 42 381 70.5 408 c 128,-1,23
 99 435 99 435 139 435 c 0,24,25
 178 435 178 435 206 409 c 0,26,27
 250 369 250 369 253 338 c 1,28,-1
 253 508 l 1,29,-1
 -2 508 l 1,30,-1
 -51 558 l 1,31,-1
 260 558 l 1,32,-1
 311 508 l 1,0,-1
EndSplineSet
EndChar

StartChar: oe
Encoding: 339 339 120
Width: 1
Flags: W
LayerCount: 2
Fore
SplineSet
-82 -138 m 1,0,-1
 -108 -117 l 1,1,-1
 -108 -100 l 1,2,3
 -112 -84 -112 -84 -120 -65 c 1,4,5
 -135 7 -135 7 -203 56 c 0,6,7
 -248 88 -248 88 -291 88 c 0,8,9
 -298 88 -298 88 -311 84 c 1,10,11
 -283 60 -283 60 -277 31 c 0,12,13
 -270 -3 -270 -3 -285.5 -28 c 128,-1,14
 -301 -53 -301 -53 -335 -53 c 0,15,16
 -372 -53 -372 -53 -395.5 -31.5 c 128,-1,17
 -419 -10 -419 -10 -419 27 c 0,18,19
 -420 81 -420 81 -387 110.5 c 128,-1,20
 -354 140 -354 140 -299 140 c 0,21,22
 -216 140 -216 140 -150 45 c 0,23,24
 -134 22 -134 22 -127 -3 c 1,25,-1
 -127 155 l 1,26,-1
 -82 117 l 1,27,-1
 -82 -138 l 1,0,-1
EndSplineSet
EndChar

StartChar: glyph121
Encoding: 65539 -1 121
Width: 444
Flags: W
LayerCount: 2
Fore
SplineSet
492 508 m 1,0,-1
 369 508 l 1,1,-1
 369 -9 l 1,2,-1
 343 29 l 1,3,4
 299 138 299 138 212 189 c 0,5,6
 150 225 150 225 86 230 c 1,7,-1
 22 321 l 1,8,9
 95 373 95 373 145 399 c 0,10,11
 243 449 243 449 320 474 c 1,12,-1
 320 508 l 1,13,-1
 -3 508 l 1,14,-1
 -52 558 l 1,15,-1
 443 558 l 1,16,-1
 492 508 l 1,0,-1
320 131 m 1,17,-1
 320 394 l 1,18,19
 231 363 231 363 127 294 c 1,20,21
 256 238 256 238 320 131 c 1,17,-1
113 179 m 1,22,23
 176 179 176 179 242 116 c 0,24,25
 296 64 296 64 296 47 c 2,26,-1
 296 26 l 2,27,28
 296 24 296 24 269 52 c 0,29,30
 180 145 180 145 113 145 c 1,31,-1
 113 179 l 1,22,23
EndSplineSet
EndChar

StartChar: Ydieresis
Encoding: 376 376 122
Width: 305
Flags: W
LayerCount: 2
Fore
SplineSet
168 131 m 1,0,-1
 168 394 l 1,1,2
 112 374 112 374 58 345 c 0,3,4
 30 330 30 330 -25 294 c 1,5,6
 98 241 98 241 168 131 c 1,0,-1
350 508 m 1,7,-1
 217 508 l 1,8,-1
 217 -9 l 1,9,-1
 191 29 l 1,10,-1
 180 54 l 2,11,12
 128 173 128 173 0 219 c 0,13,14
 -30 230 -30 230 -66 230 c 1,15,-1
 -106 336 l 1,16,-1
 -58 370 l 2,17,18
 -44 380 -44 380 -7 399 c 0,19,20
 96 452 96 452 168 474 c 1,21,-1
 168 508 l 1,22,-1
 -8 508 l 1,23,-1
 -57 558 l 1,24,-1
 301 558 l 1,25,-1
 350 508 l 1,7,-1
EndSplineSet
EndChar

StartChar: exclamdown
Encoding: 161 161 123
Width: 1
Flags: W
LayerCount: 2
Fore
SplineSet
-268 -93 m 1,0,-1
 -268 57 l 1,1,2
 -285 47 -285 47 -320 28 c 1,3,4
 -337 14 -337 14 -374 -11 c 1,5,6
 -354 -15 -354 -15 -336 -30 c 0,7,8
 -293 -67 -293 -67 -268 -93 c 1,0,-1
-225 -181 m 1,9,-1
 -243 -169 l 1,10,-1
 -268 -131 l 1,11,12
 -274 -124 -274 -124 -283 -112 c 1,13,14
 -335 -63 -335 -63 -405 -63 c 1,15,-1
 -448 -3 l 1,16,-1
 -334 75 l 1,17,18
 -326 79 -326 79 -312 89 c 2,19,-1
 -267 121 l 2,20,21
 -264 123 -264 123 -250 105 c 0,22,23
 -229 78 -229 78 -225 81 c 1,24,-1
 -225 -181 l 1,9,-1
EndSplineSet
EndChar

StartChar: cent
Encoding: 162 162 124
Width: 1
Flags: W
LayerCount: 2
Fore
SplineSet
-83 202 m 0,0,1
 -82 195 -82 195 -82 180 c 0,2,3
 -83 118 -83 118 -122 72 c 128,-1,4
 -161 26 -161 26 -222 26 c 0,5,6
 -234 26 -234 26 -240 27 c 1,7,8
 -333 27 -333 27 -411 138 c 0,9,10
 -434 171 -434 171 -449 208 c 2,11,-1
 -479 282 l 2,12,13
 -521 383 -521 383 -521 488 c 1,14,-1
 -486 469 l 1,15,16
 -478 361 -478 361 -409 222 c 1,17,-1
 -384 185 l 2,18,19
 -346 129 -346 129 -287 105 c 0,20,21
 -275 100 -275 100 -255 100 c 0,22,23
 -213 100 -213 100 -199 111 c 1,24,-1
 -177 121 l 1,25,26
 -139 144 -139 144 -128 185 c 0,27,28
 -125 197 -125 197 -136 224 c 1,29,-1
 -138 222 l 1,30,31
 -154 200 -154 200 -187 182 c 0,32,33
 -243 152 -243 152 -268 152 c 0,34,35
 -299 152 -299 152 -331 181 c 0,36,37
 -351 199 -351 199 -351 223 c 1,38,39
 -350 229 -350 229 -350 232 c 0,40,41
 -341 286 -341 286 -296 284 c 0,42,43
 -269 283 -269 283 -254 247 c 0,44,45
 -251 240 -251 240 -251 234 c 0,46,47
 -251 224 -251 224 -258 211 c 1,48,49
 -236 216 -236 216 -177 256 c 0,50,51
 -158 269 -158 269 -132 294 c 1,52,53
 -109 273 -109 273 -101 259 c 0,54,55
 -89 238 -89 238 -83 202 c 0,0,1
EndSplineSet
EndChar

StartChar: sterling
Encoding: 163 163 125
Width: 1
Flags: W
LayerCount: 2
Fore
SplineSet
-128 289 m 1,0,-1
 -96 268 l 2,1,2
 -80 257 -80 257 -80 248 c 2,3,-1
 -80 -78 l 1,4,-1
 -99 -61 l 2,5,6
 -104 -56 -104 -56 -113.5 -37.5 c 128,-1,7
 -123 -19 -123 -19 -133 -13 c 0,8,9
 -160 5 -160 5 -188 5 c 0,10,11
 -202 5 -202 5 -231 1 c 128,-1,12
 -260 -3 -260 -3 -274 -3 c 2,13,-1
 -295 -3 l 1,14,-1
 -327 1 l 2,15,16
 -374 7 -374 7 -400 45 c 0,17,18
 -423 79 -423 79 -423 129 c 0,19,20
 -423 145 -423 145 -417 180 c 0,21,22
 -410 221 -410 221 -399 221 c 2,23,-1
 -373 222 l 1,24,25
 -372 214 -372 214 -380 197 c 128,-1,26
 -388 180 -388 180 -388 173 c 0,27,28
 -394 108 -394 108 -338 72 c 0,29,30
 -321 61 -321 61 -292 61 c 2,31,-1
 -280 61 l 2,32,33
 -206 61 -206 61 -170 51 c 1,34,35
 -149 39 -149 39 -129 27 c 1,36,-1
 -129 207 l 1,37,38
 -171 164 -171 164 -204 146 c 0,39,40
 -221 137 -221 137 -248 135 c 0,41,42
 -259 134 -259 134 -259 134 c 1,43,44
 -287 134 -287 134 -303 146 c 0,45,46
 -312 153 -312 153 -332 177 c 0,47,48
 -344 192 -344 192 -344 215 c 0,49,50
 -344 236 -344 236 -325 264 c 0,51,52
 -314 281 -314 281 -284 281 c 0,53,54
 -247 281 -247 281 -240 255 c 0,55,56
 -232 227 -232 227 -249 197 c 1,57,58
 -232 197 -232 197 -189 233 c 0,59,60
 -169 250 -169 250 -158 265 c 1,61,62
 -155 274 -155 274 -152 284 c 1,63,-1
 -128 289 l 1,0,-1
EndSplineSet
EndChar

StartChar: currency
Encoding: 164 164 126
Width: 456
Flags: W
LayerCount: 2
Fore
SplineSet
500 508 m 1,0,-1
 362 508 l 1,1,2
 396 471 396 471 396 418 c 0,3,4
 396 359 396 359 362 317 c 0,5,6
 343 293 343 293 328 287 c 1,7,-1
 296 281 l 1,8,9
 278 283 278 283 266 287 c 0,10,11
 224 301 224 301 198 326 c 2,12,-1
 160 363 l 1,13,14
 163 337 163 337 145.5 317.5 c 128,-1,15
 128 298 128 298 102 298 c 1,16,17
 97 297 97 297 93 297 c 0,18,19
 69 297 69 297 55 315.5 c 128,-1,20
 41 334 41 334 41 359 c 0,21,22
 41 400 41 400 90 413 c 0,23,24
 113 419 113 419 112 425 c 2,25,-1
 102 485 l 1,26,27
 92 510 92 510 74 508 c 1,28,-1
 2 508 l 1,29,-1
 -49 558 l 1,30,-1
 451 558 l 1,31,-1
 500 508 l 1,0,-1
341 385 m 0,32,33
 344 395 344 395 344 427 c 0,34,35
 345 504 345 504 308 508 c 1,36,-1
 135 508 l 1,37,-1
 157 458 l 1,38,39
 157 448 157 448 162 429 c 1,40,41
 175 412 175 412 196 397 c 2,42,-1
 224 377 l 1,43,44
 263 355 263 355 286 355 c 0,45,46
 333 355 333 355 341 385 c 0,32,33
EndSplineSet
EndChar

StartChar: yen
Encoding: 165 165 127
Width: 120
Flags: W
LayerCount: 2
Fore
SplineSet
171 508 m 1,0,-1
 62 508 l 1,1,-1
 62 -93 l 1,2,-1
 38 -73 l 1,3,4
 16 -22 16 -22 7 -6 c 0,5,6
 -19 39 -19 39 -47 39 c 0,7,8
 -58 39 -58 39 -65 25 c 1,9,10
 -65 6 -65 6 -76 -7 c 0,11,12
 -97 -32 -97 -32 -120 -32 c 0,13,14
 -125 -32 -125 -32 -129 -31 c 1,15,16
 -166 -33 -166 -33 -181 11 c 0,17,18
 -185 23 -185 23 -185 32 c 0,19,20
 -185 59 -185 59 -159 76 c 0,21,22
 -136 91 -136 91 -108 91 c 0,23,24
 -48 91 -48 91 -11 60 c 0,25,26
 1 50 1 50 13 39 c 1,27,-1
 13 508 l 1,28,-1
 -10 508 l 1,29,-1
 -61 558 l 1,30,-1
 120 558 l 1,31,-1
 171 508 l 1,0,-1
EndSplineSet
EndChar

StartChar: brokenbar
Encoding: 166 166 128
Width: 1
Flags: W
LayerCount: 2
Fore
SplineSet
-79 -41 m 1,0,-1
 -112 -26 l 1,1,2
 -158 89 -158 89 -264 89 c 1,3,-1
 -298 180 l 1,4,5
 -291 186 -291 186 -121 294 c 1,6,7
 -114 293 -114 293 -103 293 c 0,8,9
 -93 293 -93 293 -79 294 c 1,10,-1
 -79 -41 l 1,0,-1
-123 53 m 1,11,-1
 -123 220 l 1,12,13
 -157 192 -157 192 -198 168 c 0,14,15
 -222 154 -222 154 -228 148 c 1,16,17
 -192 140 -192 140 -161 103 c 0,18,19
 -160 101 -160 101 -123 53 c 1,11,-1
EndSplineSet
EndChar

StartChar: section
Encoding: 167 167 129
Width: 137
Flags: W
LayerCount: 2
Fore
SplineSet
-54 289 m 0,0,1
 -48 277 -48 277 -43 262 c 1,2,3
 -36 258 -36 258 8 210 c 0,4,5
 30 186 30 186 36 168 c 1,6,-1
 36 506 l 1,7,-1
 -42 506 l 1,8,-1
 -91 558 l 1,9,-1
 134 558 l 1,10,-1
 185 506 l 1,11,-1
 85 506 l 1,12,-1
 85 21 l 1,13,-1
 57 43 l 1,14,-1
 33 86 l 2,15,16
 17 115 17 115 -10 159 c 0,17,18
 -25 184 -25 184 -36 184 c 0,19,20
 -38 184 -38 184 -38 182 c 0,21,22
 -40 172 -40 172 -53 150 c 1,23,24
 -59 142 -59 142 -77 133.5 c 128,-1,25
 -95 125 -95 125 -106 125 c 0,26,27
 -110 125 -110 125 -113 126 c 1,28,29
 -148 121 -148 121 -170 161 c 0,30,31
 -184 186 -184 186 -177 211 c 0,32,33
 -160 271 -160 271 -106 271 c 0,34,35
 -96 271 -96 271 -92 267 c 1,36,37
 -90 267 -90 267 -90 270 c 0,38,39
 -90 280 -90 280 -104 312 c 128,-1,40
 -118 344 -118 344 -126 356 c 1,41,42
 -123 361 -123 361 -113 388 c 1,43,44
 -95 380 -95 380 -54 289 c 0,0,1
EndSplineSet
EndChar

StartChar: dieresis
Encoding: 168 168 130
Width: 241
Flags: W
LayerCount: 2
Fore
SplineSet
136 444 m 0,0,1
 127 395 127 395 146 292 c 0,2,3
 167 176 167 176 167 149 c 0,4,5
 167 66 167 66 82 13 c 0,6,7
 40 -13 40 -13 21 -12 c 0,8,9
 3 -11 3 -11 -3 6 c 0,10,11
 -7 17 -7 17 12 22 c 0,12,13
 40 29 40 29 45 33 c 0,14,15
 78 59 78 59 84 68 c 0,16,17
 98 89 98 89 102 135 c 0,18,19
 104 161 104 161 85 233 c 0,20,21
 65 309 65 309 65 340 c 0,22,23
 66 393 66 393 92 443 c 1,24,25
 116 475 116 475 139 508 c 1,26,-1
 -1 508 l 1,27,-1
 -52 558 l 1,28,-1
 246 558 l 1,29,-1
 296 511 l 1,30,31
 285 512 285 512 226 512 c 0,32,33
 193 512 193 512 167.5 494 c 128,-1,34
 142 476 142 476 136 444 c 0,0,1
EndSplineSet
EndChar

StartChar: copyright
Encoding: 169 169 131
Width: 1
Flags: W
LayerCount: 2
Fore
SplineSet
71 806 m 1,0,-1
 -142 599 l 1,1,-1
 -262 599 l 1,2,-1
 27 812 l 1,3,-1
 71 806 l 1,0,-1
EndSplineSet
EndChar

StartChar: ordfeminine
Encoding: 170 170 132
Width: 1
Flags: W
LayerCount: 2
Fore
SplineSet
-348 55 m 0,0,1
 -333 55 -333 55 -290 54 c 1,2,3
 -238 51 -238 51 -232 50 c 0,4,5
 -169 46 -169 46 -139 7 c 0,6,7
 -131 -4 -131 -4 -120 -21 c 1,8,-1
 -120 282 l 1,9,-1
 -75 327 l 1,10,-1
 -75 -103 l 1,11,-1
 -95 -87 l 1,12,13
 -107 -69 -107 -69 -118 -51 c 1,14,15
 -145 -20 -145 -20 -185 -18 c 0,16,17
 -238 -15 -238 -15 -365 -13 c 0,18,19
 -521 -10 -521 -10 -521 115 c 0,20,21
 -521 147 -521 147 -502 206 c 1,22,-1
 -482 186 l 1,23,24
 -489 179 -489 179 -489 144 c 0,25,26
 -489 57 -489 57 -348 55 c 0,0,1
EndSplineSet
EndChar

StartChar: guillemotleft
Encoding: 171 171 133
Width: 1
Flags: W
LayerCount: 2
Fore
SplineSet
-208 56 m 1,0,-1
 -208 -81 l 1,1,2
 -211 -75 -211 -75 -219 -71 c 0,3,4
 -230 -65 -230 -65 -232 -63 c 0,5,6
 -244 -45 -244 -45 -256 -28 c 1,7,8
 -279 -1 -279 -1 -318 10 c 0,9,10
 -343 17 -343 17 -362 17 c 0,11,12
 -386 17 -386 17 -431 13 c 0,13,14
 -479 9 -479 9 -500 9 c 0,15,16
 -629 6 -629 6 -654 123 c 0,17,18
 -660 151 -660 151 -656 176 c 0,19,20
 -656 178 -656 178 -656 189 c 0,21,22
 -655 202 -655 202 -655 213 c 0,23,24
 -655 236 -655 236 -652 233 c 2,25,-1
 -606 200 l 1,26,27
 -617 194 -617 194 -620 166 c 0,28,29
 -620 164 -620 164 -621 160 c 1,30,-1
 -621 151 l 2,31,32
 -621 79 -621 79 -481 77 c 1,33,34
 -465 80 -465 80 -422 77 c 0,35,36
 -304 69 -304 69 -272 28 c 0,37,38
 -265 19 -265 19 -253 1 c 1,39,-1
 -254 92 l 1,40,-1
 -208 56 l 1,0,-1
EndSplineSet
EndChar

StartChar: logicalnot
Encoding: 172 172 134
Width: 1
Flags: W
LayerCount: 2
Fore
SplineSet
-223 188 m 1,0,-1
 -222 -30 l 1,1,2
 -235 -23 -235 -23 -251 -12 c 1,3,4
 -267 61 -267 61 -303 61 c 0,5,6
 -331 61 -331 61 -332 33 c 0,7,8
 -332 25 -332 25 -329 22 c 2,9,-1
 -322 12 l 1,10,-1
 -352 3 l 1,11,12
 -355 12 -355 12 -361 22 c 0,13,14
 -395 79 -395 79 -445 79 c 0,15,16
 -514 79 -514 79 -518 21 c 0,17,18
 -519 8 -519 8 -505 -4.5 c 128,-1,19
 -491 -17 -491 -17 -477 -21 c 1,20,21
 -477 -2 -477 -2 -476 3 c 0,22,23
 -470 20 -470 20 -445 25 c 0,24,25
 -435 27 -435 27 -429 27 c 0,26,27
 -397 27 -397 27 -392 3 c 0,28,29
 -390 -5 -390 -5 -393 -20 c 0,30,31
 -401 -69 -401 -69 -454 -69 c 0,32,33
 -546 -69 -546 -69 -562 7 c 0,34,35
 -568 36 -568 36 -557 62 c 0,36,37
 -529 127 -529 127 -465 127 c 0,38,39
 -404 127 -404 127 -373 89 c 2,40,-1
 -356 68 l 1,41,42
 -356 89 -356 89 -354 93 c 0,43,44
 -341 116 -341 116 -322 113 c 0,45,46
 -306 111 -306 111 -289 97 c 1,47,48
 -277 85 -277 85 -270 71 c 1,49,-1
 -270 188 l 1,50,-1
 -223 188 l 1,0,-1
EndSplineSet
EndChar

StartChar: minus
Encoding: 8722 8722 135
Width: 600
Flags: W
LayerCount: 2
Fore
SplineSet
653 508 m 1,0,-1
 332 508 l 1,1,-1
 332 172 l 2,2,3
 332 138 332 138 361 138 c 0,4,5
 403 138 403 138 474 226 c 0,6,7
 493 249 493 249 496 289 c 1,8,9
 489 287 489 287 481 287 c 0,10,11
 459 287 459 287 442 299 c 0,12,13
 422 312 422 312 418 332 c 0,14,15
 415 344 415 344 419 360 c 0,16,17
 430 412 430 412 480 412 c 0,18,19
 487 412 487 412 504 409 c 0,20,21
 538 403 538 403 558 362 c 1,22,23
 563 348 563 348 570 305 c 1,24,25
 564 255 564 255 553 227 c 0,26,27
 546 208 546 208 515 161 c 0,28,29
 500 138 500 138 461 109.5 c 128,-1,30
 422 81 422 81 397 76 c 0,31,32
 362 69 362 69 340 85 c 0,33,34
 293 118 293 118 282 169 c 1,35,-1
 282 392 l 1,36,37
 275 422 275 422 232 470 c 0,38,39
 205 500 205 500 149 500 c 0,40,41
 84 500 84 500 76 448 c 0,42,43
 74 440 74 440 74 422 c 0,44,45
 74 403 74 403 82 382 c 0,46,47
 92 355 92 355 108 355 c 0,48,49
 113 355 113 355 111 360 c 0,50,51
 107 374 107 374 107 385 c 0,52,53
 107 426 107 426 158 426 c 0,54,55
 165 426 165 426 171 425 c 0,56,57
 203 423 203 423 211 384 c 0,58,59
 213 374 213 374 213 367 c 0,60,61
 213 337 213 337 190 315.5 c 128,-1,62
 167 294 167 294 137 294 c 0,63,64
 108 294 108 294 76.5 309 c 128,-1,65
 45 324 45 324 30 348 c 0,66,67
 9 381 9 381 12 451 c 0,68,69
 13 477 13 477 37 512 c 0,70,71
 69 558 69 558 113 567 c 0,72,73
 133 571 133 571 149 571 c 0,74,75
 171 571 171 571 201 556 c 1,76,77
 266 531 266 531 280 454 c 1,78,-1
 280 558 l 1,79,-1
 602 558 l 1,80,-1
 653 508 l 1,0,-1
EndSplineSet
EndChar

StartChar: registered
Encoding: 174 174 136
Width: 452
Flags: W
LayerCount: 2
Fore
SplineSet
164 303 m 0,0,1
 120 303 120 303 92.5 333 c 128,-1,2
 65 363 65 363 65 407 c 0,3,4
 64 461 64 461 121 508 c 1,5,-1
 0 508 l 1,6,-1
 -51 558 l 1,7,-1
 445 558 l 1,8,-1
 493 507 l 1,9,-1
 314 507 l 1,10,11
 331 488 331 488 333 451 c 0,12,13
 336 411 336 411 319 389 c 0,14,15
 316 385 316 385 306 370 c 1,16,17
 234 303 234 303 164 303 c 0,0,1
292 467 m 0,18,19
 294 482 294 482 280 491 c 1,20,21
 252 505 252 505 243 505 c 0,22,23
 232 505 232 505 211 495 c 0,24,25
 187 484 187 484 187 475 c 0,26,27
 187 473 187 473 188 471 c 2,28,-1
 253 413 l 1,29,30
 288 424 288 424 292 467 c 0,18,19
224 392 m 2,31,-1
 158 442 l 2,32,33
 156 444 156 444 153 444 c 0,34,35
 142 444 142 444 130.5 429.5 c 128,-1,36
 119 415 119 415 117 403 c 0,37,38
 115 388 115 388 132 367 c 1,39,40
 141 352 141 352 165 352 c 0,41,42
 186 352 186 352 200 368 c 1,43,44
 229 388 229 388 224 392 c 2,31,-1
EndSplineSet
EndChar

StartChar: macron
Encoding: 175 175 137
Width: 532
Flags: W
LayerCount: 2
Fore
SplineSet
414 432 m 1,0,1
 423 440 423 440 423 454 c 256,2,3
 423 468 423 468 414 486 c 0,4,5
 404 508 404 508 392 508 c 2,6,-1
 265 508 l 1,7,8
 265 488 265 488 277 465 c 0,9,10
 309 404 309 404 367 410 c 1,11,12
 399 410 399 410 414 432 c 1,0,1
300 366 m 0,13,14
 242 416 242 416 240 460 c 1,15,16
 235 432 235 432 211 392 c 128,-1,17
 187 352 187 352 166 337 c 0,18,19
 153 328 153 328 139 328 c 0,20,21
 119 328 119 328 84.5 356 c 128,-1,22
 50 384 50 384 55 403 c 1,23,-1
 67 427 l 2,24,25
 69 431 69 431 71 431 c 1,26,-1
 86 415 l 2,27,28
 102 398 102 398 113 398 c 0,29,30
 141 398 141 398 168 448 c 0,31,32
 183 475 183 475 182 492 c 0,33,34
 182 508 182 508 169 508 c 2,35,-1
 -2 508 l 1,36,-1
 -51 558 l 1,37,-1
 524 558 l 1,38,-1
 576 508 l 1,39,-1
 538 508 l 2,40,41
 440 508 440 508 445 504 c 0,42,43
 458 494 458 494 463 472 c 0,44,45
 468 448 468 448 462 419 c 0,46,47
 444 336 444 336 374 336 c 0,48,49
 335 336 335 336 300 366 c 0,13,14
EndSplineSet
EndChar

StartChar: degree
Encoding: 176 176 138
Width: 569
Flags: W
LayerCount: 2
Fore
SplineSet
610 508 m 1,0,-1
 347 508 l 1,1,-1
 347 466 l 1,2,3
 350 468 350 468 357 468 c 0,4,5
 419 468 419 468 471 419.5 c 128,-1,6
 523 371 523 371 520 310 c 0,7,8
 518 266 518 266 502 251 c 0,9,10
 493 243 493 243 468 243 c 0,11,12
 465 243 465 243 465 241 c 1,13,14
 465 248 465 248 466 248 c 0,15,16
 469 248 469 248 480 213 c 0,17,18
 495 164 495 164 494 146 c 0,19,20
 490 84 490 84 438 84 c 0,21,22
 428 84 428 84 419 88 c 1,23,24
 382 97 382 97 383 133 c 0,25,26
 383 158 383 158 410 165 c 1,27,28
 420 169 420 169 429 169 c 0,29,30
 443 169 443 169 454 158 c 2,31,-1
 466 146 l 2,32,33
 467 146 467 146 467 149 c 0,34,35
 467 167 467 167 452 192 c 128,-1,36
 437 217 437 217 421 224 c 0,37,38
 383 241 383 241 363 241 c 0,39,40
 355 241 355 241 347 240 c 1,41,-1
 347 -58 l 1,42,-1
 335 -51 l 1,43,-1
 328 -37 l 1,44,45
 324 -25 324 -25 304 8 c 1,46,47
 271 53 271 53 225 82 c 0,48,49
 173 115 173 115 123 117 c 1,50,-1
 64 192 l 1,51,-1
 140 239 l 1,52,53
 136 245 136 245 112.5 250.5 c 128,-1,54
 89 256 89 256 78 256 c 1,55,-1
 14 333 l 1,56,57
 144 428 144 428 297 470 c 1,58,-1
 297 508 l 1,59,-1
 -2 508 l 1,60,-1
 -51 558 l 1,61,-1
 561 558 l 1,62,-1
 610 508 l 1,0,-1
347 396 m 1,63,-1
 347 307 l 1,64,65
 354 307 354 307 387 289 c 128,-1,66
 420 271 420 271 425 271 c 0,67,68
 427 271 427 271 427 272 c 2,69,-1
 427 276 l 2,70,71
 427 280 427 280 423.5 289.5 c 128,-1,72
 420 299 420 299 420 304 c 0,73,74
 420 331 420 331 449 331 c 0,75,76
 473 331 473 331 482 312 c 1,77,78
 484 313 484 313 484 317 c 0,79,80
 484 333 484 333 448 363 c 1,81,82
 390 398 390 398 358 398 c 0,83,84
 351 398 351 398 347 396 c 1,63,-1
297 311 m 1,85,-1
 297 394 l 1,86,87
 203 365 203 365 113 304 c 1,88,89
 143 291 143 291 178 263 c 1,90,-1
 297 311 l 1,85,-1
297 52 m 1,91,-1
 297 238 l 1,92,93
 243 221 243 221 153 164 c 1,94,95
 245 131 245 131 297 52 c 1,91,-1
EndSplineSet
EndChar

StartChar: plusminus
Encoding: 177 177 139
Width: 441
Flags: W
LayerCount: 2
Fore
SplineSet
484 508 m 1,0,-1
 266 508 l 1,1,-1
 266 485 l 1,2,3
 292 485 292 485 323 468 c 0,4,5
 376 439 376 439 388 382 c 0,6,7
 397 341 397 341 386 310 c 0,8,9
 373 272 373 272 332 272 c 0,10,11
 284 272 284 272 278 304 c 0,12,13
 274 326 274 326 284 347.5 c 128,-1,14
 294 369 294 369 316 369 c 0,15,16
 352 369 352 369 352 350 c 0,17,18
 352 346 352 346 351 341 c 1,19,20
 355 352 355 352 355 363 c 0,21,22
 355 397 355 397 319 419 c 1,23,24
 308 430 308 430 264 439 c 1,25,26
 265 409 265 409 249 353 c 0,27,28
 227 275 227 275 186 210 c 2,29,-1
 147 148 l 1,30,31
 142 128 142 128 142 111 c 0,32,33
 142 59 142 59 179 59 c 0,34,35
 213 59 213 59 271 100 c 0,36,37
 299 120 299 120 304 136 c 1,38,39
 249 133 249 133 240 176 c 0,40,41
 236 194 236 194 244 213 c 0,42,43
 261 253 261 253 299 253 c 0,44,45
 391 253 391 253 384 166 c 0,46,47
 382 145 382 145 367 115.5 c 128,-1,48
 352 86 352 86 336 73 c 0,49,50
 268 15 268 15 207 13 c 0,51,52
 89 9 89 9 85 128 c 1,53,54
 94 165 94 165 116 195 c 2,55,-1
 158 252 l 1,56,57
 155 289 155 289 112 292 c 0,58,59
 85 294 85 294 73 292 c 1,60,61
 70 300 70 300 22 384 c 1,62,63
 62 417 62 417 115 449 c 0,64,65
 183 489 183 489 215 487 c 1,66,-1
 215 508 l 1,67,-1
 -3 508 l 1,68,-1
 -53 558 l 1,69,-1
 323 558 l 1,70,71
 330 573 330 573 327 587 c 1,72,-1
 327 589 l 1,73,74
 326 589 326 589 326 590 c 0,75,76
 317 609 317 609 281 609 c 0,77,78
 273 609 273 609 256 608 c 128,-1,79
 239 607 239 607 231 607 c 1,80,81
 239 607 239 607 118 608 c 0,82,83
 87 608 87 608 58 620 c 0,84,85
 21 636 21 636 23 662 c 1,86,87
 17 668 17 668 17 684 c 0,88,89
 17 731 17 731 37 756 c 1,90,-1
 70 738 l 1,91,92
 49 730 49 730 49 707 c 0,93,94
 49 699 49 699 51 693 c 0,95,96
 61 673 61 673 90 669 c 0,97,98
 107 667 107 667 163 666 c 0,99,100
 182 666 182 666 238 666 c 0,101,102
 330 665 330 665 350 613 c 0,103,104
 357 595 357 595 352 558 c 1,105,-1
 433 558 l 1,106,-1
 484 508 l 1,0,-1
213 430 m 1,107,108
 196 425 196 425 158 407 c 1,109,110
 128 387 128 387 98 364 c 1,111,112
 116 356 116 356 151 333 c 1,113,114
 171 316 171 316 174 281 c 1,115,116
 192 306 192 306 203 348 c 0,117,118
 219 410 219 410 213 430 c 1,107,108
EndSplineSet
EndChar

StartChar: twosuperior
Encoding: 178 178 140
Width: 664
Flags: W
LayerCount: 2
Fore
SplineSet
709 508 m 1,0,-1
 604 508 l 1,1,-1
 604 -33 l 1,2,-1
 577 -14 l 1,3,-1
 546 50 l 2,4,5
 528 86 528 86 493 111 c 128,-1,6
 458 136 458 136 417 141 c 1,7,8
 423 104 423 104 390 78 c 0,9,10
 374 65 374 65 354 65 c 0,11,12
 329 65 329 65 311 82.5 c 128,-1,13
 293 100 293 100 291 125 c 256,14,15
 289 150 289 150 303.5 172 c 128,-1,16
 318 194 318 194 342 201 c 1,17,18
 323 254 323 254 271 273 c 1,19,20
 270 254 270 254 254.5 238.5 c 128,-1,21
 239 223 239 223 220 220 c 0,22,23
 212 218 212 218 205 218 c 0,24,25
 184 218 184 218 171 236 c 128,-1,26
 158 254 158 254 158 276 c 0,27,28
 158 304 158 304 176 320.5 c 128,-1,29
 194 337 194 337 222 334 c 1,30,31
 228 346 228 346 228 358 c 0,32,33
 228 384 228 384 208 399 c 128,-1,34
 188 414 188 414 162 412 c 1,35,36
 163 405 163 405 163 399 c 0,37,38
 163 346 163 346 106 342 c 0,39,40
 41 337 41 337 41 404 c 0,41,42
 41 440 41 440 75 461 c 1,43,44
 90 466 90 466 104 474 c 1,45,46
 104 482 104 482 91.5 495 c 128,-1,47
 79 508 79 508 71 508 c 2,48,-1
 -5 508 l 1,49,-1
 -56 558 l 1,50,-1
 658 558 l 1,51,-1
 709 508 l 1,0,-1
342 461 m 1,52,-1
 342 508 l 1,53,-1
 261 508 l 2,54,55
 253 508 253 508 253 500 c 0,56,57
 253 481 253 481 277 466 c 0,58,59
 297 454 297 454 319 454 c 0,60,61
 333 454 333 454 342 461 c 1,52,-1
342 260 m 1,62,-1
 342 392 l 1,63,64
 278 403 278 403 245 447 c 1,65,66
 219 476 219 476 209 508 c 1,67,-1
 128 508 l 1,68,69
 135 500 135 500 145 476 c 1,70,71
 146 470 146 470 162 466 c 0,72,73
 213 452 213 452 250 389 c 0,74,75
 270 355 270 355 273 322 c 1,76,77
 294 308 294 308 342 260 c 1,62,-1
554 90 m 1,78,-1
 554 508 l 1,79,-1
 392 508 l 1,80,-1
 392 457 l 1,81,82
 412 461 412 461 420 461 c 0,83,84
 458 461 458 461 489 438 c 128,-1,85
 520 415 520 415 528 379 c 0,86,87
 532 361 532 361 532 348 c 0,88,89
 532 309 532 309 504 285 c 0,90,91
 485 269 485 269 468 269 c 0,92,93
 449 269 449 269 436 281 c 0,94,95
 414 302 414 302 414 323 c 1,96,97
 415 333 415 333 424 349 c 128,-1,98
 433 365 433 365 441 365 c 1,99,100
 453 368 453 368 463 368 c 0,101,102
 487 368 487 368 500 349 c 1,103,104
 496 362 496 362 481 386 c 1,105,106
 462 405 462 405 434 405 c 0,107,108
 415 405 415 405 392 396 c 1,109,-1
 392 204 l 1,110,111
 439 193 439 193 454 185 c 0,112,113
 516 151 516 151 554 90 c 1,78,-1
EndSplineSet
EndChar

StartChar: threesuperior
Encoding: 179 179 141
Width: 662
Flags: W
LayerCount: 2
Fore
SplineSet
701 508 m 1,0,-1
 0 508 l 1,1,-1
 -52 558 l 1,2,-1
 653 558 l 1,3,-1
 701 508 l 1,0,-1
631 313 m 0,4,5
 635 271 635 271 611 234 c 0,6,7
 585 193 585 193 544 193 c 0,8,9
 533 193 533 193 525 197 c 0,10,11
 485 218 485 218 485 247 c 1,12,13
 486 258 486 258 495 281 c 1,14,15
 509 295 509 295 529 295 c 0,16,17
 545 295 545 295 555 285 c 1,18,-1
 568 259 l 1,19,20
 589 256 589 256 589 295 c 0,21,22
 590 345 590 345 553 356 c 1,23,24
 543 362 543 362 529 362 c 0,25,26
 497 362 497 362 461.5 331.5 c 128,-1,27
 426 301 426 301 426 270 c 0,28,29
 426 267 426 267 427 264 c 1,30,31
 452 238 452 238 459 205 c 0,32,33
 466 171 466 171 454 136 c 0,34,35
 428 61 428 61 340 51 c 0,36,37
 302 47 302 47 258 65 c 0,38,39
 202 88 202 88 125 204 c 0,40,41
 90 256 90 256 62 339 c 0,42,43
 43 394 43 394 24 471 c 1,44,-1
 60 452 l 2,45,46
 63 450 63 450 75 408 c 0,47,48
 115 268 115 268 176 207 c 0,49,50
 206 177 206 177 212 172 c 0,51,52
 268 126 268 126 330 126 c 0,53,54
 404 126 404 126 418 189 c 0,55,56
 422 205 422 205 419 218 c 256,57,58
 416 231 416 231 397 251 c 1,59,60
 378 233 378 233 356 233 c 0,61,62
 299 233 299 233 299 292 c 0,63,64
 299 314 299 314 313.5 331 c 128,-1,65
 328 348 328 348 350 348 c 0,66,67
 369 348 369 348 392 336 c 1,68,69
 419 352 419 352 419 375 c 0,70,71
 419 395 419 395 400 407 c 0,72,73
 390 413 390 413 364 423 c 0,74,75
 356 426 356 426 346 426 c 0,76,77
 331 426 331 426 305 418.5 c 128,-1,78
 279 411 279 411 270 403 c 1,79,80
 247 387 247 387 238 372 c 1,81,82
 266 355 266 355 266 324 c 0,83,84
 267 281 267 281 223 281 c 0,85,86
 171 281 171 281 161 327 c 0,87,88
 154 361 154 361 172 393 c 0,89,90
 231 496 231 496 351 487 c 0,91,92
 418 482 418 482 444 417 c 0,93,94
 446 412 446 412 448 355 c 1,95,96
 474 383 474 383 485 391 c 0,97,98
 507 408 507 408 533 409 c 0,99,100
 572 411 572 411 601 381 c 0,101,102
 627 353 627 353 631 313 c 0,4,5
EndSplineSet
EndChar

StartChar: acute
Encoding: 180 180 142
Width: 569
Flags: W
LayerCount: 2
Fore
SplineSet
625 508 m 1,0,-1
 501 508 l 1,1,-1
 501 -13 l 1,2,-1
 488 -8 l 1,3,-1
 472 9 l 1,4,5
 465 21 465 21 443 59 c 0,6,7
 412 114 412 114 355 142 c 1,8,9
 351 146 351 146 318 154 c 1,10,11
 318 138 318 138 311 123 c 0,12,13
 292 82 292 82 241 82 c 1,14,15
 186 90 186 90 173 133 c 0,16,17
 169 147 169 147 169 157 c 0,18,19
 169 197 169 197 210 219 c 0,20,21
 225 227 225 227 236 226 c 1,22,23
 218 248 218 248 216 249 c 0,24,25
 166 307 166 307 79 309 c 1,26,-1
 26 387 l 1,27,28
 129 460 129 460 233 483 c 1,29,-1
 233 508 l 1,30,-1
 0 508 l 1,31,-1
 -50 558 l 1,32,-1
 573 558 l 1,33,-1
 625 508 l 1,0,-1
234 267 m 1,34,-1
 234 421 l 1,35,36
 174 404 174 404 118 367 c 1,37,38
 144 354 144 354 154 346 c 2,39,-1
 179 326 l 2,40,41
 213 299 213 299 234 267 c 1,34,-1
452 87 m 1,42,-1
 452 508 l 1,43,-1
 281 508 l 1,44,-1
 281 486 l 1,45,46
 285 487 285 487 290 487 c 0,47,48
 329 487 329 487 366 446 c 1,49,50
 400 410 400 410 409 369 c 0,51,52
 412 355 412 355 412 338 c 0,53,54
 412 309 412 309 398 286 c 0,55,56
 382 259 382 259 354 259 c 0,57,58
 330 259 330 259 309 279 c 0,59,60
 296 291 296 291 296 308 c 0,61,62
 296 328 296 328 314 352 c 1,63,64
 332 359 332 359 345 359 c 0,65,66
 360 359 360 359 370 344 c 0,67,68
 371 343 371 343 372 343 c 0,69,70
 376 343 376 343 376 350 c 0,71,72
 376 354 376 354 374 361 c 0,73,74
 369 388 369 388 339 406 c 128,-1,75
 309 424 309 424 281 420 c 1,76,-1
 281 220 l 1,77,78
 360 209 360 209 395 175 c 0,79,80
 440 130 440 130 452 87 c 1,42,-1
EndSplineSet
EndChar

StartChar: mu
Encoding: 181 181 143
Width: 697
Flags: W
LayerCount: 2
Fore
SplineSet
740 508 m 1,0,-1
 0 508 l 1,1,-1
 -51 558 l 1,2,-1
 692 558 l 1,3,-1
 740 508 l 1,0,-1
680 274 m 1,4,5
 688 244 688 244 666 208 c 0,6,7
 650 182 650 182 634 181 c 1,8,9
 622 176 622 176 605 176 c 0,10,11
 556 176 556 176 544 206 c 1,12,13
 536 218 536 218 536 230 c 0,14,15
 536 245 536 245 549.5 258 c 128,-1,16
 563 271 563 271 578 271 c 0,17,18
 582 271 582 271 584 270 c 1,19,20
 608 270 608 270 627 241 c 1,21,22
 643 246 643 246 638 272 c 0,23,24
 635 290 635 290 619.5 304.5 c 128,-1,25
 604 319 604 319 586 321 c 1,26,27
 575 325 575 325 563 325 c 0,28,29
 514 325 514 325 484 273 c 1,30,-1
 484 -15 l 1,31,-1
 453 13 l 1,32,33
 447 34 447 34 426 72 c 1,34,35
 406 94 406 94 370 94 c 0,36,37
 345 94 345 94 282 80 c 0,38,39
 225 68 225 68 191 71 c 0,40,41
 35 85 35 85 35 251 c 0,42,43
 35 286 35 286 44 316 c 2,44,-1
 58 363 l 1,45,46
 66 383 66 383 72 383 c 0,47,48
 75 383 75 383 77 379 c 1,49,-1
 97 358 l 1,50,51
 72 328 72 328 70 271 c 0,52,53
 66 180 66 180 153 159 c 0,54,55
 212 145 212 145 262 150 c 0,56,57
 292 153 292 153 314 153 c 0,58,59
 383 153 383 153 418 129 c 0,60,61
 432 120 432 120 434 119 c 1,62,-1
 434 395 l 2,63,64
 434 432 434 432 402 432 c 0,65,66
 376 432 376 432 325 384 c 0,67,68
 290 351 290 351 274 309 c 1,69,70
 294 313 294 313 301 313 c 0,71,72
 321 313 321 313 332 296 c 128,-1,73
 343 279 343 279 343 258 c 0,74,75
 343 239 343 239 330 221 c 128,-1,76
 317 203 317 203 299 201 c 0,77,78
 290 200 290 200 278 200 c 0,79,80
 222 200 222 200 203 241 c 0,81,82
 197 255 197 255 193 292 c 0,83,84
 191 316 191 316 207 351 c 1,85,86
 223 383 223 383 243 400 c 0,87,88
 350 492 350 492 402 486 c 0,89,90
 423 483 423 483 453.5 456.5 c 128,-1,91
 484 430 484 430 484 410 c 2,92,-1
 484 320 l 1,93,94
 488 330 488 330 518 348 c 0,95,96
 556 371 556 371 586 371 c 0,97,98
 623 371 623 371 652 341 c 128,-1,99
 681 311 681 311 680 274 c 1,4,5
EndSplineSet
EndChar

StartChar: paragraph
Encoding: 182 182 144
Width: 665
Flags: W
LayerCount: 2
Fore
SplineSet
710 508 m 1,0,-1
 445 508 l 1,1,-1
 445 428 l 1,2,3
 457 432 457 432 479 432 c 0,4,5
 530 432 530 432 569.5 404 c 128,-1,6
 609 376 609 376 619 328 c 0,7,8
 627 288 627 288 614 255 c 0,9,10
 599 216 599 216 559 216 c 0,11,12
 504 216 504 216 487 248 c 0,13,14
 481 259 481 259 481 270 c 256,15,16
 481 281 481 281 493 298 c 128,-1,17
 505 315 505 315 516 315 c 0,18,19
 542 314 542 314 553 311 c 0,20,21
 573 305 573 305 581 287 c 1,22,23
 588 310 588 310 588 315 c 0,24,25
 588 340 588 340 559 355 c 0,26,27
 535 368 535 368 507 370 c 0,28,29
 470 373 470 373 447 364 c 1,30,-1
 447 4 l 1,31,-1
 424 32 l 1,32,-1
 402 95 l 2,33,34
 395 116 395 116 365 164 c 0,35,36
 348 192 348 192 301 214 c 1,37,38
 285 166 285 166 233 166 c 256,39,40
 181 166 181 166 171 214 c 0,41,42
 164 248 164 248 185 271.5 c 128,-1,43
 206 295 206 295 241 295 c 0,44,45
 248 295 248 295 253 294 c 1,46,47
 258 306 258 306 258 320 c 0,48,49
 258 348 258 348 238 369.5 c 128,-1,50
 218 391 218 391 191 392 c 0,51,52
 180 392 180 392 165 381 c 1,53,54
 165 373 165 373 158 356 c 0,55,56
 143 321 143 321 109 317 c 0,57,58
 76 314 76 314 55 346 c 0,59,60
 44 363 44 363 44 385 c 0,61,62
 44 435 44 435 79 448 c 1,63,64
 90 446 90 446 104 453 c 1,65,66
 106 457 106 457 105 463 c 0,67,68
 102 475 102 475 84 493 c 1,69,70
 73 508 73 508 66 508 c 2,71,-1
 -6 508 l 1,72,-1
 -53 558 l 1,73,-1
 659 558 l 1,74,-1
 710 508 l 1,0,-1
396 428 m 1,75,-1
 396 508 l 1,76,-1
 303 508 l 2,77,78
 292 508 292 508 292 486 c 0,79,80
 292 423 292 423 373 423 c 0,81,82
 389 423 389 423 396 428 c 1,75,-1
397 168 m 1,83,-1
 397 361 l 1,84,85
 321 368 321 368 276 430 c 0,86,87
 248 469 248 469 244 508 c 1,88,-1
 121 508 l 1,89,90
 129 496 129 496 144 459 c 1,91,92
 146 451 146 451 172 445 c 0,93,94
 253 426 253 426 304 320 c 0,95,96
 315 297 315 297 316 266 c 1,97,98
 375 230 375 230 397 168 c 1,83,-1
EndSplineSet
EndChar

StartChar: periodcentered
Encoding: 183 183 145
Width: 627
Flags: W
LayerCount: 2
Fore
SplineSet
675 508 m 1,0,-1
 561 508 l 1,1,-1
 561 -65 l 1,2,-1
 509 -19 l 1,3,-1
 509 65 l 1,4,5
 493 94 493 94 454 104 c 0,6,7
 435 109 435 109 423 109 c 0,8,9
 402 109 402 109 361 81 c 0,10,11
 355 77 355 77 313 38 c 0,12,13
 286 13 286 13 258 13 c 0,14,15
 246 13 246 13 233 19 c 0,16,17
 166 50 166 50 151 103 c 1,18,-1
 178 132 l 1,19,20
 180 108 180 108 201 93 c 128,-1,21
 222 78 222 78 246 81 c 0,22,23
 267 83 267 83 288 97 c 0,24,25
 313 113 313 113 313 131 c 0,26,27
 313 135 313 135 311 137 c 0,28,29
 267 211 267 211 203 243 c 0,30,31
 163 263 163 263 152 267 c 0,32,33
 126 276 126 276 97 278 c 1,34,-1
 50 358 l 1,35,36
 85 381 85 381 131 402 c 0,37,38
 199 434 199 434 211 441 c 0,39,40
 235 456 235 456 322 481 c 1,41,-1
 322 508 l 1,42,-1
 1 508 l 1,43,-1
 -48 558 l 1,44,-1
 623 558 l 1,45,-1
 675 508 l 1,0,-1
508 116 m 1,46,-1
 508 508 l 1,47,-1
 367 508 l 1,48,49
 369 482 369 482 367 478 c 1,50,51
 402 469 402 469 416 462 c 0,52,53
 465 435 465 435 489 377 c 0,54,55
 498 355 498 355 498 331 c 0,56,57
 498 300 498 300 485 271 c 0,58,59
 469 235 469 235 442 235 c 0,60,61
 425 235 425 235 409.5 246 c 128,-1,62
 394 257 394 257 391 273 c 0,63,64
 388 287 388 287 394.5 305 c 128,-1,65
 401 323 401 323 413 329 c 0,66,67
 421 332 421 332 430 332 c 0,68,69
 440 332 440 332 454 328 c 0,70,71
 456 328 456 328 456 330 c 0,72,73
 456 383 456 383 412 411 c 0,74,75
 408 413 408 413 368 434 c 1,76,-1
 368 163 l 1,77,78
 355 163 355 163 384.5 167 c 128,-1,79
 414 171 414 171 418 171 c 0,80,81
 445 171 445 171 468 155 c 0,82,83
 478 148 478 148 508 116 c 1,46,-1
322 176 m 1,84,-1
 322 430 l 1,85,86
 249 388 249 388 156 343 c 1,87,88
 171 340 171 340 212 305 c 0,89,90
 274 252 274 252 303 205 c 0,91,92
 307 198 307 198 322 176 c 1,84,-1
EndSplineSet
EndChar

StartChar: cedilla
Encoding: 184 184 146
Width: 512
Flags: W
LayerCount: 2
Fore
SplineSet
366 558 m 1,0,-1
 420 454 l 2,1,2
 452 393 452 393 455 386 c 0,3,4
 473 347 473 347 477 314 c 0,5,6
 482 275 482 275 424 236 c 1,7,8
 441 211 441 211 445 176 c 0,9,10
 450 132 450 132 422 93 c 128,-1,11
 394 54 394 54 351 51 c 0,12,13
 337 50 337 50 320 50 c 0,14,15
 279 50 279 50 254 61 c 0,16,17
 245 65 245 65 202 92 c 0,18,19
 134 135 134 135 73 253 c 0,20,21
 25 346 25 346 3 509 c 1,22,-1
 39 485 l 1,23,24
 41 475 41 475 47 440 c 0,25,26
 57 382 57 382 90 315 c 0,27,28
 95 303 95 303 112 270 c 1,29,30
 125 247 125 247 147 224 c 0,31,32
 243 127 243 127 326 127 c 0,33,34
 388 127 388 127 406 163 c 0,35,36
 413 177 413 177 412 185 c 2,37,-1
 410 201 l 1,38,39
 392 187 392 187 373 187 c 0,40,41
 333 187 333 187 314 223 c 0,42,43
 307 236 307 236 307 251 c 0,44,45
 307 283 307 283 335 301 c 0,46,47
 347 309 347 309 362 309 c 0,48,49
 382 309 382 309 402 296 c 1,50,51
 396 295 396 295 411 295 c 0,52,53
 414 295 414 295 433 315 c 0,54,55
 439 321 439 321 434 344 c 0,56,57
 429 366 429 366 416 395 c 0,58,59
 396 439 396 439 383 441 c 1,60,-1
 332 360 l 1,61,62
 326 403 326 403 304 432 c 2,63,-1
 281 462 l 1,64,65
 261 481 261 481 233 481 c 0,66,67
 191 481 191 481 161 441 c 1,68,69
 182 449 182 449 197 449 c 0,70,71
 222 449 222 449 247.5 433 c 128,-1,72
 273 417 273 417 278 394 c 0,73,74
 284 368 284 368 262 336 c 0,75,76
 230 289 230 289 210 271 c 0,77,78
 206 267 206 267 193 256 c 1,79,-1
 131 309 l 1,80,-1
 208 372 l 2,81,82
 225 386 225 386 225 396 c 0,83,84
 225 405 225 405 210 405 c 0,85,86
 204 405 204 405 196 403 c 0,87,88
 140 388 140 388 126 388 c 0,89,90
 88 388 88 388 88 430 c 0,91,92
 88 468 88 468 132 512 c 0,93,94
 166 546 166 546 207 544 c 0,95,96
 249 542 249 542 280.5 515.5 c 128,-1,97
 312 489 312 489 322 448 c 1,98,-1
 366 558 l 1,0,-1
EndSplineSet
EndChar

StartChar: onesuperior
Encoding: 185 185 147
Width: 485
Flags: W
LayerCount: 2
Fore
SplineSet
344 310 m 2,0,1
 344 351 344 351 318 401.5 c 128,-1,2
 292 452 292 452 259 474.5 c 128,-1,3
 226 497 226 497 189 492 c 0,4,5
 156 487 156 487 126 469 c 0,6,7
 89 447 89 447 88 418 c 1,8,9
 101 424 101 424 135 424 c 0,10,11
 186 424 186 424 209 411 c 0,12,13
 239 393 239 393 239 346 c 0,14,15
 239 332 239 332 235 320 c 1,16,17
 325 311 325 311 345 229 c 1,18,-1
 344 310 l 2,0,1
214 274 m 0,19,20
 175 267 175 267 159 258 c 0,21,22
 131 242 131 242 113 200 c 1,23,24
 133 209 133 209 167 209 c 0,25,26
 206 209 206 209 235.5 188 c 128,-1,27
 265 167 265 167 265 129 c 0,28,29
 265 71 265 71 174 -36 c 1,30,-1
 116 29 l 1,31,32
 130 37 130 37 175.5 88.5 c 128,-1,33
 221 140 221 140 221 151 c 0,34,35
 220 173 220 173 194 173 c 0,36,37
 183 173 183 173 145.5 152 c 128,-1,38
 108 131 108 131 96 131 c 0,39,40
 86 131 86 131 78 136 c 0,41,42
 39 161 39 161 39 201 c 0,43,44
 39 233 39 233 64 268 c 0,45,46
 102 322 102 322 172 331 c 0,47,48
 198 334 198 334 198 363 c 0,49,50
 198 374 198 374 189 382.5 c 128,-1,51
 180 391 180 391 169 391 c 256,52,53
 158 391 158 391 120.5 370 c 128,-1,54
 83 349 83 349 71 349 c 0,55,56
 61 349 61 349 53 354 c 0,57,58
 11 380 11 380 11 425 c 0,59,60
 11 458 11 458 35 492 c 0,61,62
 73 547 73 547 157 547 c 0,63,64
 324 547 324 547 368 382 c 1,65,66
 360 435 360 435 352 516 c 0,67,68
 348 557 348 557 349 653 c 1,69,-1
 383 624 l 1,70,71
 374 607 374 607 390 571 c 0,72,73
 396 558 396 558 413 558 c 2,74,-1
 481 558 l 1,75,-1
 530 508 l 1,76,-1
 399 508 l 1,77,-1
 399 -14 l 1,78,-1
 342 46 l 1,79,-1
 342 188 l 1,80,81
 330 214 330 214 323 222 c 1,82,-1
 291 250 l 2,83,84
 255 281 255 281 214 274 c 0,19,20
EndSplineSet
EndChar

StartChar: ordmasculine
Encoding: 186 186 148
Width: 765
Flags: W
LayerCount: 2
Fore
SplineSet
339 254 m 1,0,1
 342 274 342 274 342 294 c 0,2,3
 342 399 342 399 276 459 c 0,4,5
 238 494 238 494 189 492 c 0,6,7
 119 489 119 489 88 418 c 1,8,9
 108 427 108 427 142 427 c 0,10,11
 229 427 229 427 240 346 c 0,12,13
 246 299 246 299 149 182 c 1,14,-1
 91 247 l 1,15,16
 107 258 107 258 151.5 307.5 c 128,-1,17
 196 357 196 357 196 369 c 0,18,19
 195 391 195 391 169 391 c 0,20,21
 158 391 158 391 120.5 370 c 128,-1,22
 83 349 83 349 71 349 c 0,23,24
 61 349 61 349 53 354 c 0,25,26
 14 379 14 379 14 418 c 0,27,28
 14 446 14 446 35.5 482 c 128,-1,29
 57 518 57 518 81 533 c 0,30,31
 120 557 120 557 167 557 c 0,32,33
 241 557 241 557 279 517 c 0,34,35
 339 454 339 454 350 408 c 1,36,-1
 350 558 l 1,37,-1
 764 558 l 1,38,-1
 813 508 l 1,39,-1
 401 508 l 1,40,-1
 401 297 l 1,41,42
 404 300 404 300 430 325 c 0,43,44
 465 359 465 359 485 372 c 0,45,46
 566 423 566 423 625 447 c 1,47,-1
 712 382 l 1,48,49
 645 251 645 251 645 145 c 0,50,51
 645 122 645 122 648 101 c 1,52,53
 647 87 647 87 663 -6 c 1,54,-1
 629 11 l 1,55,-1
 616 71 l 2,56,57
 600 145 600 145 600 216 c 0,58,59
 600 284 600 284 615 347 c 1,60,61
 556 326 556 326 517 292 c 0,62,63
 445 228 445 228 423 171 c 1,64,-1
 339 254 l 1,0,1
EndSplineSet
EndChar

StartChar: guillemotright
Encoding: 187 187 149
Width: 555
Flags: W
LayerCount: 2
Fore
SplineSet
348 51 m 1,0,-1
 348 241 l 1,1,2
 298 223 298 223 251 196 c 0,3,4
 240 189 240 189 198 161 c 1,5,6
 253 140 253 140 296 103 c 0,7,8
 317 85 317 85 348 51 c 1,0,-1
399 328 m 1,9,-1
 433 339 l 2,10,11
 444 342 444 342 476 352 c 1,12,13
 477 354 477 354 479 354 c 0,14,15
 490 354 490 354 508 333 c 1,16,17
 515 328 515 328 541 295 c 1,18,19
 546 283 546 283 550 267 c 1,20,21
 548 253 548 253 547 234 c 0,22,23
 543 179 543 179 544 132 c 0,24,25
 546 55 546 55 564 -35 c 1,26,27
 545 -22 545 -22 520 -3 c 1,28,29
 512 9 512 9 503 23 c 1,30,31
 498 42 498 42 490 65 c 1,32,-1
 493 253 l 2,33,34
 493 259 493 259 486.5 266.5 c 128,-1,35
 480 274 480 274 474 274 c 0,36,37
 431 274 431 274 425 273 c 0,38,39
 397 269 397 269 397 251 c 2,40,-1
 397 -66 l 1,41,-1
 386 -56 l 1,42,43
 367 -10 367 -10 327 33 c 0,44,45
 254 111 254 111 168 105 c 1,46,-1
 102 188 l 1,47,-1
 221 261 l 1,48,-1
 348 316 l 1,49,50
 348 354 348 354 322.5 400 c 128,-1,51
 297 446 297 446 265.5 469.5 c 128,-1,52
 234 493 234 493 202 493 c 0,53,54
 120 493 120 493 88 418 c 1,55,56
 124 434 124 434 156 434 c 0,57,58
 207 434 207 434 225 399 c 0,59,60
 238 374 238 374 238 354 c 0,61,62
 238 338 238 338 227 317 c 128,-1,63
 216 296 216 296 204 285 c 0,64,65
 166 252 166 252 96 214 c 1,66,-1
 38 279 l 1,67,68
 65 287 65 287 126 321 c 0,69,70
 194 359 194 359 194 375 c 0,71,72
 194 377 194 377 192 379 c 0,73,74
 181 388 181 388 168 388 c 0,75,76
 156 388 156 388 119.5 368 c 128,-1,77
 83 348 83 348 72 348 c 0,78,79
 62 348 62 348 53 354 c 0,80,81
 13 379 13 379 13 420 c 0,82,83
 13 449 13 449 34 483.5 c 128,-1,84
 55 518 55 518 81 533 c 0,85,86
 116 553 116 553 161 553 c 0,87,88
 280 553 280 553 334 461 c 0,89,90
 342 447 342 447 355 410 c 1,91,92
 354 443 354 443 350 516 c 0,93,94
 347 571 347 571 353 653 c 1,95,-1
 383 624 l 1,96,97
 374 606 374 606 390 571 c 0,98,99
 395 559 395 559 448 556 c 0,100,101
 466 555 466 555 550 556 c 1,102,-1
 599 508 l 1,103,-1
 399 508 l 1,104,-1
 399 328 l 1,9,-1
EndSplineSet
EndChar

StartChar: onequarter
Encoding: 188 188 150
Width: 529
Flags: W
LayerCount: 2
Fore
SplineSet
576 508 m 1,0,-1
 450 508 l 1,1,2
 455 496 455 496 461 480 c 1,3,4
 464 468 464 468 464 458 c 0,5,6
 464 433 464 433 443 418.5 c 128,-1,7
 422 404 422 404 396 404 c 0,8,9
 366 404 366 404 339 428 c 0,10,11
 334 433 334 433 301 468 c 2,12,-1
 264 508 l 1,13,-1
 138 508 l 1,14,15
 153 498 153 498 161 483 c 0,16,17
 164 479 164 479 166 468 c 1,18,19
 215 461 215 461 234 456 c 0,20,21
 273 446 273 446 295 426 c 0,22,23
 327 397 327 397 336 350 c 1,24,25
 348 347 348 347 382 336 c 1,26,27
 479 297 479 297 489 202 c 0,28,29
 493 164 493 164 477 137 c 0,30,31
 459 106 459 106 421 106 c 0,32,33
 400 106 400 106 385 119 c 128,-1,34
 370 132 370 132 370 153 c 0,35,36
 370 176 370 176 391 196 c 1,37,38
 406 201 406 201 418 201 c 0,39,40
 443 201 443 201 461 175 c 1,41,42
 461 185 461 185 453 213 c 1,43,44
 438 243 438 243 406 259 c 0,45,46
 399 263 399 263 382 272 c 1,47,48
 369 276 369 276 338 275 c 1,49,-1
 338 -14 l 1,50,-1
 320 1 l 1,51,-1
 309 24 l 2,52,53
 289 65 289 65 257 92 c 0,54,55
 194 144 194 144 125 149 c 1,56,-1
 59 225 l 1,57,58
 160 296 160 296 287 347 c 1,59,60
 289 403 289 403 230 419 c 1,61,62
 188 419 188 419 169 393 c 1,63,64
 171 386 171 386 171 379 c 0,65,66
 171 343 171 343 140 322 c 0,67,68
 121 309 121 309 101 309 c 0,69,70
 41 309 41 309 41 362 c 0,71,72
 41 374 41 374 43 385 c 0,73,74
 52 432 52 432 120 456 c 1,75,76
 121 458 121 458 121 463 c 1,77,78
 99 508 99 508 54 508 c 2,79,-1
 3 508 l 1,80,-1
 -49 558 l 1,81,-1
 523 558 l 1,82,-1
 576 508 l 1,0,-1
417 508 m 1,83,-1
 305 508 l 1,84,-1
 327 484 l 2,85,86
 354 454 354 454 383 454 c 0,87,88
 428 454 428 454 428 485 c 0,89,90
 428 497 428 497 417 508 c 1,83,-1
288 95 m 1,91,-1
 288 272 l 1,92,93
 236 253 236 253 209 236 c 0,94,95
 206 235 206 235 156 202 c 1,96,97
 195 187 195 187 244 143 c 0,98,99
 275 115 275 115 288 95 c 1,91,-1
EndSplineSet
EndChar

StartChar: onehalf
Encoding: 189 189 151
Width: 513
Flags: W
LayerCount: 2
Fore
SplineSet
555 508 m 1,0,-1
 378 508 l 1,1,2
 386 502 386 502 385 492 c 1,3,4
 385 472 385 472 367.5 453.5 c 128,-1,5
 350 435 350 435 330 432 c 0,6,7
 297 428 297 428 257 464 c 0,8,9
 246 474 246 474 210 508 c 1,10,11
 204 511 204 511 165 508 c 0,12,13
 154 507 154 507 161 477 c 0,14,15
 163 467 163 467 183 459 c 1,16,-1
 215 451 l 2,17,18
 232 446 232 446 251 416 c 0,19,20
 268 390 268 390 272 369 c 0,21,22
 274 359 274 359 274 342 c 1,23,24
 335 422 335 422 411 454 c 1,25,-1
 493 400 l 1,26,27
 439 349 439 349 420 314 c 0,28,29
 373 226 373 226 373 143 c 0,30,31
 373 81 373 81 419 -8 c 1,32,-1
 377 13 l 1,33,-1
 354 82 l 2,34,35
 336 136 336 136 336 187 c 0,36,37
 336 270 336 270 378 359 c 1,38,39
 372 346 372 346 340 311 c 0,40,41
 325 296 325 296 295 260 c 1,42,43
 274 233 274 233 238 192 c 1,44,45
 199 154 199 154 159 143 c 1,46,47
 113 143 113 143 84 186 c 0,48,49
 63 217 63 217 64 246 c 0,50,51
 64 252 64 252 66 254 c 2,52,-1
 86 272 l 1,53,54
 100 218 100 218 127 218 c 0,55,56
 136 218 136 218 145 221 c 0,57,58
 168 229 168 229 217 282 c 0,59,60
 234 300 234 300 238 326 c 0,61,62
 242 348 242 348 235 368 c 0,63,64
 227 392 227 392 208 397 c 0,65,66
 183 403 183 403 168 391 c 1,67,68
 168 324 168 324 115 324 c 0,69,70
 49 324 49 324 49 390 c 0,71,72
 49 430 49 430 89 456 c 0,73,74
 101 464 101 464 125 465 c 1,75,-1
 124 469 l 1,76,-1
 102 508 l 1,77,-1
 -2 508 l 1,78,-1
 -50 558 l 1,79,-1
 505 558 l 1,80,-1
 555 508 l 1,0,-1
334 508 m 1,81,-1
 240 508 l 1,82,83
 293 455 293 455 304 455 c 0,84,85
 316 455 316 455 326 469 c 128,-1,86
 336 483 336 483 336 495 c 0,87,88
 336 501 336 501 334 508 c 1,81,-1
EndSplineSet
EndChar

StartChar: threequarters
Encoding: 190 190 152
Width: 776
Flags: W
LayerCount: 2
Fore
SplineSet
817 508 m 1,0,-1
 273 508 l 1,1,2
 252 510 252 510 252 494 c 0,3,4
 252 485 252 485 257 476 c 1,5,-1
 258 475 l 1,6,7
 271 455 271 455 360 437 c 0,8,9
 370 435 370 435 380 435 c 0,10,11
 434 435 434 435 479 461 c 1,12,13
 491 442 491 442 527 408 c 1,14,15
 568 379 568 379 633 382 c 0,16,17
 659 383 659 383 700 398 c 1,18,-1
 760 330 l 1,19,20
 682 234 682 234 682 150 c 0,21,22
 682 96 682 96 688 46 c 0,23,24
 689 42 689 42 696 -23 c 1,25,-1
 663 -9 l 1,26,27
 658 8 658 8 645 81 c 0,28,29
 640 109 640 109 640 141 c 0,30,31
 640 186 640 186 652 242 c 0,32,33
 654 253 654 253 679 320 c 1,34,35
 616 316 616 316 573 336 c 0,36,37
 512 364 512 364 485 396 c 1,38,39
 418 329 418 329 417 325 c 0,40,41
 414 312 414 312 414 305 c 0,42,43
 414 276 414 276 454 278 c 0,44,45
 469 279 469 279 502 297 c 128,-1,46
 535 315 535 315 535 315 c 1,47,48
 563 315 563 315 598 233 c 0,49,50
 601 226 601 226 601 211 c 0,51,52
 601 123 601 123 538 93 c 0,53,54
 504 77 504 77 475 77 c 0,55,56
 473 77 473 77 417 91 c 1,57,58
 393 101 393 101 365 130 c 0,59,60
 350 145 350 145 319 208 c 1,61,62
 311 179 311 179 287 158.5 c 128,-1,63
 263 138 263 138 233 136 c 0,64,65
 168 131 168 131 113.5 176 c 128,-1,66
 59 221 59 221 41 282 c 0,67,68
 28 327 28 327 15 383 c 1,69,-1
 5 478 l 1,70,-1
 37 461 l 1,71,72
 41 432 41 432 60 355 c 1,73,74
 117 204 117 204 204 204 c 0,75,76
 240 204 240 204 266 222 c 0,77,78
 296 243 296 243 296 277 c 0,79,80
 296 324 296 324 272 318 c 0,81,82
 263 316 263 316 234 302 c 0,83,84
 210 291 210 291 194 291 c 0,85,86
 111 291 111 291 108 400 c 0,87,88
 106 466 106 466 159 508 c 1,89,-1
 -1 508 l 1,90,-1
 -49 558 l 1,91,-1
 768 558 l 1,92,-1
 817 508 l 1,0,-1
551 207 m 1,93,94
 553 209 553 209 553 213 c 0,95,96
 553 226 553 226 537 244 c 1,97,98
 517 228 517 228 473 217 c 0,99,100
 458 213 458 213 429 225 c 0,101,102
 372 248 372 248 372 312 c 0,103,104
 372 341 372 341 385 380 c 0,105,106
 385 382 385 382 384 383 c 0,107,108
 307 399 307 399 258 426 c 0,109,110
 247 432 247 432 230.5 448.5 c 128,-1,111
 214 465 214 465 212 474 c 1,112,-1
 210 476 l 1,113,114
 190 476 190 476 169.5 436.5 c 128,-1,115
 149 397 149 397 151 376 c 0,116,117
 153 352 153 352 183 352 c 0,118,119
 216 352 216 352 257 384 c 0,120,121
 261 387 261 387 266 387 c 0,122,123
 290 387 290 387 312 349 c 0,124,125
 328 322 328 322 333 290 c 0,126,127
 335 280 335 280 339 253 c 0,128,129
 346 214 346 214 387 180.5 c 128,-1,130
 428 147 428 147 469 142 c 0,131,132
 504 138 504 138 527.5 155 c 128,-1,133
 551 172 551 172 551 207 c 1,93,94
EndSplineSet
EndChar

StartChar: questiondown
Encoding: 191 191 153
Width: 1
Flags: W
LayerCount: 2
Fore
SplineSet
-97 320 m 0,0,1
 -94 311 -94 311 -94 225 c 2,2,-1
 -94 -42 l 1,3,-1
 -113 -25 l 1,4,5
 -120 -10 -120 -10 -137 16 c 1,6,7
 -162 47 -162 47 -210 47 c 0,8,9
 -229 47 -229 47 -265 40 c 128,-1,10
 -301 33 -301 33 -317 32 c 0,11,12
 -350 30 -350 30 -386 44 c 0,13,14
 -426 59 -426 59 -442 84 c 0,15,16
 -471 130 -471 130 -472 177 c 0,17,18
 -472 210 -472 210 -458 250 c 0,19,20
 -449 275 -449 275 -447 274 c 2,21,-1
 -424 256 l 1,22,23
 -434 224 -434 224 -434 197 c 0,24,25
 -434 142 -434 142 -401 118 c 0,26,27
 -373 98 -373 98 -271 108 c 0,28,29
 -251 110 -251 110 -242 110 c 0,30,31
 -190 110 -190 110 -166 88 c 0,32,33
 -163 86 -163 86 -143 64 c 1,34,-1
 -143 274 l 2,35,36
 -143 284 -143 284 -150 305.5 c 128,-1,37
 -157 327 -157 327 -164 325 c 1,38,39
 -166 328 -166 328 -171 328 c 0,40,41
 -179 328 -179 328 -197 321 c 1,42,43
 -210 314 -210 314 -235 291 c 1,44,45
 -252 271 -252 271 -256 244 c 1,46,47
 -242 248 -242 248 -233 248 c 0,48,49
 -216 248 -216 248 -204.5 234.5 c 128,-1,50
 -193 221 -193 221 -193 204 c 0,51,52
 -194 179 -194 179 -214 164 c 128,-1,53
 -234 149 -234 149 -259 149 c 0,54,55
 -278 149 -278 149 -299 163 c 128,-1,56
 -320 177 -320 177 -325 195 c 128,-1,57
 -330 213 -330 213 -330 231 c 0,58,59
 -330 269 -330 269 -309 296 c 0,60,61
 -299 308 -299 308 -273 338 c 1,62,63
 -257 348 -257 348 -227 366 c 1,64,65
 -216 379 -216 379 -175 379 c 0,66,67
 -118 379 -118 379 -97 320 c 0,0,1
EndSplineSet
EndChar

StartChar: Agrave
Encoding: 192 192 154
Width: 599
Flags: W
LayerCount: 2
Fore
SplineSet
644 507 m 1,0,-1
 366 507 l 1,1,2
 349 511 349 511 296 492 c 1,3,4
 307 453 307 453 359 430 c 0,5,6
 370 425 370 425 393 425 c 0,7,8
 469 425 469 425 500 453 c 1,9,-1
 576 374 l 1,10,11
 528 331 528 331 508 275 c 0,12,13
 497 244 497 244 482 159 c 0,14,15
 473 108 473 108 482 67 c 0,16,17
 487 46 487 46 494 25 c 1,18,-1
 489 -147 l 1,19,-1
 468 -123 l 1,20,21
 463 -106 463 -106 454 -84 c 1,22,23
 427 -32 427 -32 384 -13 c 1,24,-1
 384 -188 l 1,25,-1
 358 -150 l 1,26,-1
 332 -109 l 2,27,28
 279 -25 279 -25 190 -12 c 1,29,-1
 132 51 l 1,30,31
 140 51 140 51 181 74 c 2,32,-1
 229 101 l 1,33,34
 225 100 225 100 202 107 c 0,35,36
 124 131 124 131 73 229 c 1,37,38
 28 318 28 318 32 406 c 0,39,40
 33 417 33 417 42 460 c 1,41,-1
 72 444 l 1,42,43
 67 422 67 422 65 399 c 0,44,45
 59 316 59 316 134 226 c 0,46,47
 186 164 186 164 251 164 c 0,48,49
 289 164 289 164 320 181 c 0,50,51
 358 201 358 201 358 236 c 0,52,53
 358 255 358 255 341 275 c 0,54,55
 338 279 338 279 332 279 c 0,56,57
 327 279 327 279 293.5 266 c 128,-1,58
 260 253 260 253 243 253 c 0,59,60
 229 253 229 253 216 255 c 0,61,62
 190 259 190 259 146 297 c 0,63,64
 125 315 125 315 122 371 c 0,65,66
 120 405 120 405 140.5 445.5 c 128,-1,67
 161 486 161 486 189 508 c 1,68,-1
 -6 508 l 1,69,-1
 -55 558 l 1,70,-1
 594 558 l 1,71,-1
 644 507 l 1,0,-1
255 467 m 0,72,73
 254 469 254 469 252 469 c 0,74,75
 235 469 235 469 205 425 c 0,76,77
 177 385 177 385 173 364 c 0,78,79
 172 358 172 358 172 349 c 0,80,81
 172 315 172 315 211 315 c 0,82,83
 237 315 237 315 290 347 c 0,84,85
 310 359 310 359 317 359 c 0,86,87
 321 359 321 359 325 356 c 2,88,-1
 340 342 l 2,89,90
 384 301 384 301 394 254 c 0,91,92
 401 221 401 221 389 191 c 0,93,94
 382 173 382 173 383 164 c 1,95,96
 383 133 383 133 384 127 c 1,97,-1
 384 36 l 1,98,99
 409 26 409 26 445 -31 c 1,100,-1
 452 51 l 1,101,-1
 447 101 l 2,102,103
 439 185 439 185 439 230 c 0,104,105
 440 307 440 307 477 367 c 0,106,107
 478 370 478 370 475 370 c 0,108,109
 469 370 469 370 456 369 c 128,-1,110
 443 368 443 368 437 368 c 0,111,112
 373 368 373 368 309 410 c 0,113,114
 273 433 273 433 255 467 c 0,72,73
341 -75 m 1,115,-1
 341 104 l 1,116,117
 334 100 334 100 278 72 c 0,118,119
 270 68 270 68 223 37 c 1,120,121
 310 -10 310 -10 341 -75 c 1,115,-1
EndSplineSet
EndChar

StartChar: Aacute
Encoding: 193 193 155
Width: 672
Flags: W
LayerCount: 2
Fore
SplineSet
715 508 m 1,0,-1
 306 508 l 1,1,2
 305 490 305 490 303 463 c 1,3,4
 310 435 310 435 322 399 c 1,5,6
 349 351 349 351 365 351 c 0,7,8
 373 351 373 351 384 361 c 1,9,10
 399 380 399 380 439 415 c 1,11,-1
 466 433 l 1,12,13
 484 441 484 441 497 443 c 0,14,15
 532 447 532 447 565 436 c 0,16,17
 603 423 603 423 619 395 c 1,18,19
 636 355 636 355 636 337 c 0,20,21
 636 298 636 298 586 263 c 1,22,23
 626 194 626 194 626 165 c 0,24,25
 625 120 625 120 576 99 c 0,26,27
 553 89 553 89 525 89 c 0,28,29
 486 89 486 89 469 100 c 0,30,31
 413 137 413 137 384 204 c 1,32,33
 364 90 364 90 254 90 c 0,34,35
 170 90 170 90 106 162 c 0,36,37
 68 205 68 205 57 243 c 1,38,39
 41 282 41 282 24 373 c 2,40,-1
 8 457 l 1,41,-1
 45 438 l 1,42,43
 46 429 46 429 54 382 c 0,44,45
 55 377 55 377 64 336 c 0,46,47
 76 283 76 283 120 225 c 0,48,49
 138 202 138 202 170 179 c 0,50,51
 208 152 208 152 231 152 c 0,52,53
 271 152 271 152 307 177 c 1,54,55
 348 204 348 204 348 242 c 0,56,57
 348 264 348 264 335 282 c 0,58,59
 333 284 333 284 331 284 c 1,60,61
 340 284 340 284 340 282 c 0,62,63
 340 277 340 277 306 265 c 0,64,65
 252 246 252 246 232 247 c 0,66,67
 199 249 199 249 194 251 c 0,68,69
 152 261 152 261 134 313 c 0,70,71
 126 337 126 337 125 358 c 0,72,73
 124 394 124 394 147 441 c 128,-1,74
 170 488 170 488 200 508 c 1,75,-1
 -3 508 l 1,76,-1
 -52 558 l 1,77,-1
 666 558 l 1,78,-1
 715 508 l 1,0,-1
310 350 m 1,79,80
 282 392 282 392 251 451 c 1,81,82
 250 456 250 456 246 456 c 0,83,84
 226 456 226 456 199.5 420 c 128,-1,85
 173 384 173 384 171 362 c 0,86,87
 165 304 165 304 211 304 c 0,88,89
 254 304 254 304 310 350 c 1,79,80
581 172 m 0,90,91
 587 183 587 183 586 191 c 1,92,93
 586 213 586 213 560 241 c 1,94,95
 535 222 535 222 508 222 c 0,96,97
 468 222 468 222 461 252 c 0,98,99
 457 270 457 270 466 291 c 0,100,101
 481 326 481 326 516 326 c 0,102,103
 537 326 537 326 552 306 c 1,104,105
 583 334 583 334 583 354 c 0,106,107
 583 368 583 368 567 379 c 0,108,109
 539 398 539 398 515 398 c 0,110,111
 473 398 473 398 414 336 c 0,112,113
 384 304 384 304 384 292 c 0,114,115
 385 237 385 237 427 190 c 1,116,117
 470 140 470 140 524 140 c 0,118,119
 563 140 563 140 581 172 c 0,90,91
EndSplineSet
EndChar

StartChar: Acircumflex
Encoding: 194 194 156
Width: 626
Flags: W
LayerCount: 2
Fore
SplineSet
592 165 m 0,0,1
 562 121 562 121 513 121 c 0,2,3
 462 121 462 121 418 163 c 0,4,5
 379 199 379 199 360 252 c 0,6,7
 346 291 346 291 343 313 c 1,8,-1
 343 -6 l 1,9,-1
 327 8 l 1,10,-1
 298 66 l 2,11,12
 249 164 249 164 96 178 c 1,13,-1
 37 275 l 1,14,15
 149 351 149 351 270 417 c 1,16,17
 254 494 254 494 153 494 c 0,18,19
 100 494 100 494 93 457 c 0,20,21
 91 449 91 449 97 447 c 1,22,-1
 110 447 l 1,23,24
 128 445 128 445 132 414 c 0,25,26
 135 389 135 389 118 370.5 c 128,-1,27
 101 352 101 352 76 352 c 0,28,29
 65 352 65 352 56 356 c 0,30,31
 26 369 26 369 24 371 c 0,32,33
 6 387 6 387 6 429 c 0,34,35
 6 479 6 479 62 511 c 0,36,37
 110 539 110 539 164 539 c 0,38,39
 197 539 197 539 218 527 c 0,40,41
 280 492 280 492 297 452 c 1,42,-1
 297 608 l 1,43,-1
 345 551 l 1,44,-1
 345 397 l 1,45,46
 356 437 356 437 370 453 c 1,47,48
 371 456 371 456 394 481 c 0,49,50
 451 545 451 545 512 545 c 0,51,52
 557 545 557 545 582 506 c 0,53,54
 604 473 604 473 604 426 c 0,55,56
 604 358 604 358 565 329 c 1,57,58
 608 296 608 296 608 224 c 0,59,60
 608 189 608 189 592 165 c 0,0,1
562 446 m 0,61,62
 546 472 546 472 507 472 c 0,63,64
 471 472 471 472 410 426 c 0,65,66
 356 385 356 385 356 356 c 0,67,68
 356 312 356 312 427 226 c 0,69,70
 457 190 457 190 495 190 c 0,71,72
 521 190 521 190 544.5 207.5 c 128,-1,73
 568 225 568 225 568 250 c 0,74,75
 568 276 568 276 538 298 c 1,76,77
 514 277 514 277 484 277 c 0,78,79
 445 277 445 277 437 315 c 0,80,81
 430 347 430 347 447 373.5 c 128,-1,82
 464 400 464 400 496 400 c 0,83,84
 518 400 518 400 537 381 c 1,85,86
 570 401 570 401 570 422 c 0,87,88
 570 433 570 433 562 446 c 0,61,62
296 123 m 1,89,-1
 296 348 l 1,90,91
 276 335 276 335 216 297 c 1,92,93
 198 284 198 284 145 247 c 1,94,95
 209 217 209 217 235 193 c 0,96,97
 276 156 276 156 296 123 c 1,89,-1
EndSplineSet
EndChar

StartChar: Atilde
Encoding: 195 195 157
Width: 546
Flags: W
LayerCount: 2
Fore
SplineSet
18 433 m 0,0,1
 10 489 10 489 70 534 c 0,2,3
 124 574 124 574 180 574 c 0,4,5
 195 574 195 574 204 571 c 0,6,7
 267 550 267 550 283 486 c 1,8,-1
 323 527 l 2,9,10
 375 580 375 580 425 580 c 0,11,12
 461 580 461 580 484 548 c 0,13,14
 505 520 505 520 505 483 c 0,15,16
 505 442 505 442 474 407 c 1,17,18
 486 396 486 396 501 370 c 1,19,20
 512 340 512 340 512 316 c 0,21,22
 512 281 512 281 493.5 258 c 128,-1,23
 475 235 475 235 441 235 c 0,24,25
 386 235 386 235 333 284 c 128,-1,26
 280 333 280 333 273 388 c 1,27,-1
 233 337 l 1,28,29
 240 321 240 321 259 288 c 1,30,31
 269 275 269 275 331 226 c 0,32,33
 385 183 385 183 386 135 c 0,34,35
 387 103 387 103 353 69 c 0,36,37
 323 39 323 39 289 26 c 1,38,39
 329 8 329 8 406.5 -53.5 c 128,-1,40
 484 -115 484 -115 512 -152 c 1,41,-1
 516 -196 l 1,42,43
 455 -132 455 -132 328 -62 c 0,44,45
 248 -18 248 -18 129 -6 c 1,46,-1
 70 96 l 1,47,48
 114 79 114 79 159 77 c 0,49,50
 212 75 212 75 266 91 c 0,51,52
 336 112 336 112 336 154 c 0,53,54
 336 182 336 182 312 194 c 1,55,56
 301 198 301 198 291 201 c 1,57,58
 273 175 273 175 250 164 c 0,59,60
 191 135 191 135 167 135 c 0,61,62
 105 135 105 135 53 180 c 0,63,64
 26 204 26 204 31 262 c 0,65,66
 34 295 34 295 92 331 c 2,67,-1
 195 394 l 1,68,69
 247 435 247 435 247 466 c 0,70,71
 247 489 247 489 235 506 c 128,-1,72
 223 523 223 523 201 523 c 0,73,74
 189 523 189 523 176 518 c 0,75,76
 140 505 140 505 133 500 c 0,77,78
 109 485 109 485 102 465 c 1,79,80
 129 449 129 449 129 427 c 0,81,82
 129 418 129 418 124 403 c 0,83,84
 115 376 115 376 79 376 c 0,85,86
 26 376 26 376 18 433 c 0,0,1
468 334 m 0,87,88
 468 350 468 350 443 372 c 1,89,90
 429 351 429 351 408 351 c 0,91,92
 388 351 388 351 372.5 367 c 128,-1,93
 357 383 357 383 357 403 c 0,94,95
 357 422 357 422 370 434 c 128,-1,96
 383 446 383 446 402 446 c 0,97,98
 417 446 417 446 430 437 c 1,99,100
 461 456 461 456 458 487 c 0,101,102
 455 511 455 511 425 511 c 0,103,104
 390 511 390 511 337 475 c 0,105,106
 302 451 302 451 302 409 c 0,107,108
 302 385 302 385 333 342 c 0,109,110
 347 323 347 323 372.5 308.5 c 128,-1,111
 398 294 398 294 421 294 c 0,112,113
 438 294 438 294 453 305.5 c 128,-1,114
 468 317 468 317 468 334 c 0,87,88
231 244 m 1,115,116
 233 245 233 245 233 249 c 1,117,118
 231 254 231 254 218 293 c 1,119,120
 213 314 213 314 214 316 c 1,121,-1
 89 237 l 2,122,123
 84 234 84 234 83 228 c 1,124,125
 83 216 83 216 112 205 c 0,126,127
 138 195 138 195 152 196 c 0,128,129
 180 198 180 198 203 208 c 0,130,131
 236 222 236 222 231 244 c 1,115,116
EndSplineSet
EndChar

StartChar: Adieresis
Encoding: 196 196 158
Width: 554
Flags: W
LayerCount: 2
Fore
SplineSet
247 464 m 0,0,1
 244 500 244 500 223 500 c 0,2,3
 208 500 208 500 203 498 c 0,4,5
 193 494 193 494 173 475 c 0,6,7
 169 471 169 471 169 469 c 1,8,9
 172 466 172 466 176 458 c 0,10,11
 185 441 185 441 185 425 c 0,12,13
 185 405 185 405 167 387 c 128,-1,14
 149 369 149 369 129 370 c 0,15,16
 71 374 71 374 71 431 c 0,17,18
 71 478 71 478 109.5 516.5 c 128,-1,19
 148 555 148 555 194 555 c 0,20,21
 234 555 234 555 269 522 c 0,22,23
 277 514 277 514 291 496 c 0,24,25
 299 485 299 485 302 488 c 0,26,27
 324 510 324 510 361 535 c 1,28,29
 387 544 387 544 406 544 c 0,30,31
 415 544 415 544 423 542 c 1,32,33
 510 542 510 542 525 470 c 0,34,35
 529 449 529 449 518 430 c 0,36,37
 516 426 516 426 492 397 c 1,38,39
 525 359 525 359 524 339 c 0,40,41
 520 289 520 289 493 269 c 1,42,-1
 536 228 l 1,43,44
 509 211 509 211 489 185 c 0,45,46
 449 133 449 133 446 107 c 0,47,48
 443 80 443 80 453 54 c 0,49,50
 457 45 457 45 477 7 c 1,51,-1
 451 -17 l 1,52,53
 407 59 407 59 402 99 c 0,54,55
 400 115 400 115 400 133 c 0,56,57
 400 154 400 154 404 175 c 1,58,59
 420 209 420 209 434 249 c 0,60,61
 434 250 434 250 433 250 c 0,62,63
 397 246 397 246 367 266 c 0,64,65
 364 268 364 268 318 306 c 0,66,67
 289 330 289 330 275 379 c 1,68,69
 273 381 273 381 270 381 c 0,70,71
 247 381 247 381 222 339 c 0,72,73
 199 301 199 301 199 276 c 0,74,75
 198 239 198 239 232 239 c 0,76,77
 243 239 243 239 267 256 c 0,78,79
 273 260 273 260 285 277 c 0,80,81
 293 288 293 288 307 288 c 0,82,83
 312 288 312 288 316 285 c 1,84,85
 322 287 322 287 346 257 c 0,86,87
 393 199 393 199 393 148 c 0,88,89
 393 107 393 107 364.5 77.5 c 128,-1,90
 336 48 336 48 295 36 c 0,91,92
 277 31 277 31 261 31 c 0,93,94
 176 31 176 31 117 115 c 0,95,96
 65 190 65 190 61 280 c 0,97,98
 60 304 60 304 60 382 c 1,99,100
 84 370 84 370 88 366 c 1,101,102
 83 284 83 284 119 198 c 0,103,104
 133 165 133 165 162 137 c 0,105,106
 207 94 207 94 242 96 c 0,107,108
 287 98 287 98 323 120 c 0,109,110
 355 139 355 139 355 165 c 0,111,112
 355 178 355 178 348 189 c 1,113,114
 343 206 343 206 328 206 c 0,115,116
 322 206 322 206 316 203 c 0,117,118
 275 184 275 184 245 184 c 0,119,120
 202 184 202 184 173.5 211.5 c 128,-1,121
 145 239 145 239 145 281 c 0,122,123
 145 345 145 345 221 423 c 0,124,125
 248 451 248 451 247 464 c 0,0,1
474 348 m 1,126,127
 466 348 466 348 449 343.5 c 128,-1,128
 432 339 432 339 424 339 c 0,129,130
 395 339 395 339 376 362 c 0,131,132
 367 373 367 373 367 398 c 0,133,134
 368 432 368 432 401 446 c 0,135,136
 411 450 411 450 420 450 c 0,137,138
 435 450 435 450 458 434 c 1,139,140
 475 440 475 440 475 462 c 0,141,142
 475 469 475 469 474 477 c 0,143,144
 468 503 468 503 439 503 c 0,145,146
 406 503 406 503 374 483 c 0,147,148
 307 441 307 441 307 413 c 0,149,150
 307 409 307 409 309 406 c 1,151,152
 318 374 318 374 320 367 c 0,153,154
 339 314 339 314 401 298 c 0,155,156
 413 295 413 295 421 295 c 0,157,158
 453 295 453 295 473 326 c 0,159,160
 479 335 479 335 477 342 c 0,161,162
 477 345 477 345 474 348 c 1,126,127
EndSplineSet
EndChar

StartChar: Aring
Encoding: 197 197 159
Width: 772
Flags: W
LayerCount: 2
Fore
SplineSet
717 211 m 0,0,1
 717 225 717 225 686 256 c 1,2,3
 682 255 682 255 660 243 c 0,4,5
 645 235 645 235 632 235 c 0,6,7
 613 235 613 235 595 247.5 c 128,-1,8
 577 260 577 260 573 278 c 0,9,10
 568 303 568 303 586 323.5 c 128,-1,11
 604 344 604 344 629 344 c 0,12,13
 641 344 641 344 651 338 c 1,14,15
 657 339 657 339 662 339 c 0,16,17
 666 339 666 339 673.5 337 c 128,-1,18
 681 335 681 335 684 335 c 1,19,-1
 690 339 l 1,20,21
 707 363 707 363 707 384 c 0,22,23
 707 406 707 406 689.5 420 c 128,-1,24
 672 434 672 434 650 434 c 0,25,26
 602 434 602 434 545.5 383.5 c 128,-1,27
 489 333 489 333 489 286 c 0,28,29
 490 234 490 234 548 192 c 0,30,31
 597 157 597 157 639 157 c 0,32,33
 668 157 668 157 690 169 c 0,34,35
 717 184 717 184 717 211 c 0,0,1
488 207 m 1,36,-1
 488 -6 l 1,37,38
 510 -7 510 -7 536 -59 c 1,39,-1
 536 156 l 1,40,41
 516 167 516 167 488 207 c 1,36,-1
436 -103 m 1,42,-1
 436 76 l 1,43,44
 397 63 397 63 314 9 c 1,45,46
 341 -2 341 -2 381.5 -39 c 128,-1,47
 422 -76 422 -76 436 -103 c 1,42,-1
669 88 m 0,48,49
 629 88 629 88 580 110 c 1,50,-1
 580 -175 l 1,51,-1
 559 -151 l 1,52,53
 528 -62 528 -62 485 -41 c 1,54,-1
 485 -216 l 1,55,56
 462 -196 462 -196 428 -145 c 128,-1,57
 394 -94 394 -94 370 -74 c 0,58,59
 332 -42 332 -42 281 -40 c 1,60,-1
 223 23 l 1,61,62
 235 24 235 24 270 45 c 0,63,64
 313 70 313 70 320 73 c 0,65,66
 358 87 358 87 418 110 c 1,67,68
 397 119 397 119 368 119 c 0,69,70
 345 119 345 119 298 113.5 c 128,-1,71
 251 108 251 108 228 108 c 0,72,73
 73 108 73 108 46 237 c 0,74,75
 34 294 34 294 52 358 c 0,76,77
 65 405 65 405 83 417 c 1,78,-1
 103 397 l 1,79,80
 76 359 76 359 76 310 c 0,81,82
 76 224 76 224 152 199 c 0,83,84
 188 187 188 187 299 187 c 0,85,86
 365 187 365 187 407 161 c 1,87,-1
 438 137 l 1,88,-1
 438 465 l 2,89,90
 438 472 438 472 434 483 c 128,-1,91
 430 494 430 494 425 494 c 1,92,93
 421 498 421 498 410 498 c 0,94,95
 371 498 371 498 327 451 c 0,96,97
 286 408 286 408 276 366 c 1,98,99
 294 369 294 369 303 369 c 0,100,101
 336 369 336 369 344 326 c 0,102,103
 345 321 345 321 345 311 c 0,104,105
 345 285 345 285 326 270.5 c 128,-1,106
 307 256 307 256 280 256 c 0,107,108
 196 256 196 256 195 351 c 0,109,110
 195 421 195 421 251 477 c 0,111,112
 300 526 300 526 372 549 c 0,113,114
 391 555 391 555 399 555 c 0,115,116
 427 555 427 555 457 530.5 c 128,-1,117
 487 506 487 506 487 478 c 2,118,-1
 487 366 l 1,119,120
 501 411 501 411 549 456 c 0,121,122
 600 505 600 505 643 505 c 0,123,124
 687 505 687 505 719.5 465.5 c 128,-1,125
 752 426 752 426 752 382 c 0,126,127
 752 333 752 333 712 291 c 1,128,129
 751 219 751 219 750 181 c 0,130,131
 749 88 749 88 669 88 c 0,48,49
EndSplineSet
EndChar

StartChar: AE
Encoding: 198 198 160
Width: 451
Flags: W
LayerCount: 2
Fore
SplineSet
499 508 m 1,0,-1
 149 508 l 1,1,-1
 149 267 l 2,2,3
 149 215 149 215 186 215 c 0,4,5
 204 215 204 215 228 232 c 0,6,7
 238 239 238 239 261 262 c 1,8,9
 286 294 286 294 303 359 c 1,10,11
 249 372 249 372 242 406 c 0,12,13
 236 434 236 434 254 457.5 c 128,-1,14
 272 481 272 481 300 481 c 0,15,16
 343 481 343 481 371 428 c 1,17,18
 377 420 377 420 377 371 c 0,19,20
 377 314 377 314 338 231 c 1,21,22
 369 170 369 170 368 143 c 0,23,24
 365 79 365 79 311 47 c 0,25,26
 282 30 282 30 233 30 c 0,27,28
 192 30 192 30 163 41 c 1,29,30
 141 51 141 51 103 78 c 0,31,32
 89 88 89 88 63 120 c 0,33,34
 48 139 48 139 29.5 190 c 128,-1,35
 11 241 11 241 8 268 c 1,36,-1
 32 256 l 1,37,38
 44 227 44 227 76 174 c 1,39,40
 138 94 138 94 210 94 c 0,41,42
 240 94 240 94 272 107 c 0,43,44
 339 134 339 134 331 168 c 0,45,46
 327 188 327 188 303 198 c 1,47,48
 280 169 280 169 249 161 c 1,49,50
 228 150 228 150 204 150 c 0,51,52
 186 150 186 150 171 159 c 1,53,54
 143 167 143 167 128 185 c 0,55,56
 119 196 119 196 104 229 c 0,57,58
 100 238 100 238 100 262 c 2,59,-1
 100 508 l 1,60,-1
 -3 508 l 1,61,-1
 -52 558 l 1,62,-1
 313 558 l 2,63,64
 322 558 322 558 325 564 c 1,65,66
 337 576 337 576 337 590 c 0,67,68
 336 616 336 616 296 622 c 0,69,70
 272 626 272 626 252 623 c 0,71,72
 234 621 234 621 146 620 c 0,73,74
 94 620 94 620 71 625 c 0,75,76
 39 633 39 633 9 659 c 128,-1,77
 -21 685 -21 685 -27 716 c 0,78,79
 -30 732 -30 732 -23 766 c 0,80,81
 -17 795 -17 795 -7 795 c 0,82,83
 -5 795 -5 795 -3 794 c 2,84,-1
 26 778 l 1,85,86
 7 770 7 770 3 757 c 1,87,-1
 3 727 l 1,88,89
 4 718 4 718 21 708 c 0,90,91
 35 700 35 700 47 698 c 0,92,93
 79 693 79 693 145 694 c 0,94,95
 194 695 194 695 217 694 c 0,96,97
 275 692 275 692 297 680 c 0,98,99
 369 642 369 642 371 558 c 1,100,-1
 449 558 l 1,101,-1
 499 508 l 1,0,-1
EndSplineSet
EndChar

StartChar: Ccedilla
Encoding: 199 199 161
Width: 887
Flags: W
LayerCount: 2
Fore
SplineSet
933 508 m 1,0,-1
 615 508 l 1,1,-1
 615 344 l 2,2,3
 615 316 615 316 621 314 c 1,4,5
 643 316 643 316 689 364 c 0,6,7
 740 417 740 417 745 420 c 1,8,9
 770 406 770 406 787 384 c 0,10,11
 835 321 835 321 835 252 c 0,12,13
 835 143 835 143 768 91 c 0,14,15
 728 60 728 60 675 60 c 0,16,17
 564 60 564 60 485 210 c 0,18,19
 467 244 467 244 462 251 c 1,20,21
 449 201 449 201 439 183 c 0,22,23
 421 150 421 150 379.5 128 c 128,-1,24
 338 106 338 106 299 106 c 0,25,26
 229 106 229 106 166 163 c 0,27,28
 129 197 129 197 94 263 c 1,29,30
 84 294 84 294 71 326 c 2,31,-1
 66 338 l 2,32,33
 47 385 47 385 42 425 c 0,34,35
 41 428 41 428 36 478 c 1,36,-1
 66 462 l 1,37,38
 87 395 87 395 99 364 c 0,39,40
 122 304 122 304 148 272 c 2,41,-1
 186 226 l 1,42,43
 222 193 222 193 286 193 c 0,44,45
 363 193 363 193 405 252 c 0,46,47
 434 292 434 292 434 324 c 256,48,49
 434 356 434 356 406 383 c 1,50,51
 402 367 402 367 368 336 c 0,52,53
 339 310 339 310 325 302 c 0,54,55
 293 284 293 284 268 284 c 0,56,57
 223 284 223 284 203 348 c 0,58,59
 201 354 201 354 201 400 c 2,60,-1
 201 508 l 1,61,-1
 4 508 l 1,62,-1
 -46 558 l 1,63,-1
 884 558 l 1,64,-1
 933 508 l 1,0,-1
772 338 m 1,65,66
 766 320 766 320 733 291 c 0,67,68
 706 267 706 267 690 257 c 0,69,70
 656 236 656 236 631 236 c 0,71,72
 587 236 587 236 568 303 c 1,73,74
 566 315 566 315 566 355 c 2,75,-1
 566 508 l 1,76,-1
 250 508 l 1,77,-1
 250 373 l 1,78,79
 257 368 257 368 266 368 c 0,80,81
 295 368 295 368 343 419 c 1,82,83
 357 438 357 438 380 465 c 1,84,85
 421 444 421 444 463 346 c 0,86,87
 488 287 488 287 515 224 c 1,88,89
 541 187 541 187 550 179 c 0,90,91
 592 142 592 142 649 142 c 0,92,93
 732 142 732 142 773 210 c 0,94,95
 797 250 797 250 797 279 c 256,96,97
 797 308 797 308 772 338 c 1,65,66
EndSplineSet
EndChar

StartChar: Egrave
Encoding: 200 200 162
Width: 600
Flags: W
LayerCount: 2
Fore
SplineSet
653 508 m 1,0,-1
 332 508 l 1,1,-1
 332 172 l 2,2,3
 332 138 332 138 361 138 c 0,4,5
 403 138 403 138 474 226 c 0,6,7
 493 249 493 249 496 289 c 1,8,9
 489 287 489 287 481 287 c 0,10,11
 459 287 459 287 442 299 c 0,12,13
 422 312 422 312 418 332 c 0,14,15
 415 344 415 344 419 360 c 0,16,17
 430 412 430 412 480 412 c 0,18,19
 487 412 487 412 504 409 c 0,20,21
 538 403 538 403 558 362 c 1,22,23
 563 348 563 348 570 305 c 1,24,25
 564 255 564 255 553 227 c 0,26,27
 546 208 546 208 515 161 c 0,28,29
 500 138 500 138 461 109.5 c 128,-1,30
 422 81 422 81 397 76 c 0,31,32
 362 69 362 69 340 85 c 0,33,34
 293 118 293 118 282 169 c 1,35,-1
 282 392 l 1,36,37
 275 422 275 422 232 470 c 0,38,39
 205 500 205 500 149 500 c 0,40,41
 84 500 84 500 76 448 c 0,42,43
 74 440 74 440 74 422 c 0,44,45
 74 403 74 403 82 382 c 0,46,47
 92 355 92 355 108 355 c 0,48,49
 113 355 113 355 111 360 c 0,50,51
 107 374 107 374 107 385 c 0,52,53
 107 426 107 426 158 426 c 0,54,55
 165 426 165 426 171 425 c 0,56,57
 203 423 203 423 211 384 c 0,58,59
 213 374 213 374 213 367 c 0,60,61
 213 337 213 337 190 315.5 c 128,-1,62
 167 294 167 294 137 294 c 0,63,64
 108 294 108 294 76.5 309 c 128,-1,65
 45 324 45 324 30 348 c 0,66,67
 9 381 9 381 12 451 c 0,68,69
 13 477 13 477 37 512 c 0,70,71
 69 558 69 558 113 567 c 0,72,73
 133 571 133 571 149 571 c 0,74,75
 171 571 171 571 201 556 c 1,76,77
 266 531 266 531 280 454 c 1,78,-1
 280 558 l 1,79,-1
 501 558 l 1,80,81
 504 570 504 570 506 593 c 0,82,83
 507 610 507 610 486 624 c 0,84,85
 469 635 469 635 403 635 c 0,86,87
 313 635 313 635 228 625 c 0,88,89
 203 622 203 622 184 622 c 0,90,91
 124 622 124 622 86 650 c 0,92,93
 43 681 43 681 43 739 c 0,94,95
 43 771 43 771 55 785 c 1,96,97
 63 803 63 803 67 799 c 0,98,99
 74 790 74 790 78 777 c 1,100,101
 66 765 66 765 66 751 c 0,102,103
 66 723 66 723 94 707 c 0,104,105
 118 693 118 693 147 695 c 2,106,-1
 201 699 l 2,107,108
 223 700 223 700 284 703 c 0,109,110
 354 707 354 707 380 705 c 0,111,112
 394 704 394 704 435 702 c 0,113,114
 459 701 459 701 477 691 c 0,115,116
 481 689 481 689 512 666 c 1,117,118
 533 647 533 647 542 616 c 0,119,120
 551 584 551 584 542 558 c 1,121,-1
 602 558 l 1,122,-1
 653 508 l 1,0,-1
EndSplineSet
EndChar

StartChar: Eacute
Encoding: 201 201 163
Width: 512
Flags: W
LayerCount: 2
Fore
SplineSet
559 508 m 1,0,-1
 359 508 l 1,1,2
 455 381 455 381 455 250 c 0,3,4
 455 125 455 125 367 67 c 0,5,6
 321 37 321 37 264 39 c 0,7,8
 206 41 206 41 165 74 c 0,9,10
 111 118 111 118 108 159 c 1,11,12
 102 173 102 173 102 195 c 0,13,14
 101 233 101 233 111 245 c 1,15,16
 138 256 138 256 182 279 c 0,17,18
 232 306 232 306 245 321 c 0,19,20
 267 348 267 348 267 373 c 0,21,22
 267 384 267 384 263 395 c 1,23,24
 265 402 265 402 265 408 c 0,25,26
 264 449 264 449 226 476 c 0,27,28
 192 500 192 500 149 500 c 0,29,30
 84 500 84 500 76 448 c 0,31,32
 74 440 74 440 74 422 c 0,33,34
 74 403 74 403 82 382 c 0,35,36
 92 355 92 355 108 355 c 0,37,38
 113 355 113 355 111 360 c 0,39,40
 107 374 107 374 107 385 c 0,41,42
 107 426 107 426 158 426 c 0,43,44
 165 426 165 426 171 425 c 0,45,46
 203 423 203 423 211 384 c 0,47,48
 213 374 213 374 213 367 c 0,49,50
 213 337 213 337 190 315.5 c 128,-1,51
 167 294 167 294 137 294 c 0,52,53
 108 294 108 294 76.5 309 c 128,-1,54
 45 324 45 324 30 348 c 0,55,56
 9 381 9 381 12 451 c 0,57,58
 13 477 13 477 37 512 c 0,59,60
 69 558 69 558 113 567 c 0,61,62
 133 571 133 571 149 571 c 0,63,64
 171 571 171 571 201 556 c 1,65,66
 242 540 242 540 268.5 495.5 c 128,-1,67
 295 451 295 451 295 405 c 0,68,69
 295 393 295 393 292 382 c 1,70,71
 307 404 307 404 308 422 c 0,72,73
 309 433 309 433 305 467 c 0,74,75
 303 486 303 486 292 507 c 2,76,-1
 225 637 l 2,77,78
 194 697 194 697 194 747 c 0,79,80
 194 813 194 813 252 855 c 1,81,-1
 305 802 l 1,82,83
 241 774 241 774 241 716 c 0,84,85
 241 685 241 685 262 641 c 0,86,87
 278 608 278 608 321 558 c 1,88,-1
 508 558 l 1,89,-1
 559 508 l 1,0,-1
402 319 m 0,90,91
 390 378 390 378 353 426 c 1,92,93
 353 331 353 331 292 259 c 0,94,95
 263 225 263 225 181 177 c 0,96,97
 170 171 170 171 175 148 c 0,98,99
 188 87 188 87 254 87 c 0,100,101
 317 87 317 87 364 156 c 0,102,103
 390 195 390 195 397 218 c 0,104,105
 412 269 412 269 402 319 c 0,90,91
EndSplineSet
EndChar

StartChar: Ecircumflex
Encoding: 202 202 164
Width: 650
Flags: W
LayerCount: 2
Fore
SplineSet
-51 508 m 1,0,-1
 353 508 l 2,1,2
 399 508 399 508 431 532 c 0,3,4
 467 559 467 559 467 603 c 0,5,6
 467 638 467 638 442.5 665 c 128,-1,7
 418 692 418 692 383 692 c 0,8,9
 346 692 346 692 323 664 c 1,10,-1
 301 598 l 1,11,12
 309 608 309 608 337.5 629 c 128,-1,13
 366 650 366 650 375 650 c 0,14,15
 418 650 418 650 418 606 c 0,16,17
 418 559 418 559 341 559 c 2,18,-1
 -3 559 l 1,19,-1
 -51 508 l 1,0,-1
-53 421 m 1,20,21
 -81 420 -81 420 499 420 c 0,22,23
 544 420 544 420 578.5 445.5 c 128,-1,24
 613 471 613 471 613 514 c 0,25,26
 613 550 613 550 589 577 c 128,-1,27
 565 604 565 604 529 604 c 0,28,29
 495 604 495 604 477 576 c 1,30,-1
 468 503 l 1,31,32
 473 514 473 514 493.5 538.5 c 128,-1,33
 514 563 514 563 521 563 c 0,34,35
 538 563 538 563 551 549.5 c 128,-1,36
 564 536 564 536 564 519 c 0,37,38
 564 472 564 472 487 472 c 2,39,-1
 1 471 l 1,40,-1
 -53 421 l 1,20,21
EndSplineSet
EndChar

StartChar: Edieresis
Encoding: 203 203 165
Width: 509
Flags: W
LayerCount: 2
Fore
SplineSet
562 508 m 1,0,-1
 0 508 l 1,1,-1
 -51 558 l 1,2,-1
 511 558 l 1,3,-1
 562 508 l 1,0,-1
353 486 m 0,4,5
 436 487 436 487 473 397 c 0,6,7
 484 369 484 369 467 308 c 0,8,9
 456 270 456 270 441 253 c 1,10,11
 463 231 463 231 470 216 c 1,12,13
 480 168 480 168 480 159 c 0,14,15
 480 21 480 21 332 21 c 0,16,17
 281 21 281 21 242 45 c 0,18,19
 216 61 216 61 168 112 c 0,20,21
 88 197 88 197 19 442 c 1,22,-1
 53 423 l 2,23,24
 55 422 55 422 71 377 c 0,25,26
 92 317 92 317 123 265 c 0,27,28
 141 235 141 235 150 221 c 0,29,30
 165 198 165 198 183 180 c 2,31,-1
 217 146 l 1,32,33
 278 95 278 95 332 95 c 0,34,35
 370 95 370 95 399 113 c 0,36,37
 432 133 432 133 439 168 c 0,38,39
 441 178 441 178 441 186 c 0,40,41
 441 207 441 207 429 217 c 0,42,43
 423 222 423 222 412 231 c 1,44,45
 393 212 393 212 368 212 c 0,46,47
 341 212 341 212 323.5 228.5 c 128,-1,48
 306 245 306 245 307 271 c 0,49,50
 307 295 307 295 323.5 314.5 c 128,-1,51
 340 334 340 334 364 334 c 0,52,53
 382 334 382 334 404 323 c 1,54,55
 440 340 440 340 440 375 c 0,56,57
 440 383 440 383 438 392 c 0,58,59
 428 436 428 436 379 436 c 256,60,61
 330 436 330 436 297 414 c 2,62,-1
 267 394 l 2,63,64
 250 383 250 383 239 365 c 1,65,66
 262 348 262 348 267 316 c 0,67,68
 275 264 275 264 218 264 c 0,69,70
 150 264 150 264 150 337 c 0,71,72
 150 361 150 361 160 378 c 0,73,74
 222 484 222 484 353 486 c 0,4,5
EndSplineSet
EndChar

StartChar: Igrave
Encoding: 204 204 166
Width: 511
Flags: W
LayerCount: 2
Fore
SplineSet
554 506 m 1,0,-1
 455 506 l 1,1,-1
 455 -27 l 1,2,-1
 431 -12 l 1,3,-1
 404 39 l 2,4,5
 391 64 391 64 376 78 c 0,6,7
 302 148 302 148 218 171 c 0,8,9
 192 178 192 178 129 184 c 1,10,-1
 47 296 l 1,11,12
 82 287 82 287 109 287 c 0,13,14
 151 287 151 287 204 312 c 0,15,16
 223 321 223 321 274 363 c 1,17,18
 302 392 302 392 302 420 c 0,19,20
 302 445 302 445 272 475 c 1,21,-1
 216 410 l 1,22,-1
 182 415 l 1,23,24
 186 422 186 422 186 431 c 0,25,26
 186 461 186 461 157 488 c 0,27,28
 150 494 150 494 138 494 c 0,29,30
 123 494 123 494 105 482.5 c 128,-1,31
 87 471 87 471 87 457 c 1,32,33
 86 454 86 454 89 451 c 1,34,35
 103 446 103 446 117 442 c 1,36,37
 144 429 144 429 146 390 c 0,38,39
 147 367 147 367 131.5 353.5 c 128,-1,40
 116 340 116 340 93 340 c 0,41,42
 45 339 45 339 18 394 c 0,43,44
 2 426 2 426 4 448 c 1,45,46
 13 490 13 490 28 508 c 0,47,48
 57 542 57 542 85 549 c 0,49,50
 122 558 122 558 145 543 c 0,51,52
 161 533 161 533 186 495 c 1,53,-1
 247 561 l 1,54,-1
 295 515 l 2,55,56
 331 480 331 480 341 459 c 1,57,58
 343 452 343 452 354 413 c 0,59,60
 358 399 358 399 358 388 c 0,61,62
 358 338 358 338 304 283 c 0,63,64
 297 276 297 276 267 258 c 0,65,66
 242 243 242 243 242 237 c 0,67,68
 242 234 242 234 244 233 c 1,69,70
 243 233 243 233 242 232 c 1,71,72
 242 230 242 230 276 209 c 0,73,74
 324 179 324 179 349 156 c 2,75,-1
 407 103 l 1,76,-1
 407 637 l 1,77,-1
 435 603 l 1,78,79
 432 575 432 575 450 561 c 0,80,81
 455 558 455 558 510 556 c 1,82,83
 533 531 533 531 554 506 c 1,0,-1
EndSplineSet
EndChar

StartChar: Iacute
Encoding: 205 205 167
Width: 1
Flags: W
LayerCount: 2
Fore
SplineSet
-58 196 m 0,0,1
 -58 108 -58 108 -125 58 c 0,2,3
 -169 25 -169 25 -221 25 c 0,4,5
 -258 25 -258 25 -312 47 c 0,6,7
 -418 91 -418 91 -488 246 c 0,8,9
 -489 248 -489 248 -504 287 c 0,10,11
 -548 401 -548 401 -559 471 c 1,12,-1
 -537 458 l 1,13,-1
 -506 389 l 2,14,15
 -472 314 -472 314 -451 276 c 0,16,17
 -356 106 -356 106 -231 106 c 0,18,19
 -179 106 -179 106 -141 133 c 0,20,21
 -98 163 -98 163 -99 213 c 0,22,23
 -100 262 -100 262 -142 282 c 0,24,25
 -150 286 -150 286 -160 286 c 2,26,-1
 -179 286 l 1,27,28
 -157 262 -157 262 -157 230 c 0,29,30
 -157 192 -157 192 -195 173 c 0,31,32
 -213 164 -213 164 -231 164 c 0,33,34
 -256 164 -256 164 -278 178 c 128,-1,35
 -300 192 -300 192 -305 215 c 0,36,37
 -309 233 -309 233 -309 245 c 0,38,39
 -309 274 -309 274 -291.5 298 c 128,-1,40
 -274 322 -274 322 -247 332 c 0,41,42
 -199 349 -199 349 -158 336 c 0,43,44
 -57 303 -57 303 -58 196 c 0,0,1
EndSplineSet
EndChar

StartChar: Icircumflex
Encoding: 206 206 168
Width: 499
Flags: W
LayerCount: 2
Fore
SplineSet
550 508 m 1,0,-1
 -1 508 l 1,1,-1
 -50 558 l 1,2,-1
 499 558 l 1,3,-1
 550 508 l 1,0,-1
446 -14 m 1,4,-1
 414 10 l 1,5,6
 408 34 408 34 389 73 c 1,7,8
 366 100 366 100 318 100 c 0,9,10
 295 100 295 100 236 92 c 0,11,12
 183 84 183 84 153 87 c 0,13,14
 9 100 9 100 9 251 c 0,15,16
 9 302 9 302 33 369 c 0,17,18
 40 389 40 389 47 389 c 1,19,20
 49 388 49 388 52 385 c 2,21,-1
 72 364 l 1,22,23
 47 329 47 329 44 272 c 0,24,25
 42 217 42 217 79 180 c 0,26,27
 93 167 93 167 126 161 c 0,28,29
 156 156 156 156 178 160 c 0,30,31
 207 166 207 166 246 166 c 0,32,33
 322 167 322 167 362 140 c 1,34,35
 379 126 379 126 395 112 c 1,36,-1
 395 401 l 1,37,38
 389 428 389 428 384 426 c 1,39,40
 380 429 380 429 367 429 c 256,41,42
 354 429 354 429 344 424 c 0,43,44
 308 406 308 406 287 385 c 1,45,46
 251 364 251 364 235 310 c 1,47,48
 256 314 256 314 263 314 c 0,49,50
 282 314 282 314 293.5 296.5 c 128,-1,51
 305 279 305 279 305 259 c 0,52,53
 305 240 305 240 292 222 c 128,-1,54
 279 204 279 204 261 202 c 0,55,56
 252 201 252 201 240 201 c 0,57,58
 172 201 172 201 159 261 c 0,59,60
 156 273 156 273 155 293 c 0,61,62
 153 318 153 318 170 351 c 0,63,64
 185 381 185 381 205 401 c 0,65,66
 298 493 298 493 363 487 c 0,67,68
 374 486 374 486 395 475 c 0,69,70
 446 449 446 449 446 410 c 2,71,-1
 446 -14 l 1,4,-1
EndSplineSet
EndChar

StartChar: Idieresis
Encoding: 207 207 169
Width: 539
Flags: W
LayerCount: 2
Fore
SplineSet
593 508 m 1,0,-1
 89 508 l 1,1,-1
 89 316 l 1,2,3
 93 319 93 319 113 343 c 0,4,5
 138 373 138 373 156 391 c 0,6,7
 197 432 197 432 254 463 c 1,8,-1
 325 404 l 1,9,10
 250 323 250 323 248 235 c 1,11,12
 260 263 260 263 321 321 c 0,13,14
 368 366 368 366 426 389 c 1,15,-1
 502 337 l 1,16,17
 429 240 429 240 427 162 c 1,18,19
 424 143 424 143 424 123 c 0,20,21
 424 60 424 60 449 -15 c 1,22,-1
 410 11 l 1,23,24
 398 42 398 42 388 101 c 1,25,26
 376 165 376 165 379 191 c 0,27,28
 387 258 387 258 403 300 c 1,29,30
 339 253 339 253 302 202 c 0,31,32
 294 191 294 191 262 119 c 1,33,34
 218 190 218 190 218 192 c 1,35,36
 204 215 204 215 200 249 c 1,37,38
 200 320 200 320 234 370 c 1,39,40
 180 332 180 332 123 243 c 0,41,42
 111 225 111 225 99 190 c 1,43,-1
 39 249 l 1,44,-1
 39 508 l 1,45,-1
 0 508 l 1,46,-1
 -50 558 l 1,47,-1
 542 558 l 1,48,-1
 593 508 l 1,0,-1
EndSplineSet
EndChar

StartChar: Eth
Encoding: 208 208 170
Width: 434
Flags: W
LayerCount: 2
Fore
SplineSet
417 291 m 0,0,1
 410 279 410 279 387 256 c 1,2,3
 419 214 419 214 419 161 c 0,4,5
 420 94 420 94 351 75 c 0,6,7
 329 69 329 69 308 69 c 0,8,9
 107 69 107 69 27 391 c 0,10,11
 4 483 4 483 7 494 c 1,12,-1
 27 496 l 1,13,14
 46 406 46 406 76 337 c 0,15,16
 88 309 88 309 143 232 c 0,17,18
 153 219 153 219 185 195 c 0,19,20
 251 147 251 147 305 147 c 0,21,22
 365 147 365 147 365 207 c 0,23,24
 365 213 365 213 362 235 c 1,25,26
 344 219 344 219 324 219 c 0,27,28
 287 219 287 219 267 255 c 0,29,30
 259 269 259 269 259 283 c 0,31,32
 259 306 259 306 277 322 c 128,-1,33
 295 338 295 338 318 338 c 0,34,35
 336 338 336 338 350 329 c 1,36,37
 352 330 352 330 361 330 c 0,38,39
 366 330 366 330 377 351 c 0,40,41
 387 371 387 371 370 425 c 0,42,43
 360 457 360 457 349 462 c 1,44,-1
 297 383 l 1,45,-1
 278 416 l 1,46,47
 283 445 283 445 257 471 c 128,-1,48
 231 497 231 497 202 494 c 0,49,50
 191 493 191 493 179 492 c 1,51,52
 171 489 171 489 145 463 c 1,53,54
 136 449 136 449 136 432 c 0,55,56
 136 425 136 425 137 417 c 0,57,58
 142 395 142 395 153 389 c 1,59,60
 159 387 159 387 165 384 c 1,61,62
 165 440 165 440 204 438 c 0,63,64
 242 436 242 436 242 400 c 0,65,66
 242 394 242 394 241 387 c 0,67,68
 233 335 233 335 175 335 c 0,69,70
 128 335 128 335 102 382 c 0,71,72
 86 411 86 411 86 438 c 0,73,74
 86 483 86 483 117 523.5 c 128,-1,75
 148 564 148 564 191 564 c 0,76,77
 221 564 221 564 251 541 c 0,78,79
 267 529 267 529 276 499 c 0,80,81
 283 475 283 475 285 478 c 2,82,-1
 334 558 l 1,83,-1
 350 540 l 1,84,-1
 356 515 l 2,85,86
 359 503 359 503 387 450 c 0,87,88
 391 442 391 442 414 395 c 0,89,90
 426 370 426 370 427 341 c 0,91,92
 428 310 428 310 417 291 c 0,0,1
EndSplineSet
EndChar

StartChar: Ntilde
Encoding: 209 209 171
Width: 487
Flags: W
LayerCount: 2
Fore
SplineSet
444 311 m 1,0,-1
 36 311 l 1,1,-1
 36 381 l 1,2,-1
 444 381 l 1,3,-1
 444 311 l 1,0,-1
EndSplineSet
EndChar

StartChar: Ograve
Encoding: 210 210 172
Width: 466
Flags: W
LayerCount: 2
Fore
SplineSet
315 698 m 1,0,-1
 326 676 l 1,1,2
 267 638 267 638 264 584 c 1,3,4
 280 597 280 597 297 597 c 0,5,6
 338 597 338 597 347 555 c 0,7,8
 353 525 353 525 335 502 c 128,-1,9
 317 479 317 479 287 479 c 0,10,11
 255 479 255 479 235 506 c 0,12,13
 216 530 216 530 216 563 c 0,14,15
 216 606 216 606 246 645 c 0,16,17
 273 681 273 681 315 698 c 1,0,-1
144 698 m 1,18,-1
 155 676 l 1,19,20
 96 638 96 638 93 584 c 1,21,22
 109 597 109 597 127 597 c 0,23,24
 168 597 168 597 177 555 c 0,25,26
 183 525 183 525 165 502 c 128,-1,27
 147 479 147 479 117 479 c 0,28,29
 84 479 84 479 65 504 c 128,-1,30
 46 529 46 529 46 563 c 0,31,32
 46 607 46 607 74 645 c 128,-1,33
 102 683 102 683 144 698 c 1,18,-1
EndSplineSet
EndChar

StartChar: Oacute
Encoding: 211 211 173
Width: 400
Flags: W
LayerCount: 2
Fore
SplineSet
80 480 m 1,0,-1
 69 502 l 1,1,2
 128 539 128 539 131 594 c 1,3,4
 114 580 114 580 97 580 c 0,5,6
 57 580 57 580 48 622 c 0,7,8
 45 634 45 634 47 646 c 0,9,10
 50 668 50 668 67.5 683 c 128,-1,11
 85 698 85 698 107 698 c 0,12,13
 178 698 178 698 178 612 c 0,14,15
 178 570 178 570 149 532 c 128,-1,16
 120 494 120 494 80 480 c 1,0,-1
250 480 m 1,17,-1
 239 502 l 1,18,19
 298 539 298 539 301 593 c 1,20,21
 283 580 283 580 267 580 c 0,22,23
 227 580 227 580 218 622 c 0,24,25
 215 634 215 634 217 646 c 0,26,27
 220 668 220 668 237.5 683 c 128,-1,28
 255 698 255 698 277 698 c 0,29,30
 333 698 333 698 346 636 c 0,31,32
 348 626 348 626 348 612 c 0,33,34
 348 570 348 570 319.5 532.5 c 128,-1,35
 291 495 291 495 250 480 c 1,17,-1
EndSplineSet
EndChar

StartChar: Ocircumflex
Encoding: 212 212 174
Width: 281
Flags: W
LayerCount: 2
Fore
SplineSet
144 698 m 1,0,-1
 155 676 l 1,1,2
 97 638 97 638 93 584 c 1,3,4
 110 597 110 597 127 597 c 0,5,6
 168 597 168 597 177 555 c 0,7,8
 183 525 183 525 165 502 c 128,-1,9
 147 479 147 479 117 479 c 0,10,11
 85 479 85 479 65 506 c 0,12,13
 46 530 46 530 46 563 c 0,14,15
 46 606 46 606 74.5 644 c 128,-1,16
 103 682 103 682 144 698 c 1,0,-1
EndSplineSet
EndChar

StartChar: Otilde
Encoding: 213 213 175
Width: 220
Flags: W
LayerCount: 2
Fore
SplineSet
80 480 m 1,0,-1
 69 502 l 1,1,2
 128 539 128 539 131 594 c 1,3,4
 114 580 114 580 97 580 c 0,5,6
 57 580 57 580 48 622 c 0,7,8
 45 634 45 634 47 646 c 0,9,10
 50 668 50 668 67.5 683 c 128,-1,11
 85 698 85 698 107 698 c 0,12,13
 178 698 178 698 178 612 c 0,14,15
 178 570 178 570 149 532 c 128,-1,16
 120 494 120 494 80 480 c 1,0,-1
EndSplineSet
EndChar

StartChar: Odieresis
Encoding: 214 214 176
Width: 1
Flags: W
LayerCount: 2
Fore
SplineSet
-73 -39 m 1,0,1
 -80 -34 -80 -34 -105 11 c 0,2,3
 -134 63 -134 63 -139 70 c 1,4,5
 -174 106 -174 106 -251 106 c 0,6,7
 -286 106 -286 106 -369 102 c 0,8,9
 -413 100 -413 100 -452 117 c 0,10,11
 -494 135 -494 135 -515 170 c 0,12,13
 -541 213 -541 213 -540 252 c 0,14,15
 -538 338 -538 338 -534 334 c 2,16,-1
 -506 306 l 1,17,18
 -511 296 -511 296 -511 284 c 0,19,20
 -511 225 -511 225 -446 193 c 0,21,22
 -431 186 -431 186 -381 183 c 2,23,-1
 -304 179 l 2,24,25
 -245 176 -245 176 -187 154 c 1,26,27
 -141 126 -141 126 -128 105 c 1,28,29
 -91 60 -91 60 -80 27 c 0,30,31
 -73 6 -73 6 -73 -39 c 1,0,1
EndSplineSet
EndChar

StartChar: multiply
Encoding: 215 215 177
Width: 559
Flags: W
LayerCount: 2
Fore
SplineSet
600 508 m 1,0,-1
 97 508 l 1,1,-1
 97 357 l 1,2,3
 120 382 120 382 152 413 c 1,4,5
 210 463 210 463 261 463 c 0,6,7
 268 463 268 463 275 462 c 1,8,9
 306 452 306 452 320 438 c 0,10,11
 327 431 327 431 346 403 c 0,12,13
 355 390 355 390 355 336 c 1,14,15
 385 350 385 350 421 365 c 0,16,17
 426 367 426 367 430 367 c 0,18,19
 449 367 449 367 466.5 344 c 128,-1,20
 484 321 484 321 487 301 c 2,21,-1
 494 260 l 1,22,23
 487 206 487 206 488 128 c 0,24,25
 488 70 488 70 503 -4 c 1,26,27
 460 12 460 12 446 58 c 0,28,29
 442 70 442 70 437 78 c 1,30,31
 434 135 434 135 434 188 c 0,32,33
 434 215 434 215 436 290 c 1,34,35
 381 283 381 283 360 263 c 1,36,-1
 360 -23 l 1,37,-1
 332 2 l 1,38,-1
 308 43 l 2,39,40
 288 77 288 77 234 105 c 0,41,42
 198 124 198 124 157 127 c 1,43,-1
 108 192 l 1,44,45
 141 218 141 218 193 253 c 0,46,47
 195 254 195 254 305 323 c 1,48,-1
 305 372 l 1,49,50
 304 382 304 382 297 393 c 1,51,52
 292 394 292 394 286 394 c 0,53,54
 246 394 246 394 197 358 c 0,55,56
 154 326 154 326 129 288.5 c 128,-1,57
 104 251 104 251 93 230 c 1,58,-1
 48 288 l 1,59,-1
 48 508 l 1,60,-1
 1 508 l 1,61,-1
 -51 558 l 1,62,-1
 551 558 l 1,63,-1
 600 508 l 1,0,-1
310 85 m 1,64,-1
 310 240 l 1,65,66
 307 238 307 238 255 208 c 0,67,68
 248 204 248 204 198 171 c 1,69,70
 245 154 245 154 297 102 c 0,71,72
 302 97 302 97 310 85 c 1,64,-1
EndSplineSet
EndChar

